G75*
%MOIN*%
%OFA0B0*%
%FSLAX25Y25*%
%IPPOS*%
%LPD*%
%AMOC8*
5,1,8,0,0,1.08239X$1,22.5*
%
%ADD10C,0.00300*%
%ADD11C,0.00600*%
%ADD12C,0.00100*%
D10*
X0691082Y0367967D02*
X0691082Y0369201D01*
X0691699Y0369818D01*
X0694168Y0369818D01*
X0694785Y0369201D01*
X0694785Y0367967D01*
X0694168Y0367350D01*
X0691699Y0367350D01*
X0691082Y0367967D01*
X0691699Y0371033D02*
X0691082Y0371650D01*
X0691082Y0373502D01*
X0691699Y0375333D02*
X0691082Y0375950D01*
X0691699Y0375333D02*
X0694168Y0375333D01*
X0693551Y0374716D02*
X0693551Y0375950D01*
X0693551Y0373502D02*
X0693551Y0371650D01*
X0692933Y0371033D01*
X0691699Y0371033D01*
X0697082Y0375330D02*
X0697082Y0377181D01*
X0697699Y0377799D01*
X0698316Y0377799D01*
X0698933Y0377181D01*
X0698933Y0375330D01*
X0697082Y0375330D02*
X0700785Y0375330D01*
X0700785Y0377181D01*
X0700168Y0377799D01*
X0699551Y0377799D01*
X0698933Y0377181D01*
X0698933Y0379013D02*
X0698933Y0380865D01*
X0698316Y0381482D01*
X0697699Y0381482D01*
X0697082Y0380865D01*
X0697082Y0379013D01*
X0700785Y0379013D01*
X0700785Y0380865D01*
X0700168Y0381482D01*
X0699551Y0381482D01*
X0698933Y0380865D01*
X0698933Y0382696D02*
X0698933Y0385165D01*
X0698316Y0386379D02*
X0698933Y0386996D01*
X0698933Y0388231D01*
X0698316Y0388848D01*
X0697699Y0388848D01*
X0697082Y0388231D01*
X0697082Y0386996D01*
X0697699Y0386379D01*
X0698316Y0386379D01*
X0698933Y0386996D02*
X0699551Y0386379D01*
X0700168Y0386379D01*
X0700785Y0386996D01*
X0700785Y0388231D01*
X0700168Y0388848D01*
X0699551Y0388848D01*
X0698933Y0388231D01*
X0694785Y0387006D02*
X0694168Y0385772D01*
X0692933Y0384538D01*
X0692933Y0386389D01*
X0692316Y0387006D01*
X0691699Y0387006D01*
X0691082Y0386389D01*
X0691082Y0385155D01*
X0691699Y0384538D01*
X0692933Y0384538D01*
X0691082Y0383323D02*
X0691082Y0380855D01*
X0691082Y0382089D02*
X0694785Y0382089D01*
X0693551Y0380855D01*
X0691699Y0388838D02*
X0691082Y0388838D01*
X0691082Y0389455D01*
X0691699Y0389455D01*
X0691699Y0388838D01*
X0691082Y0389455D02*
X0689847Y0388221D01*
X0691082Y0394359D02*
X0693551Y0396828D01*
X0694168Y0396828D01*
X0694785Y0396211D01*
X0694785Y0394977D01*
X0694168Y0394359D01*
X0697082Y0394980D02*
X0699551Y0396214D01*
X0699551Y0397429D02*
X0700785Y0398663D01*
X0697082Y0398663D01*
X0697082Y0397429D02*
X0697082Y0399898D01*
X0694785Y0399894D02*
X0694168Y0400511D01*
X0691699Y0398043D01*
X0691082Y0398660D01*
X0691082Y0399894D01*
X0691699Y0400511D01*
X0694168Y0400511D01*
X0694785Y0399894D02*
X0694785Y0398660D01*
X0694168Y0398043D01*
X0691699Y0398043D01*
X0691082Y0396828D02*
X0691082Y0394359D01*
X0697082Y0394980D02*
X0699551Y0393746D01*
X0693551Y0401726D02*
X0694785Y0402960D01*
X0691082Y0402960D01*
X0691082Y0401726D02*
X0691082Y0404194D01*
X0691699Y0405409D02*
X0691082Y0406026D01*
X0691082Y0407260D01*
X0691699Y0407878D01*
X0692316Y0407878D01*
X0692933Y0407260D01*
X0692933Y0405409D01*
X0691699Y0405409D01*
X0692933Y0405409D02*
X0694168Y0406643D01*
X0694785Y0407878D01*
D11*
X0373688Y0311693D02*
X0373688Y0309331D01*
X0368963Y0309331D02*
X0368963Y0311693D01*
X0365420Y0313858D02*
X0365420Y0316220D01*
X0360696Y0316220D02*
X0360696Y0313858D01*
X0334121Y0318780D02*
X0331759Y0318780D01*
X0331759Y0323504D02*
X0334121Y0323504D01*
X0334121Y0326850D02*
X0331759Y0326850D01*
X0331759Y0331575D02*
X0334121Y0331575D01*
X0321916Y0312480D02*
X0321916Y0310118D01*
X0317192Y0310118D02*
X0317192Y0312480D01*
X0309711Y0304803D02*
X0309711Y0302441D01*
X0304987Y0302441D02*
X0304987Y0304803D01*
X0303806Y0270354D02*
X0303806Y0267992D01*
X0306955Y0267992D02*
X0306955Y0270354D01*
X0311680Y0270354D02*
X0311680Y0267992D01*
X0299081Y0267992D02*
X0299081Y0270354D01*
X0352231Y0256575D02*
X0352231Y0254213D01*
X0356955Y0254213D02*
X0356955Y0256575D01*
X0361089Y0261102D02*
X0361089Y0263465D01*
X0365814Y0263465D02*
X0365814Y0261102D01*
D12*
X0349793Y0254775D02*
X0349793Y0254274D01*
X0350043Y0254024D01*
X0351044Y0254024D01*
X0351294Y0254274D01*
X0351294Y0254775D01*
X0351044Y0255025D01*
X0350794Y0255497D02*
X0351294Y0255998D01*
X0349793Y0255998D01*
X0349793Y0256498D02*
X0349793Y0255497D01*
X0350043Y0255025D02*
X0349793Y0254775D01*
X0349793Y0256970D02*
X0350043Y0256970D01*
X0351044Y0257971D01*
X0351294Y0257971D01*
X0351294Y0256970D01*
X0358651Y0261164D02*
X0358651Y0261664D01*
X0358902Y0261915D01*
X0358651Y0262387D02*
X0359652Y0263388D01*
X0359902Y0263388D01*
X0360153Y0263138D01*
X0360153Y0262637D01*
X0359902Y0262387D01*
X0359902Y0261915D02*
X0360153Y0261664D01*
X0360153Y0261164D01*
X0359902Y0260914D01*
X0358902Y0260914D01*
X0358651Y0261164D01*
X0358651Y0262387D02*
X0358651Y0263388D01*
X0358651Y0263860D02*
X0359652Y0264861D01*
X0359902Y0264861D01*
X0360153Y0264611D01*
X0360153Y0264110D01*
X0359902Y0263860D01*
X0358651Y0263860D02*
X0358651Y0264861D01*
X0306019Y0268054D02*
X0305769Y0267803D01*
X0304768Y0267803D01*
X0304518Y0268054D01*
X0304518Y0268554D01*
X0304768Y0268804D01*
X0304518Y0269277D02*
X0305518Y0270278D01*
X0305769Y0270278D01*
X0306019Y0270027D01*
X0306019Y0269527D01*
X0305769Y0269277D01*
X0305769Y0268804D02*
X0306019Y0268554D01*
X0306019Y0268054D01*
X0304518Y0269277D02*
X0304518Y0270278D01*
X0305268Y0270750D02*
X0305268Y0271751D01*
X0304518Y0271501D02*
X0306019Y0271501D01*
X0305268Y0270750D01*
X0298145Y0271000D02*
X0298145Y0271501D01*
X0297895Y0271751D01*
X0297644Y0271751D01*
X0297394Y0271501D01*
X0297394Y0271000D01*
X0297644Y0270750D01*
X0297895Y0270750D01*
X0298145Y0271000D01*
X0297394Y0271000D02*
X0297144Y0270750D01*
X0296894Y0270750D01*
X0296644Y0271000D01*
X0296644Y0271501D01*
X0296894Y0271751D01*
X0297144Y0271751D01*
X0297394Y0271501D01*
X0296644Y0270278D02*
X0296644Y0269277D01*
X0296644Y0269777D02*
X0298145Y0269777D01*
X0297644Y0269277D01*
X0297895Y0268804D02*
X0298145Y0268554D01*
X0298145Y0268054D01*
X0297895Y0267803D01*
X0296894Y0267803D01*
X0296644Y0268054D01*
X0296644Y0268554D01*
X0296894Y0268804D01*
X0310899Y0300672D02*
X0310649Y0300922D01*
X0310649Y0301423D01*
X0310899Y0301673D01*
X0310649Y0302145D02*
X0311650Y0303146D01*
X0311900Y0303146D01*
X0312150Y0302896D01*
X0312150Y0302396D01*
X0311900Y0302145D01*
X0311900Y0301673D02*
X0312150Y0301423D01*
X0312150Y0300922D01*
X0311900Y0300672D01*
X0310899Y0300672D01*
X0310649Y0302145D02*
X0310649Y0303146D01*
X0310899Y0303619D02*
X0310649Y0303869D01*
X0310649Y0304369D01*
X0310899Y0304619D01*
X0311149Y0304619D01*
X0311400Y0304369D01*
X0311400Y0304119D01*
X0311400Y0304369D02*
X0311650Y0304619D01*
X0311900Y0304619D01*
X0312150Y0304369D01*
X0312150Y0303869D01*
X0311900Y0303619D01*
X0315004Y0309929D02*
X0314754Y0310180D01*
X0314754Y0310680D01*
X0315004Y0310930D01*
X0314754Y0311403D02*
X0314754Y0312404D01*
X0314754Y0311903D02*
X0316255Y0311903D01*
X0315755Y0311403D01*
X0316005Y0310930D02*
X0316255Y0310680D01*
X0316255Y0310180D01*
X0316005Y0309929D01*
X0315004Y0309929D01*
X0315004Y0312876D02*
X0314754Y0313126D01*
X0314754Y0313627D01*
X0315004Y0313877D01*
X0316005Y0313877D01*
X0316255Y0313627D01*
X0316255Y0313126D01*
X0316005Y0312876D01*
X0315755Y0312876D01*
X0315504Y0313126D01*
X0315504Y0313877D01*
X0331942Y0324692D02*
X0331942Y0324942D01*
X0332192Y0325192D01*
X0332943Y0325192D01*
X0332943Y0324692D01*
X0332693Y0324442D01*
X0332192Y0324442D01*
X0331942Y0324692D01*
X0332943Y0325192D02*
X0332443Y0325693D01*
X0331942Y0325943D01*
X0333916Y0325943D02*
X0333916Y0324442D01*
X0334416Y0324442D02*
X0333416Y0324442D01*
X0334416Y0325443D02*
X0333916Y0325943D01*
X0334889Y0325693D02*
X0335139Y0325943D01*
X0335639Y0325943D01*
X0335890Y0325693D01*
X0335890Y0324692D01*
X0335639Y0324442D01*
X0335139Y0324442D01*
X0334889Y0324692D01*
X0335139Y0332513D02*
X0334889Y0332763D01*
X0335139Y0332513D02*
X0335639Y0332513D01*
X0335890Y0332763D01*
X0335890Y0333764D01*
X0335639Y0334014D01*
X0335139Y0334014D01*
X0334889Y0333764D01*
X0334416Y0333513D02*
X0333916Y0334014D01*
X0333916Y0332513D01*
X0334416Y0332513D02*
X0333416Y0332513D01*
X0332943Y0332763D02*
X0331942Y0333764D01*
X0331942Y0332763D01*
X0332192Y0332513D01*
X0332693Y0332513D01*
X0332943Y0332763D01*
X0332943Y0333764D01*
X0332693Y0334014D01*
X0332192Y0334014D01*
X0331942Y0333764D01*
X0366358Y0315787D02*
X0366358Y0315286D01*
X0366608Y0315036D01*
X0367609Y0316037D01*
X0366608Y0316037D01*
X0366358Y0315787D01*
X0366608Y0315036D02*
X0367609Y0315036D01*
X0367859Y0315286D01*
X0367859Y0315787D01*
X0367609Y0316037D01*
X0367609Y0314563D02*
X0367859Y0314313D01*
X0367859Y0313813D01*
X0367609Y0313563D01*
X0367609Y0313090D02*
X0367859Y0312840D01*
X0367859Y0312340D01*
X0367609Y0312089D01*
X0366608Y0312089D01*
X0366358Y0312340D01*
X0366358Y0312840D01*
X0366608Y0313090D01*
X0366358Y0313563D02*
X0367359Y0314563D01*
X0367609Y0314563D01*
X0366358Y0314563D02*
X0366358Y0313563D01*
X0374625Y0311509D02*
X0374625Y0310508D01*
X0374625Y0310036D02*
X0374625Y0309035D01*
X0375626Y0310036D01*
X0375877Y0310036D01*
X0376127Y0309786D01*
X0376127Y0309285D01*
X0375877Y0309035D01*
X0375877Y0308563D02*
X0376127Y0308312D01*
X0376127Y0307812D01*
X0375877Y0307562D01*
X0374876Y0307562D01*
X0374625Y0307812D01*
X0374625Y0308312D01*
X0374876Y0308563D01*
X0375626Y0310508D02*
X0376127Y0311009D01*
X0374625Y0311009D01*
M02*
