%
M48
M72
T01C0.01181
T02C0.01969
T03C0.02362
T04C0.02756
T05C0.03150
T06C0.03937
T07C0.04000
T08C0.04016
T09C0.06516
T10C0.07087
T11C0.08000
T12C0.10000
T13C0.16732
%
T01
X622310Y415630
X521522Y346732
X511286Y343583
X511286Y351457
X499081Y346732
X490420Y341614
X480184Y355787
X458136Y342402
X446719Y330984
X434514Y333346
X434514Y338465
X431168Y345354
X438058Y353031
X422310Y340039
X422703Y335709
X419160Y334921
X420735Y326654
X410499Y321142
X395932Y332559
X406955Y336890
X406562Y340039
X413648Y343189
X406955Y357362
X403412Y366024
X395932Y372717
X384908Y370354
X375066Y372717
X372310Y379409
X361680Y386102
X361680Y389252
X354987Y386102
X346325Y387677
X340026Y384134
X330971Y392008
X323097Y396339
X330184Y405787
X295538Y387283
X290026Y375079
X273885Y385709
X251444Y371142
X247900Y364055
X245932Y355000
X258136Y355394
X264042Y350276
X259318Y346339
X267192Y359724
X259711Y366417
X241207Y329016
X248294Y324685
X247900Y316811
X241207Y312874
X240026Y305000
X245538Y302244
X242782Y295551
X229396Y286102
X240026Y279016
X242782Y275472
X233727Y258543
X249475Y247126
X236483Y243189
X226247Y234134
X256168Y215630
X252231Y208543
X279790Y217205
X280184Y232559
X293963Y234528
X297507Y242795
X301444Y249488
X298294Y253031
X295538Y251063
X292782Y263268
X283727Y268780
X285302Y275472
X273885Y267205
X262073Y261299
X300262Y279016
X307743Y282165
X308333Y276063
X313747Y274587
X302625Y269567
X316404Y258150
X317979Y251457
X321522Y248701
X317979Y242008
X324278Y232559
X330577Y253031
X333727Y253031
X336877Y253031
X324672Y257756
X331759Y260118
X345932Y252638
X353885Y262638
X359711Y262087
X370735Y267598
X370735Y277835
X378215Y280197
X381759Y282559
X384514Y285709
X377428Y288465
X388451Y300276
X388451Y308150
X377428Y310906
X365223Y306969
X358924Y311496
X358924Y317992
X343963Y316417
X340026Y318780
X335696Y317992
X332546Y319173
X336207Y308150
X340026Y308150
X343963Y307756
X337270Y302638
X333333Y299882
X331759Y292795
X324278Y293583
X324672Y285315
X325066Y279409
X331759Y281772
X334121Y277047
X331365Y274291
X344751Y275472
X347900Y281378
X357743Y287677
X398294Y290039
X411286Y285709
X412467Y282559
X426247Y292008
X407743Y310118
X375853Y320748
X358136Y333346
X343963Y338071
X329790Y336102
X312073Y308543
X312073Y305000
X312861Y300276
X307743Y292402
X300656Y296339
X297900Y291614
X284514Y328228
X270341Y325472
X210892Y294764
X212861Y288858
X211680Y275472
X206955Y269173
X206955Y263268
X194751Y254213
X185302Y298701
X185302Y304606
X254593Y408937
X221522Y438858
X358136Y368780
X382940Y380591
X380184Y387677
X382940Y395551
X389633Y397913
X361286Y416811
X422703Y380197
X413255Y373504
X434121Y370748
X392782Y354606
X449081Y315236
X480184Y296732
X494751Y291811
X493373Y283937
X491404Y276063
X497113Y275472
X494751Y269567
X497507Y266417
X491207Y264843
X487467Y270157
X475459Y270354
X455381Y286102
X441995Y273110
X436877Y268780
X427034Y263268
X435696Y254606
X427034Y243189
X449081Y240827
X462861Y238661
X471719Y243583
X471719Y253425
X480577Y249488
X491404Y240630
X507152Y240236
X508136Y234724
X515026Y233346
X517979Y236496
X523885Y237677
X530381Y229803
X522900Y228819
X526837Y217992
X523885Y214055
X526837Y211496
X526837Y207362
X520932Y211496
X513058Y208150
X502625Y205394
X499475Y207756
X502231Y199882
X493373Y200276
X495932Y189646
X507152Y188661
X513058Y183543
X520932Y191417
X520932Y199291
X514042Y196535
X535696Y186496
X537664Y177638
X523885Y175669
X517979Y167795
X529790Y164843
X519948Y159921
X516995Y155984
X530774Y155984
X536680Y147126
X559318Y138268
X567192Y147480
X569160Y157953
X563255Y157953
X551444Y163858
X556365Y170748
X560302Y174685
X569160Y174685
X569948Y184528
X576640Y184528
X562270Y184528
X563255Y193386
X554396Y199291
X549475Y200276
X544554Y194961
X552428Y192402
X569160Y207165
X566207Y217008
X579987Y219961
X581955Y225866
X578018Y229803
X580971Y235709
X579987Y241614
X573097Y239646
X568176Y240630
X570144Y249488
X565223Y253425
X559318Y257362
X548491Y256378
X553904Y245059
X535696Y250472
X533727Y260315
X533136Y267795
X525262Y260512
X519948Y253425
X516010Y253425
X512861Y245748
X507152Y252441
X503806Y260315
X520932Y272126
X527822Y277047
X509711Y280197
X524081Y298307
X533727Y292008
X570735Y286102
X570735Y279409
X574672Y274488
X584908Y273898
X580774Y266220
X577034Y260709
X573491Y262283
X582940Y256378
X590026Y261299
X595735Y264055
X597113Y273898
X602625Y275079
X597703Y286890
X617388Y285906
X619357Y279016
X623294Y278228
X626247Y285906
X626247Y290827
X641995Y275079
X641010Y271142
X633136Y254409
X629199Y242598
X628215Y235709
X604593Y223898
X606562Y219961
X617388Y211102
X633136Y211102
X603609Y192402
X626247Y188465
X602625Y167795
X616404Y160906
X620341Y153031
X620341Y145157
X631168Y158937
X651837Y158937
X658727Y163858
X663451Y171732
X671522Y174685
X657743Y181575
X685302Y155000
X695144Y156969
X694160Y144173
X703018Y144173
X696129Y134331
X695144Y127441
X683333Y121535
X676444Y128425
X668570Y127441
X662664Y127441
X654790Y123504
X649869Y121535
X651837Y131378
X640026Y136299
X673491Y119567
X633136Y111693
X595932Y112677
X587861Y107756
X595735Y100866
X579003Y99882
X592388Y122126
X592782Y126457
X595735Y134331
X601640Y142205
X577034Y157953
X583924Y167795
X533727Y210118
X535696Y219961
X534711Y224882
X544554Y217008
X534711Y236693
X513058Y218976
X507349Y222913
X502231Y217992
X495341Y222913
X493373Y225669
X488451Y216024
X483530Y206181
X469751Y205197
X461877Y208150
X451050Y212087
X448097Y207165
X449081Y220945
X419948Y217205
X410499Y212874
X397507Y225866
X382940Y234134
X387270Y245945
X399081Y260906
X453806Y254213
X495932Y299488
X484514Y317205
X541995Y342795
X584908Y314843
X578609Y284134
X559318Y266220
X598688Y225866
X620341Y272126
X628609Y316024
X677034Y320354
X480577Y188465
X475656Y189449
X471719Y185512
X466798Y181575
X487467Y175669
X493373Y178622
X504199Y172717
X480577Y161890
X493373Y148110
X505184Y137283
X514042Y132165
X503412Y121535
X490420Y133346
X470735Y138268
X464829Y143189
X464829Y133346
X506562Y108937
X543963Y112087
X551444Y124488
X360892Y214055
X359711Y221929
X262861Y185709
X240814Y143189
T02
X114436Y114843
X153018Y225472
X132152Y238071
X151837Y273504
X175459Y273504
X186483Y282165
X146325Y301063
X219160Y243976
X147113Y410118
X154593Y415236
X160892Y419961
X166404Y424685
X222703Y423504
X485499Y160906
X496818Y152539
T03
X283333Y250669
X254987Y250669
X201050Y288858
X149869Y269173
X126247Y282953
X130184Y292795
X151050Y250669
X177428Y164843
X145932Y137283
T04
X160892Y262874
X241601Y115236
X249475Y115236
X407743Y121535
X413648Y121535
X419554Y121535
X425459Y121535
X661680Y105984
X669554Y105984
T05
X676444Y261299
X680381Y281969
X662664Y281969
X645932Y297717
X652231Y304213
X635302Y321142
X645932Y262283
X145932Y308543
X145932Y212087
X116404Y212087
X145932Y170748
X128215Y162874
X112467Y162874
X129396Y136890
X145932Y115630
X209318Y148307
T06
X235696Y92402
X176247Y262087
X167192Y284528
X160892Y292008
X586089Y302638
T07
X698097Y303858
X698097Y293858
X698097Y283858
X698097Y273858
X698097Y263858
X698097Y313858
X655381Y442795
X645381Y442795
X635381Y442795
X449475Y451693
X449475Y441693
X449475Y431693
X449475Y421693
X449475Y411693
X449475Y401693
X449475Y391693
X449475Y381693
X449475Y371693
X369554Y391693
X369554Y401693
X369554Y411693
X369554Y421693
X281168Y335315
X271168Y335315
X261168Y335315
X104593Y323701
X104593Y313701
X104593Y303701
X104593Y293701
X104593Y283701
X104593Y273701
X320144Y205197
X330144Y205197
X340144Y205197
X221916Y116417
X211916Y116417
X201916Y116417
T08
X248294Y433346
X258294Y433346
X268294Y433346
X278294Y433346
X288294Y433346
X298294Y433346
X308294Y433346
X318294Y433346
X328294Y433346
X338294Y433346
X338294Y443346
X328294Y443346
X318294Y443346
X308294Y443346
X298294Y443346
X288294Y443346
X278294Y443346
X268294Y443346
X258294Y443346
X248294Y443346
T09
X297507Y148110
X297507Y130000
X275066Y130000
X275066Y148110
X275066Y111890
X297507Y111890
T10
X184908Y197520
T11
X679113Y214055
X697113Y214055
T12
X446129Y146142
T13
X363451Y143583
X363451Y115236
M30
