G75*
%MOIN*%
%OFA0B0*%
%FSLAX25Y25*%
%IPPOS*%
%LPD*%
%AMOC8*
5,1,8,0,0,1.08239X$1,22.5*
%
%ADD10C,0.00600*%
D10*
X0352231Y0254213D02*
X0352231Y0256575D01*
X0356955Y0256575D02*
X0356955Y0254213D01*
X0361089Y0261102D02*
X0361089Y0263465D01*
X0365814Y0263465D02*
X0365814Y0261102D01*
X0311680Y0267992D02*
X0311680Y0270354D01*
X0306955Y0270354D02*
X0306955Y0267992D01*
X0303806Y0267992D02*
X0303806Y0270354D01*
X0299081Y0270354D02*
X0299081Y0267992D01*
X0304987Y0302441D02*
X0304987Y0304803D01*
X0309711Y0304803D02*
X0309711Y0302441D01*
X0317192Y0310118D02*
X0317192Y0312480D01*
X0321916Y0312480D02*
X0321916Y0310118D01*
X0331759Y0318780D02*
X0334121Y0318780D01*
X0334121Y0323504D02*
X0331759Y0323504D01*
X0331759Y0326850D02*
X0334121Y0326850D01*
X0334121Y0331575D02*
X0331759Y0331575D01*
X0360696Y0316220D02*
X0360696Y0313858D01*
X0365420Y0313858D02*
X0365420Y0316220D01*
X0368963Y0311693D02*
X0368963Y0309331D01*
X0373688Y0309331D02*
X0373688Y0311693D01*
M02*
