%
M48
M72
T01C0.00787
T02C0.00866
T03C0.00984
T04C0.01063
T05C0.01181
T06C0.01378
T07C0.01575
T08C0.01969
T09C0.02362
T10C0.02756
T11C0.03150
T12C0.03937
T13C0.04000
T14C0.04016
T15C0.06516
T16C0.07087
T17C0.08000
T18C0.10000
T19C0.11811
T20C0.16732
%
T01
X329790Y349291
X301837Y244567
T02
X302231Y269173
X480577Y249488
X491010Y265236
X516010Y253425
X515026Y233346
X495735Y222520
X493373Y225276
X512861Y218976
X512861Y207953
X520932Y191417
X563255Y193386
X565223Y253425
X464829Y143189
X464829Y133346
X490420Y133346
T03
X423491Y335315
X343176Y316811
X340420Y319764
X340026Y308150
X336089Y308150
X325066Y305984
X311680Y306378
X354593Y260906
X390617Y252835
X427428Y247913
X444160Y237677
T04
X329199Y261693
T05
X622310Y415630
X521522Y346732
X511286Y343583
X511286Y351457
X499081Y346732
X490420Y341614
X479396Y355000
X458136Y342402
X446719Y330984
X432940Y331378
X434514Y338465
X431168Y345354
X438058Y353031
X422310Y340039
X413648Y343189
X406562Y340433
X407349Y336496
X395932Y332559
X410499Y321142
X420735Y326654
X419751Y334134
X434908Y317992
X440026Y304213
X426247Y292008
X411286Y285709
X410892Y280984
X397113Y289646
X384514Y285709
X381759Y282559
X378215Y279606
X370341Y277441
X368766Y267795
X359711Y262087
X371129Y254213
X387073Y244961
X378609Y239646
X379790Y234134
X397507Y225866
X410499Y212874
X419948Y217205
X449081Y220945
X451050Y212087
X448097Y207165
X461877Y208150
X469751Y205197
X483530Y206181
X488451Y216024
X502231Y217992
X507349Y222913
X520932Y211496
X523885Y214055
X526837Y211496
X526837Y207362
X534514Y210906
X535696Y219961
X534121Y224291
X526050Y226457
X530381Y229803
X534711Y236693
X523885Y237677
X517979Y236496
X508136Y234724
X507152Y240236
X512861Y245748
X507152Y252441
X503806Y260315
X497507Y266417
X494751Y269567
X497113Y275472
X491404Y276063
X487467Y270945
X475459Y270354
X493373Y284724
X494751Y291811
X480184Y296732
X455381Y286102
X441995Y273110
X436877Y268780
X427034Y263268
X420735Y262087
X410499Y253031
X420735Y240827
X436089Y245157
X436089Y254606
X462861Y238661
X471719Y243583
X471719Y253425
X491010Y240236
X519948Y253425
X525262Y260512
X533727Y260315
X533136Y267795
X527822Y277047
X521129Y271142
X509711Y280197
X524081Y298307
X533727Y292008
X534121Y282559
X559318Y266220
X559318Y257362
X548491Y256378
X553904Y245059
X568176Y240630
X573097Y239646
X579987Y241614
X580971Y235709
X578018Y229803
X581955Y225866
X579987Y219961
X566207Y217008
X569160Y207165
X554396Y199291
X549475Y200276
X544554Y194961
X552428Y192402
X562270Y184528
X569948Y184528
X576640Y184528
X578609Y173898
X583924Y167795
X577034Y157953
X569160Y157953
X563255Y157953
X551444Y163858
X556365Y170748
X560302Y174685
X569160Y174685
X602625Y167795
X608136Y155000
X603412Y144370
X595538Y138858
X591207Y128228
X592388Y122126
X593176Y112874
X587861Y107953
X578215Y102638
X597113Y102244
X633333Y100669
X633136Y111693
X649869Y121535
X654987Y124291
X662664Y128031
X673491Y119567
X676444Y128425
X683333Y121535
X695144Y127441
X694160Y144173
X703018Y144173
X695144Y156969
X685302Y155000
X666010Y154213
X651837Y158937
X647113Y171929
X632152Y167205
X621129Y166024
X626640Y155394
X640026Y136299
X666404Y174685
X626247Y188465
X603609Y192402
X617388Y211102
X606562Y219961
X604593Y223898
X598688Y225866
X628215Y235709
X629199Y242598
X633136Y254409
X641010Y271142
X641995Y275079
X626247Y285906
X626247Y290827
X617388Y285906
X619357Y279016
X623294Y278228
X620341Y272126
X602625Y275079
X597113Y273898
X595735Y264055
X590026Y261299
X582940Y256378
X577034Y260709
X573491Y262283
X580774Y266220
X584908Y273898
X574672Y274488
X570735Y279409
X570735Y286102
X578609Y284134
X597703Y286890
X584908Y314843
X590026Y326260
X601050Y337283
X628609Y316024
X677034Y320354
X570144Y249488
X535696Y250472
X526837Y217992
X544554Y217008
X520932Y199291
X514042Y196535
X507152Y188661
X513058Y183543
X523885Y175669
X517979Y167795
X529790Y164843
X519948Y159921
X516995Y155984
X513255Y149094
X505184Y137283
X515617Y133346
X503806Y121535
X503412Y110315
X542782Y101063
X551444Y124488
X559318Y138268
X567192Y147480
X536680Y147126
X504199Y172717
X493373Y178622
X487467Y175669
X471719Y185512
X475656Y189449
X480577Y188465
X466798Y181575
X480577Y161890
X493373Y148110
X470735Y138268
X455381Y107756
X537664Y177638
X535696Y186496
X502231Y199882
X502625Y205394
X499475Y207756
X493373Y200276
X495932Y189646
X360892Y214055
X358924Y222717
X323491Y231772
X317979Y242008
X321522Y248701
X317979Y251457
X316404Y258150
X324278Y256181
X330184Y254606
X333727Y253031
X337270Y251850
X345932Y252638
X332940Y260118
X331365Y274291
X344751Y275472
X347507Y284921
X351050Y290039
X358136Y290433
X371916Y288465
X388451Y300276
X388451Y308150
X377428Y310906
X365223Y306969
X358924Y311496
X358333Y318386
X343963Y307756
X337270Y302244
X333333Y299882
X331759Y292795
X324278Y293583
X311286Y301063
X307743Y292598
X300656Y296339
X297507Y291220
X288845Y294370
X279790Y288071
X284121Y275866
X283727Y268780
X273885Y267205
X269948Y271929
X262073Y261299
X269554Y255394
X249475Y247126
X243176Y243976
X230971Y243583
X226247Y234134
X230971Y230591
X261680Y217598
X279790Y217205
X280184Y232559
X293963Y234528
X297507Y242795
X301444Y250276
X298688Y253031
X295144Y251457
X292782Y263268
X298688Y279016
X306562Y281772
X308924Y276654
X314042Y273504
X314436Y308937
X332546Y319173
X336483Y317992
X358136Y333346
X343570Y338071
X329003Y336102
X322703Y348307
X314829Y344370
X284514Y328228
X270341Y325472
X264042Y315236
X247900Y316811
X241207Y312874
X240026Y305000
X245538Y302244
X242782Y295551
X247113Y287677
X240026Y279016
X242782Y275472
X229396Y286102
X212861Y288858
X210892Y294764
X211680Y275472
X206955Y269173
X206955Y263268
X194751Y254213
X190814Y260512
X233727Y258543
X185302Y298701
X185302Y304606
X241207Y329016
X248294Y324685
X259318Y346339
X264042Y350276
X258136Y355394
X245932Y355000
X247900Y364055
X251444Y371142
X259711Y366417
X267192Y359724
X290026Y375079
X295538Y387283
X273885Y385709
X244751Y399488
X254593Y408937
X221522Y438858
X190420Y426260
X191601Y422717
X183333Y429803
X165223Y406969
X140814Y423898
X126640Y424291
X115223Y418386
X110892Y414843
X102231Y408543
X323097Y396732
X330971Y392008
X340026Y384134
X345144Y389252
X353806Y386496
X360105Y389252
X362861Y386496
X372310Y379409
X375066Y372717
X384908Y370354
X382940Y380591
X380184Y387677
X382940Y395551
X389633Y397913
X422703Y380197
X413255Y373504
X403412Y366024
X395932Y372717
X392782Y354606
X406955Y357362
X429396Y366417
X461286Y325866
X510105Y326260
X541995Y342795
X406562Y310512
X375853Y320748
X362861Y367992
X351444Y367992
X330184Y405787
X430577Y436890
X633136Y211102
X271129Y168386
X262861Y185709
X243176Y205000
X240814Y143189
X114042Y119173
T06
X530774Y155984
T07
X473885Y381378
X374672Y334528
X291207Y394764
X285696Y263661
X284514Y242795
X267192Y212480
X340814Y167598
X398294Y155000
X437664Y157362
X453018Y190039
X407349Y241614
X375459Y224291
X503018Y311693
X551837Y312874
X649081Y319961
X593963Y180984
X270341Y110512
X169554Y189646
X119160Y239252
X95538Y343189
X110892Y91220
T08
X153018Y225472
X132152Y238071
X151837Y273504
X175459Y273504
X186483Y282165
X146325Y301063
X219160Y243976
X323491Y278622
X356955Y272323
X485499Y160906
X496818Y152539
X565617Y126654
X568766Y126654
X568766Y123504
X565617Y123504
X565617Y120354
X568766Y120354
X663845Y135709
X663845Y139252
X663845Y142795
X667388Y142795
X667388Y139252
X667388Y135709
X559318Y226850
X559318Y230787
X559318Y234724
X555381Y234724
X555381Y230787
X555381Y226850
X551444Y226850
X551444Y230787
X551444Y234724
X114042Y453031
X97507Y419567
T09
X194751Y360512
X130184Y292795
X126247Y282953
X149869Y269173
X151050Y250669
X201050Y288858
X254987Y250669
X283333Y250669
X398294Y240433
X414829Y230197
X177428Y164843
X394751Y411693
X352625Y424685
X338058Y424685
X663255Y249488
T10
X665026Y103228
X674869Y103228
X430381Y117008
X420538Y117008
X410696Y117008
X400853Y117008
X250459Y114843
X240617Y114843
X160892Y262874
T11
X657349Y368780
X635302Y321142
X652231Y304213
X645932Y297717
X662664Y281969
X680381Y281969
X676444Y261299
X645932Y262283
X595144Y302638
X209318Y148307
X145932Y170748
X128215Y162874
X112467Y162874
X129396Y136890
X116404Y212087
X145932Y212087
X145932Y308543
T12
X160892Y292008
X167192Y284528
X176247Y262087
X235696Y92402
T13
X449475Y451693
X449475Y441693
X449475Y431693
X449475Y421693
X449475Y411693
X449475Y401693
X449475Y391693
X449475Y381693
X449475Y371693
X369554Y391693
X369554Y401693
X369554Y411693
X369554Y421693
X281168Y335315
X271168Y335315
X261168Y335315
X335302Y285118
X340144Y205197
X330144Y205197
X320144Y205197
X221129Y136102
X221129Y126102
X221129Y116102
X104593Y273701
X104593Y283701
X104593Y293701
X104593Y303701
X104593Y313701
X104593Y323701
X203806Y402638
X203806Y412638
X203806Y422638
X203806Y432638
X203806Y442638
X698097Y313858
X698097Y303858
X698097Y293858
X698097Y283858
X698097Y273858
X698097Y263858
T14
X338294Y443346
X338294Y433346
X328294Y433346
X318294Y433346
X308294Y433346
X298294Y433346
X288294Y433346
X278294Y433346
X268294Y433346
X258294Y433346
X248294Y433346
X248294Y443346
X258294Y443346
X268294Y443346
X278294Y443346
X288294Y443346
X298294Y443346
X308294Y443346
X318294Y443346
X328294Y443346
T15
X297507Y148110
X297507Y130000
T16
X184908Y197520
T17
X679113Y214055
X697113Y214055
T18
X446129Y146142
T19
X93963Y93976
X94357Y450669
X703018Y449882
X705381Y93189
T20
X363451Y115236
X363451Y143583
M30
