G75*
%MOIN*%
%OFA0B0*%
%FSLAX25Y25*%
%IPPOS*%
%LPD*%
%AMOC8*
5,1,8,0,0,1.08239X$1,22.5*
%
%ADD10C,0.08200*%
%ADD11R,0.05524X0.03950*%
%ADD12R,0.03950X0.05524*%
%ADD13OC8,0.06824*%
%ADD14C,0.05556*%
%ADD15C,0.07099*%
%ADD16C,0.08800*%
%ADD17C,0.10574*%
%ADD18C,0.21532*%
%ADD19C,0.05550*%
%ADD20C,0.06706*%
%ADD21C,0.04762*%
%ADD22C,0.05156*%
%ADD23C,0.03581*%
%ADD24C,0.11430*%
%ADD25R,0.03581X0.03581*%
%ADD26C,0.04369*%
%ADD27C,0.14800*%
D10*
X0201916Y0116417D03*
X0211916Y0116417D03*
X0221916Y0116417D03*
X0320144Y0205197D03*
X0330144Y0205197D03*
X0340144Y0205197D03*
X0281168Y0335315D03*
X0271168Y0335315D03*
X0261168Y0335315D03*
X0369554Y0391693D03*
X0369554Y0401693D03*
X0369554Y0411693D03*
X0369554Y0421693D03*
X0449475Y0421693D03*
X0449475Y0431693D03*
X0449475Y0441693D03*
X0449475Y0451693D03*
X0449475Y0411693D03*
X0449475Y0401693D03*
X0449475Y0391693D03*
X0449475Y0381693D03*
X0449475Y0371693D03*
X0635381Y0442795D03*
X0645381Y0442795D03*
X0655381Y0442795D03*
X0698097Y0313858D03*
X0698097Y0303858D03*
X0698097Y0293858D03*
X0698097Y0283858D03*
X0698097Y0273858D03*
X0698097Y0263858D03*
X0104593Y0273701D03*
X0104593Y0283701D03*
X0104593Y0293701D03*
X0104593Y0303701D03*
X0104593Y0313701D03*
X0104593Y0323701D03*
D11*
X0301444Y0272717D03*
X0301444Y0265630D03*
X0309318Y0265630D03*
X0309318Y0272717D03*
X0307349Y0300079D03*
X0307349Y0307165D03*
X0319554Y0307756D03*
X0319554Y0314843D03*
X0363058Y0311496D03*
X0363058Y0318583D03*
X0371325Y0314055D03*
X0371325Y0306969D03*
X0363451Y0265827D03*
X0363451Y0258740D03*
X0354593Y0258937D03*
X0354593Y0251850D03*
D12*
X0336483Y0321142D03*
X0329396Y0321142D03*
X0329396Y0329213D03*
X0336483Y0329213D03*
D13*
X0338294Y0433346D03*
X0328294Y0433346D03*
X0318294Y0433346D03*
X0308294Y0433346D03*
X0298294Y0433346D03*
X0288294Y0433346D03*
X0278294Y0433346D03*
X0268294Y0433346D03*
X0258294Y0433346D03*
X0248294Y0433346D03*
X0248294Y0443346D03*
X0258294Y0443346D03*
X0268294Y0443346D03*
X0278294Y0443346D03*
X0288294Y0443346D03*
X0298294Y0443346D03*
X0308294Y0443346D03*
X0318294Y0443346D03*
X0328294Y0443346D03*
X0338294Y0443346D03*
D14*
X0407743Y0121535D03*
X0413648Y0121535D03*
X0419554Y0121535D03*
X0425459Y0121535D03*
D15*
X0249475Y0115236D03*
X0241601Y0115236D03*
X0661680Y0105984D03*
X0669554Y0105984D03*
D16*
X0679113Y0214055D03*
X0697113Y0214055D03*
D17*
X0297507Y0148110D03*
X0297507Y0130000D03*
X0275066Y0130000D03*
X0275066Y0148110D03*
X0275066Y0111890D03*
X0297507Y0111890D03*
D18*
X0363451Y0115236D03*
X0363451Y0143583D03*
D19*
X0209318Y0148307D03*
X0145932Y0170748D03*
X0128215Y0162874D03*
X0112467Y0162874D03*
X0129396Y0136890D03*
X0145932Y0115630D03*
X0145932Y0212087D03*
X0116404Y0212087D03*
X0145932Y0308543D03*
X0635302Y0321142D03*
X0652231Y0304213D03*
X0645932Y0297717D03*
X0662664Y0281969D03*
X0680381Y0281969D03*
X0676444Y0261299D03*
X0645932Y0262283D03*
D20*
X0586089Y0302638D03*
X0235696Y0092402D03*
X0176247Y0262087D03*
X0167192Y0284528D03*
X0160892Y0292008D03*
D21*
X0130184Y0292795D03*
X0126247Y0282953D03*
X0149869Y0269173D03*
X0151050Y0250669D03*
X0201050Y0288858D03*
X0254987Y0250669D03*
X0283333Y0250669D03*
X0177428Y0164843D03*
X0145932Y0137283D03*
D22*
X0160892Y0262874D03*
D23*
X0194751Y0254213D03*
X0206955Y0263268D03*
X0206955Y0269173D03*
X0211680Y0275472D03*
X0229396Y0286102D03*
X0240026Y0279016D03*
X0242782Y0275472D03*
X0233727Y0258543D03*
X0249475Y0247126D03*
X0236483Y0243189D03*
X0226247Y0234134D03*
X0256168Y0215630D03*
X0252231Y0208543D03*
X0279790Y0217205D03*
X0280184Y0232559D03*
X0293963Y0234528D03*
X0297507Y0242795D03*
X0301444Y0249488D03*
X0298294Y0253031D03*
X0295538Y0251063D03*
X0292782Y0263268D03*
X0283727Y0268780D03*
X0285302Y0275472D03*
X0273885Y0267205D03*
X0262073Y0261299D03*
X0300262Y0279016D03*
X0307743Y0282165D03*
X0308333Y0276063D03*
X0313747Y0274587D03*
X0302625Y0269567D03*
X0316404Y0258150D03*
X0317979Y0251457D03*
X0321522Y0248701D03*
X0317979Y0242008D03*
X0324278Y0232559D03*
X0330577Y0253031D03*
X0333727Y0253031D03*
X0336877Y0253031D03*
X0324672Y0257756D03*
X0331759Y0260118D03*
X0345932Y0252638D03*
X0353885Y0262638D03*
X0359711Y0262087D03*
X0370735Y0267598D03*
X0370735Y0277835D03*
X0378215Y0280197D03*
X0381759Y0282559D03*
X0384514Y0285709D03*
X0377428Y0288465D03*
X0388451Y0300276D03*
X0388451Y0308150D03*
X0377428Y0310906D03*
X0365223Y0306969D03*
X0358924Y0311496D03*
X0358924Y0317992D03*
X0343963Y0316417D03*
X0340026Y0318780D03*
X0335696Y0317992D03*
X0332546Y0319173D03*
X0336207Y0308150D03*
X0340026Y0308150D03*
X0343963Y0307756D03*
X0337270Y0302638D03*
X0333333Y0299882D03*
X0331759Y0292795D03*
X0324278Y0293583D03*
X0324672Y0285315D03*
X0325066Y0279409D03*
X0331759Y0281772D03*
X0334121Y0277047D03*
X0331365Y0274291D03*
X0344751Y0275472D03*
X0347900Y0281378D03*
X0357743Y0287677D03*
X0398294Y0290039D03*
X0411286Y0285709D03*
X0412467Y0282559D03*
X0426247Y0292008D03*
X0407743Y0310118D03*
X0410499Y0321142D03*
X0420735Y0326654D03*
X0419160Y0334921D03*
X0422703Y0335709D03*
X0422310Y0340039D03*
X0413648Y0343189D03*
X0406562Y0340039D03*
X0406955Y0336890D03*
X0395932Y0332559D03*
X0375853Y0320748D03*
X0358136Y0333346D03*
X0343963Y0338071D03*
X0329790Y0336102D03*
X0312073Y0308543D03*
X0312073Y0305000D03*
X0312861Y0300276D03*
X0307743Y0292402D03*
X0300656Y0296339D03*
X0297900Y0291614D03*
X0245538Y0302244D03*
X0240026Y0305000D03*
X0241207Y0312874D03*
X0247900Y0316811D03*
X0248294Y0324685D03*
X0241207Y0329016D03*
X0259318Y0346339D03*
X0264042Y0350276D03*
X0258136Y0355394D03*
X0245932Y0355000D03*
X0247900Y0364055D03*
X0251444Y0371142D03*
X0259711Y0366417D03*
X0267192Y0359724D03*
X0290026Y0375079D03*
X0295538Y0387283D03*
X0273885Y0385709D03*
X0254593Y0408937D03*
X0221522Y0438858D03*
X0323097Y0396339D03*
X0330971Y0392008D03*
X0340026Y0384134D03*
X0346325Y0387677D03*
X0354987Y0386102D03*
X0361680Y0386102D03*
X0361680Y0389252D03*
X0372310Y0379409D03*
X0375066Y0372717D03*
X0384908Y0370354D03*
X0382940Y0380591D03*
X0380184Y0387677D03*
X0382940Y0395551D03*
X0389633Y0397913D03*
X0361286Y0416811D03*
X0330184Y0405787D03*
X0358136Y0368780D03*
X0392782Y0354606D03*
X0403412Y0366024D03*
X0395932Y0372717D03*
X0413255Y0373504D03*
X0422703Y0380197D03*
X0434121Y0370748D03*
X0438058Y0353031D03*
X0431168Y0345354D03*
X0434514Y0338465D03*
X0434514Y0333346D03*
X0446719Y0330984D03*
X0458136Y0342402D03*
X0480184Y0355787D03*
X0490420Y0341614D03*
X0499081Y0346732D03*
X0511286Y0343583D03*
X0521522Y0346732D03*
X0511286Y0351457D03*
X0541995Y0342795D03*
X0584908Y0314843D03*
X0597703Y0286890D03*
X0602625Y0275079D03*
X0597113Y0273898D03*
X0595735Y0264055D03*
X0590026Y0261299D03*
X0582940Y0256378D03*
X0577034Y0260709D03*
X0573491Y0262283D03*
X0580774Y0266220D03*
X0584908Y0273898D03*
X0574672Y0274488D03*
X0570735Y0279409D03*
X0570735Y0286102D03*
X0578609Y0284134D03*
X0559318Y0266220D03*
X0559318Y0257362D03*
X0565223Y0253425D03*
X0570144Y0249488D03*
X0568176Y0240630D03*
X0573097Y0239646D03*
X0579987Y0241614D03*
X0580971Y0235709D03*
X0578018Y0229803D03*
X0581955Y0225866D03*
X0579987Y0219961D03*
X0566207Y0217008D03*
X0569160Y0207165D03*
X0554396Y0199291D03*
X0549475Y0200276D03*
X0544554Y0194961D03*
X0552428Y0192402D03*
X0563255Y0193386D03*
X0562270Y0184528D03*
X0569948Y0184528D03*
X0576640Y0184528D03*
X0569160Y0174685D03*
X0560302Y0174685D03*
X0556365Y0170748D03*
X0551444Y0163858D03*
X0563255Y0157953D03*
X0569160Y0157953D03*
X0577034Y0157953D03*
X0583924Y0167795D03*
X0602625Y0167795D03*
X0616404Y0160906D03*
X0620341Y0153031D03*
X0620341Y0145157D03*
X0631168Y0158937D03*
X0651837Y0158937D03*
X0658727Y0163858D03*
X0663451Y0171732D03*
X0671522Y0174685D03*
X0657743Y0181575D03*
X0626247Y0188465D03*
X0603609Y0192402D03*
X0617388Y0211102D03*
X0606562Y0219961D03*
X0604593Y0223898D03*
X0598688Y0225866D03*
X0628215Y0235709D03*
X0629199Y0242598D03*
X0633136Y0254409D03*
X0641010Y0271142D03*
X0641995Y0275079D03*
X0626247Y0285906D03*
X0626247Y0290827D03*
X0617388Y0285906D03*
X0619357Y0279016D03*
X0623294Y0278228D03*
X0620341Y0272126D03*
X0553904Y0245059D03*
X0548491Y0256378D03*
X0535696Y0250472D03*
X0533727Y0260315D03*
X0533136Y0267795D03*
X0525262Y0260512D03*
X0519948Y0253425D03*
X0516010Y0253425D03*
X0512861Y0245748D03*
X0507152Y0240236D03*
X0508136Y0234724D03*
X0515026Y0233346D03*
X0517979Y0236496D03*
X0523885Y0237677D03*
X0530381Y0229803D03*
X0522900Y0228819D03*
X0526837Y0217992D03*
X0523885Y0214055D03*
X0526837Y0211496D03*
X0526837Y0207362D03*
X0520932Y0211496D03*
X0513058Y0208150D03*
X0502625Y0205394D03*
X0499475Y0207756D03*
X0502231Y0199882D03*
X0493373Y0200276D03*
X0495932Y0189646D03*
X0507152Y0188661D03*
X0513058Y0183543D03*
X0520932Y0191417D03*
X0520932Y0199291D03*
X0514042Y0196535D03*
X0535696Y0186496D03*
X0537664Y0177638D03*
X0523885Y0175669D03*
X0517979Y0167795D03*
X0529790Y0164843D03*
X0519948Y0159921D03*
X0516995Y0155984D03*
X0530774Y0155984D03*
X0536680Y0147126D03*
X0559318Y0138268D03*
X0567192Y0147480D03*
X0551444Y0124488D03*
X0543963Y0112087D03*
X0514042Y0132165D03*
X0505184Y0137283D03*
X0490420Y0133346D03*
X0503412Y0121535D03*
X0506562Y0108937D03*
X0470735Y0138268D03*
X0464829Y0143189D03*
X0464829Y0133346D03*
X0493373Y0148110D03*
X0480577Y0161890D03*
X0487467Y0175669D03*
X0493373Y0178622D03*
X0504199Y0172717D03*
X0480577Y0188465D03*
X0475656Y0189449D03*
X0471719Y0185512D03*
X0466798Y0181575D03*
X0469751Y0205197D03*
X0461877Y0208150D03*
X0451050Y0212087D03*
X0448097Y0207165D03*
X0449081Y0220945D03*
X0462861Y0238661D03*
X0471719Y0243583D03*
X0471719Y0253425D03*
X0480577Y0249488D03*
X0491404Y0240630D03*
X0507152Y0252441D03*
X0503806Y0260315D03*
X0497507Y0266417D03*
X0494751Y0269567D03*
X0491207Y0264843D03*
X0487467Y0270157D03*
X0491404Y0276063D03*
X0497113Y0275472D03*
X0509711Y0280197D03*
X0520932Y0272126D03*
X0527822Y0277047D03*
X0533727Y0292008D03*
X0524081Y0298307D03*
X0495932Y0299488D03*
X0494751Y0291811D03*
X0493373Y0283937D03*
X0480184Y0296732D03*
X0455381Y0286102D03*
X0441995Y0273110D03*
X0436877Y0268780D03*
X0427034Y0263268D03*
X0435696Y0254606D03*
X0427034Y0243189D03*
X0449081Y0240827D03*
X0453806Y0254213D03*
X0475459Y0270354D03*
X0534711Y0236693D03*
X0534711Y0224882D03*
X0535696Y0219961D03*
X0544554Y0217008D03*
X0533727Y0210118D03*
X0513058Y0218976D03*
X0507349Y0222913D03*
X0502231Y0217992D03*
X0495341Y0222913D03*
X0493373Y0225669D03*
X0488451Y0216024D03*
X0483530Y0206181D03*
X0419948Y0217205D03*
X0410499Y0212874D03*
X0397507Y0225866D03*
X0382940Y0234134D03*
X0387270Y0245945D03*
X0399081Y0260906D03*
X0359711Y0221929D03*
X0360892Y0214055D03*
X0262861Y0185709D03*
X0240814Y0143189D03*
X0212861Y0288858D03*
X0210892Y0294764D03*
X0185302Y0298701D03*
X0185302Y0304606D03*
X0242782Y0295551D03*
X0270341Y0325472D03*
X0284514Y0328228D03*
X0449081Y0315236D03*
X0484514Y0317205D03*
X0628609Y0316024D03*
X0677034Y0320354D03*
X0622310Y0415630D03*
X0633136Y0211102D03*
X0685302Y0155000D03*
X0695144Y0156969D03*
X0694160Y0144173D03*
X0703018Y0144173D03*
X0696129Y0134331D03*
X0695144Y0127441D03*
X0683333Y0121535D03*
X0676444Y0128425D03*
X0668570Y0127441D03*
X0662664Y0127441D03*
X0654790Y0123504D03*
X0649869Y0121535D03*
X0651837Y0131378D03*
X0640026Y0136299D03*
X0673491Y0119567D03*
X0633136Y0111693D03*
X0595932Y0112677D03*
X0587861Y0107756D03*
X0595735Y0100866D03*
X0579003Y0099882D03*
X0592388Y0122126D03*
X0592782Y0126457D03*
X0595735Y0134331D03*
X0601640Y0142205D03*
D24*
X0184908Y0197520D03*
D25*
X0406955Y0357362D03*
D26*
X0114436Y0114843D03*
X0153018Y0225472D03*
X0132152Y0238071D03*
X0151837Y0273504D03*
X0175459Y0273504D03*
X0186483Y0282165D03*
X0146325Y0301063D03*
X0219160Y0243976D03*
X0147113Y0410118D03*
X0154593Y0415236D03*
X0160892Y0419961D03*
X0166404Y0424685D03*
X0222703Y0423504D03*
X0485499Y0160906D03*
X0496818Y0152539D03*
D27*
X0446129Y0146142D03*
M02*
