G75*
%MOIN*%
%OFA0B0*%
%FSLAX25Y25*%
%IPPOS*%
%LPD*%
%AMOC8*
5,1,8,0,0,1.08239X$1,22.5*
%
%ADD10C,0.12611*%
%ADD11C,0.08200*%
%ADD12R,0.05524X0.03950*%
%ADD13R,0.03950X0.05524*%
%ADD14OC8,0.07216*%
%ADD15R,0.05169X0.05169*%
%ADD16C,0.07099*%
%ADD17C,0.08800*%
%ADD18C,0.10574*%
%ADD19C,0.21532*%
%ADD20C,0.06737*%
%ADD21C,0.05950*%
%ADD22C,0.05162*%
%ADD23C,0.14800*%
%ADD24C,0.05556*%
%ADD25C,0.11430*%
D10*
X0093963Y0093976D03*
X0094357Y0450669D03*
X0703018Y0449882D03*
X0705381Y0093189D03*
D11*
X0698097Y0263858D03*
X0698097Y0273858D03*
X0698097Y0283858D03*
X0698097Y0293858D03*
X0698097Y0303858D03*
X0698097Y0313858D03*
X0449475Y0371693D03*
X0449475Y0381693D03*
X0449475Y0391693D03*
X0449475Y0401693D03*
X0449475Y0411693D03*
X0449475Y0421693D03*
X0449475Y0431693D03*
X0449475Y0441693D03*
X0449475Y0451693D03*
X0369554Y0421693D03*
X0369554Y0411693D03*
X0369554Y0401693D03*
X0369554Y0391693D03*
X0281168Y0335315D03*
X0271168Y0335315D03*
X0261168Y0335315D03*
X0335302Y0285118D03*
X0340144Y0205197D03*
X0330144Y0205197D03*
X0320144Y0205197D03*
X0221129Y0136102D03*
X0221129Y0126102D03*
X0221129Y0116102D03*
X0104593Y0273701D03*
X0104593Y0283701D03*
X0104593Y0293701D03*
X0104593Y0303701D03*
X0104593Y0313701D03*
X0104593Y0323701D03*
X0203806Y0402638D03*
X0203806Y0412638D03*
X0203806Y0422638D03*
X0203806Y0432638D03*
X0203806Y0442638D03*
D12*
X0363058Y0318583D03*
X0363058Y0311496D03*
X0371325Y0314055D03*
X0371325Y0306969D03*
X0319554Y0307756D03*
X0319554Y0314843D03*
X0307349Y0307165D03*
X0307349Y0300079D03*
X0309318Y0272717D03*
X0309318Y0265630D03*
X0301444Y0265630D03*
X0301444Y0272717D03*
X0354593Y0258937D03*
X0363451Y0258740D03*
X0363451Y0265827D03*
X0354593Y0251850D03*
D13*
X0336483Y0321142D03*
X0329396Y0321142D03*
X0329396Y0329213D03*
X0336483Y0329213D03*
D14*
X0338294Y0433346D03*
X0328294Y0433346D03*
X0318294Y0433346D03*
X0308294Y0433346D03*
X0298294Y0433346D03*
X0288294Y0433346D03*
X0278294Y0433346D03*
X0268294Y0433346D03*
X0258294Y0433346D03*
X0248294Y0433346D03*
X0248294Y0443346D03*
X0258294Y0443346D03*
X0268294Y0443346D03*
X0278294Y0443346D03*
X0288294Y0443346D03*
X0298294Y0443346D03*
X0308294Y0443346D03*
X0318294Y0443346D03*
X0328294Y0443346D03*
X0338294Y0443346D03*
D15*
X0551444Y0234724D03*
X0555381Y0234724D03*
X0559318Y0234724D03*
X0559318Y0230787D03*
X0559318Y0226850D03*
X0555381Y0226850D03*
X0555381Y0230787D03*
X0551444Y0230787D03*
X0551444Y0226850D03*
X0663845Y0142795D03*
X0663845Y0139252D03*
X0663845Y0135709D03*
X0667388Y0135709D03*
X0667388Y0139252D03*
X0667388Y0142795D03*
X0568766Y0126654D03*
X0565617Y0126654D03*
X0565617Y0123504D03*
X0568766Y0123504D03*
X0568766Y0120354D03*
X0565617Y0120354D03*
D16*
X0665026Y0103228D03*
X0674869Y0103228D03*
X0430381Y0117008D03*
X0420538Y0117008D03*
X0410696Y0117008D03*
X0400853Y0117008D03*
X0250459Y0114843D03*
X0240617Y0114843D03*
D17*
X0679113Y0214055D03*
X0697113Y0214055D03*
D18*
X0297507Y0148110D03*
X0297507Y0130000D03*
D19*
X0363451Y0143583D03*
X0363451Y0115236D03*
D20*
X0235696Y0092402D03*
X0176247Y0262087D03*
X0167192Y0284528D03*
X0160892Y0292008D03*
D21*
X0145932Y0308543D03*
X0145932Y0212087D03*
X0116404Y0212087D03*
X0145932Y0170748D03*
X0128215Y0162874D03*
X0112467Y0162874D03*
X0129396Y0136890D03*
X0209318Y0148307D03*
X0595144Y0302638D03*
X0635302Y0321142D03*
X0652231Y0304213D03*
X0645932Y0297717D03*
X0662664Y0281969D03*
X0680381Y0281969D03*
X0676444Y0261299D03*
X0645932Y0262283D03*
X0657349Y0368780D03*
D22*
X0663255Y0249488D03*
X0414829Y0230197D03*
X0398294Y0240433D03*
X0283333Y0250669D03*
X0254987Y0250669D03*
X0201050Y0288858D03*
X0149869Y0269173D03*
X0126247Y0282953D03*
X0130184Y0292795D03*
X0151050Y0250669D03*
X0177428Y0164843D03*
X0194751Y0360512D03*
X0338058Y0424685D03*
X0352625Y0424685D03*
X0394751Y0411693D03*
D23*
X0446129Y0146142D03*
D24*
X0160892Y0262874D03*
D25*
X0184908Y0197520D03*
M02*
