G75*
%MOIN*%
%OFA0B0*%
%FSLAX25Y25*%
%IPPOS*%
%LPD*%
%AMOC8*
5,1,8,0,0,1.08239X$1,22.5*
%
%ADD10C,0.00000*%
%ADD11R,0.02500X0.00100*%
%ADD12R,0.05700X0.00100*%
%ADD13R,0.07700X0.00100*%
%ADD14R,0.09100X0.00100*%
%ADD15R,0.10200X0.00100*%
%ADD16R,0.11200X0.00100*%
%ADD17R,0.11700X0.00100*%
%ADD18R,0.12100X0.00100*%
%ADD19R,0.12400X0.00100*%
%ADD20R,0.12700X0.00100*%
%ADD21R,0.13000X0.00100*%
%ADD22R,0.13200X0.00100*%
%ADD23R,0.13500X0.00100*%
%ADD24R,0.13800X0.00100*%
%ADD25R,0.14100X0.00100*%
%ADD26R,0.14300X0.00100*%
%ADD27R,0.14500X0.00100*%
%ADD28R,0.14600X0.00100*%
%ADD29R,0.14900X0.00100*%
%ADD30R,0.15100X0.00100*%
%ADD31R,0.00100X0.00100*%
%ADD32R,0.15300X0.00100*%
%ADD33R,0.00500X0.00100*%
%ADD34R,0.15500X0.00100*%
%ADD35R,0.00900X0.00100*%
%ADD36R,0.15600X0.00100*%
%ADD37R,0.01200X0.00100*%
%ADD38R,0.15900X0.00100*%
%ADD39R,0.01500X0.00100*%
%ADD40R,0.16000X0.00100*%
%ADD41R,0.01900X0.00100*%
%ADD42R,0.16200X0.00100*%
%ADD43R,0.02200X0.00100*%
%ADD44R,0.16300X0.00100*%
%ADD45R,0.16500X0.00100*%
%ADD46R,0.02800X0.00100*%
%ADD47R,0.16700X0.00100*%
%ADD48R,0.03100X0.00100*%
%ADD49R,0.16900X0.00100*%
%ADD50R,0.03400X0.00100*%
%ADD51R,0.17100X0.00100*%
%ADD52R,0.03500X0.00100*%
%ADD53R,0.17200X0.00100*%
%ADD54R,0.03800X0.00100*%
%ADD55R,0.17300X0.00100*%
%ADD56R,0.04100X0.00100*%
%ADD57R,0.17400X0.00100*%
%ADD58R,0.04300X0.00100*%
%ADD59R,0.17600X0.00100*%
%ADD60R,0.04600X0.00100*%
%ADD61R,0.17800X0.00100*%
%ADD62R,0.04800X0.00100*%
%ADD63R,0.18000X0.00100*%
%ADD64R,0.05100X0.00100*%
%ADD65R,0.18100X0.00100*%
%ADD66R,0.05200X0.00100*%
%ADD67R,0.18200X0.00100*%
%ADD68R,0.05500X0.00100*%
%ADD69R,0.18400X0.00100*%
%ADD70R,0.18500X0.00100*%
%ADD71R,0.06000X0.00100*%
%ADD72R,0.18600X0.00100*%
%ADD73R,0.06100X0.00100*%
%ADD74R,0.18800X0.00100*%
%ADD75R,0.06300X0.00100*%
%ADD76R,0.19000X0.00100*%
%ADD77R,0.06600X0.00100*%
%ADD78R,0.19100X0.00100*%
%ADD79R,0.06700X0.00100*%
%ADD80R,0.19300X0.00100*%
%ADD81R,0.07000X0.00100*%
%ADD82R,0.07100X0.00100*%
%ADD83R,0.19500X0.00100*%
%ADD84R,0.07300X0.00100*%
%ADD85R,0.19600X0.00100*%
%ADD86R,0.07500X0.00100*%
%ADD87R,0.19700X0.00100*%
%ADD88R,0.19900X0.00100*%
%ADD89R,0.07800X0.00100*%
%ADD90R,0.20000X0.00100*%
%ADD91R,0.08000X0.00100*%
%ADD92R,0.20100X0.00100*%
%ADD93R,0.08100X0.00100*%
%ADD94R,0.20200X0.00100*%
%ADD95R,0.08400X0.00100*%
%ADD96R,0.20400X0.00100*%
%ADD97R,0.08500X0.00100*%
%ADD98R,0.20500X0.00100*%
%ADD99R,0.08700X0.00100*%
%ADD100R,0.20600X0.00100*%
%ADD101R,0.08800X0.00100*%
%ADD102R,0.20800X0.00100*%
%ADD103R,0.08900X0.00100*%
%ADD104R,0.20900X0.00100*%
%ADD105R,0.21000X0.00100*%
%ADD106R,0.09200X0.00100*%
%ADD107R,0.21200X0.00100*%
%ADD108R,0.09300X0.00100*%
%ADD109R,0.21300X0.00100*%
%ADD110R,0.09500X0.00100*%
%ADD111R,0.21400X0.00100*%
%ADD112R,0.09400X0.00100*%
%ADD113R,0.21600X0.00100*%
%ADD114R,0.21700X0.00100*%
%ADD115R,0.21800X0.00100*%
%ADD116R,0.21900X0.00100*%
%ADD117R,0.09000X0.00100*%
%ADD118R,0.22000X0.00100*%
%ADD119R,0.22100X0.00100*%
%ADD120R,0.22300X0.00100*%
%ADD121R,0.22400X0.00100*%
%ADD122R,0.08600X0.00100*%
%ADD123R,0.22500X0.00100*%
%ADD124R,0.22600X0.00100*%
%ADD125R,0.22700X0.00100*%
%ADD126R,0.22800X0.00100*%
%ADD127R,0.08300X0.00100*%
%ADD128R,0.22900X0.00100*%
%ADD129R,0.08200X0.00100*%
%ADD130R,0.23100X0.00100*%
%ADD131R,0.23200X0.00100*%
%ADD132R,0.23400X0.00100*%
%ADD133R,0.23500X0.00100*%
%ADD134R,0.07900X0.00100*%
%ADD135R,0.23600X0.00100*%
%ADD136R,0.23700X0.00100*%
%ADD137R,0.23800X0.00100*%
%ADD138R,0.23900X0.00100*%
%ADD139R,0.07600X0.00100*%
%ADD140R,0.24000X0.00100*%
%ADD141R,0.24100X0.00100*%
%ADD142R,0.24200X0.00100*%
%ADD143R,0.24400X0.00100*%
%ADD144R,0.24500X0.00100*%
%ADD145R,0.00600X0.00100*%
%ADD146R,0.01100X0.00100*%
%ADD147R,0.24600X0.00100*%
%ADD148R,0.24700X0.00100*%
%ADD149R,0.02000X0.00100*%
%ADD150R,0.24800X0.00100*%
%ADD151R,0.02300X0.00100*%
%ADD152R,0.24900X0.00100*%
%ADD153R,0.25000X0.00100*%
%ADD154R,0.25200X0.00100*%
%ADD155R,0.25300X0.00100*%
%ADD156R,0.25400X0.00100*%
%ADD157R,0.13100X0.00100*%
%ADD158R,0.25500X0.00100*%
%ADD159R,0.25700X0.00100*%
%ADD160R,0.13300X0.00100*%
%ADD161R,0.25800X0.00100*%
%ADD162R,0.13400X0.00100*%
%ADD163R,0.25900X0.00100*%
%ADD164R,0.26000X0.00100*%
%ADD165R,0.26100X0.00100*%
%ADD166R,0.13600X0.00100*%
%ADD167R,0.26300X0.00100*%
%ADD168R,0.26400X0.00100*%
%ADD169R,0.13700X0.00100*%
%ADD170R,0.26500X0.00100*%
%ADD171R,0.26600X0.00100*%
%ADD172R,0.26700X0.00100*%
%ADD173R,0.26800X0.00100*%
%ADD174R,0.13900X0.00100*%
%ADD175R,0.26900X0.00100*%
%ADD176R,0.27000X0.00100*%
%ADD177R,0.14000X0.00100*%
%ADD178R,0.27200X0.00100*%
%ADD179R,0.27300X0.00100*%
%ADD180R,0.14200X0.00100*%
%ADD181R,0.27500X0.00100*%
%ADD182R,0.27600X0.00100*%
%ADD183R,0.27700X0.00100*%
%ADD184R,0.27900X0.00100*%
%ADD185R,0.28000X0.00100*%
%ADD186R,0.14400X0.00100*%
%ADD187R,0.28100X0.00100*%
%ADD188R,0.28300X0.00100*%
%ADD189R,0.28400X0.00100*%
%ADD190R,0.10000X0.00100*%
%ADD191R,0.16400X0.00100*%
%ADD192R,0.15800X0.00100*%
%ADD193R,0.15400X0.00100*%
%ADD194R,0.14700X0.00100*%
%ADD195R,0.15000X0.00100*%
%ADD196R,0.14800X0.00100*%
%ADD197R,0.07400X0.00100*%
%ADD198R,0.07200X0.00100*%
%ADD199R,0.06900X0.00100*%
%ADD200R,0.06800X0.00100*%
%ADD201R,0.06500X0.00100*%
%ADD202R,0.06400X0.00100*%
%ADD203R,0.12800X0.00100*%
%ADD204R,0.05900X0.00100*%
%ADD205R,0.12600X0.00100*%
%ADD206R,0.05800X0.00100*%
%ADD207R,0.05600X0.00100*%
%ADD208R,0.12300X0.00100*%
%ADD209R,0.12200X0.00100*%
%ADD210R,0.05400X0.00100*%
%ADD211R,0.12000X0.00100*%
%ADD212R,0.05300X0.00100*%
%ADD213R,0.11900X0.00100*%
%ADD214R,0.11800X0.00100*%
%ADD215R,0.04900X0.00100*%
%ADD216R,0.11500X0.00100*%
%ADD217R,0.11400X0.00100*%
%ADD218R,0.04700X0.00100*%
%ADD219R,0.11300X0.00100*%
%ADD220R,0.04500X0.00100*%
%ADD221R,0.04400X0.00100*%
%ADD222R,0.11000X0.00100*%
%ADD223R,0.10900X0.00100*%
%ADD224R,0.04200X0.00100*%
%ADD225R,0.10800X0.00100*%
%ADD226R,0.10700X0.00100*%
%ADD227R,0.04000X0.00100*%
%ADD228R,0.03900X0.00100*%
%ADD229R,0.12900X0.00100*%
%ADD230R,0.01600X0.00100*%
%ADD231R,0.10600X0.00100*%
%ADD232R,0.10500X0.00100*%
%ADD233R,0.01400X0.00100*%
%ADD234R,0.03700X0.00100*%
%ADD235R,0.01300X0.00100*%
%ADD236R,0.10400X0.00100*%
%ADD237R,0.05000X0.00100*%
%ADD238R,0.03600X0.00100*%
%ADD239R,0.10300X0.00100*%
%ADD240R,0.06200X0.00100*%
%ADD241R,0.01000X0.00100*%
%ADD242R,0.00800X0.00100*%
%ADD243R,0.03300X0.00100*%
%ADD244R,0.00700X0.00100*%
%ADD245R,0.03200X0.00100*%
%ADD246R,0.09600X0.00100*%
%ADD247R,0.09800X0.00100*%
%ADD248R,0.09900X0.00100*%
%ADD249R,0.02900X0.00100*%
%ADD250R,0.10100X0.00100*%
%ADD251R,0.02700X0.00100*%
%ADD252R,0.00400X0.00100*%
%ADD253R,0.03000X0.00100*%
%ADD254R,0.00300X0.00100*%
%ADD255R,0.02400X0.00100*%
%ADD256R,0.00200X0.00100*%
%ADD257R,0.02100X0.00100*%
%ADD258R,0.01800X0.00100*%
%ADD259R,0.01700X0.00100*%
%ADD260R,0.11100X0.00100*%
%ADD261R,0.02600X0.00100*%
%ADD262R,0.11600X0.00100*%
%ADD263R,0.09700X0.00100*%
%ADD264R,0.19800X0.00100*%
%ADD265R,0.15200X0.00100*%
%ADD266R,0.15700X0.00100*%
%ADD267R,0.16100X0.00100*%
%ADD268R,0.16600X0.00100*%
%ADD269R,0.17500X0.00100*%
%ADD270R,0.17700X0.00100*%
%ADD271R,0.17900X0.00100*%
%ADD272R,0.20300X0.00100*%
%ADD273R,0.18700X0.00100*%
%ADD274R,0.28200X0.00100*%
%ADD275R,0.23300X0.00100*%
%ADD276R,0.21100X0.00100*%
%ADD277R,0.19200X0.00100*%
%ADD278R,0.18300X0.00100*%
%ADD279R,0.17000X0.00100*%
%ADD280R,0.16800X0.00100*%
%ADD281R,0.26200X0.00100*%
%ADD282R,0.25600X0.00100*%
%ADD283R,0.27100X0.00100*%
%ADD284R,0.27400X0.00100*%
%ADD285R,0.28600X0.00100*%
%ADD286R,0.28800X0.00100*%
%ADD287R,0.29000X0.00100*%
%ADD288R,0.29200X0.00100*%
%ADD289R,0.29400X0.00100*%
%ADD290R,0.29600X0.00100*%
%ADD291R,0.29800X0.00100*%
%ADD292R,0.30000X0.00100*%
%ADD293R,0.30200X0.00100*%
%ADD294R,0.24300X0.00100*%
%ADD295R,0.12500X0.00100*%
%ADD296C,0.00600*%
%ADD297C,0.00100*%
D10*
X0083333Y0083740D02*
X0083333Y0459331D01*
X0565617Y0459331D01*
X0565617Y0083740D01*
X0083333Y0083740D01*
X0088057Y0093976D02*
X0088059Y0094129D01*
X0088065Y0094283D01*
X0088075Y0094436D01*
X0088089Y0094588D01*
X0088107Y0094741D01*
X0088129Y0094892D01*
X0088154Y0095043D01*
X0088184Y0095194D01*
X0088218Y0095344D01*
X0088255Y0095492D01*
X0088296Y0095640D01*
X0088341Y0095786D01*
X0088390Y0095932D01*
X0088443Y0096076D01*
X0088499Y0096218D01*
X0088559Y0096359D01*
X0088623Y0096499D01*
X0088690Y0096637D01*
X0088761Y0096773D01*
X0088836Y0096907D01*
X0088913Y0097039D01*
X0088995Y0097169D01*
X0089079Y0097297D01*
X0089167Y0097423D01*
X0089258Y0097546D01*
X0089352Y0097667D01*
X0089450Y0097785D01*
X0089550Y0097901D01*
X0089654Y0098014D01*
X0089760Y0098125D01*
X0089869Y0098233D01*
X0089981Y0098338D01*
X0090095Y0098439D01*
X0090213Y0098538D01*
X0090332Y0098634D01*
X0090454Y0098727D01*
X0090579Y0098816D01*
X0090706Y0098903D01*
X0090835Y0098985D01*
X0090966Y0099065D01*
X0091099Y0099141D01*
X0091234Y0099214D01*
X0091371Y0099283D01*
X0091510Y0099348D01*
X0091650Y0099410D01*
X0091792Y0099468D01*
X0091935Y0099523D01*
X0092080Y0099574D01*
X0092226Y0099621D01*
X0092373Y0099664D01*
X0092521Y0099703D01*
X0092670Y0099739D01*
X0092820Y0099770D01*
X0092971Y0099798D01*
X0093122Y0099822D01*
X0093275Y0099842D01*
X0093427Y0099858D01*
X0093580Y0099870D01*
X0093733Y0099878D01*
X0093886Y0099882D01*
X0094040Y0099882D01*
X0094193Y0099878D01*
X0094346Y0099870D01*
X0094499Y0099858D01*
X0094651Y0099842D01*
X0094804Y0099822D01*
X0094955Y0099798D01*
X0095106Y0099770D01*
X0095256Y0099739D01*
X0095405Y0099703D01*
X0095553Y0099664D01*
X0095700Y0099621D01*
X0095846Y0099574D01*
X0095991Y0099523D01*
X0096134Y0099468D01*
X0096276Y0099410D01*
X0096416Y0099348D01*
X0096555Y0099283D01*
X0096692Y0099214D01*
X0096827Y0099141D01*
X0096960Y0099065D01*
X0097091Y0098985D01*
X0097220Y0098903D01*
X0097347Y0098816D01*
X0097472Y0098727D01*
X0097594Y0098634D01*
X0097713Y0098538D01*
X0097831Y0098439D01*
X0097945Y0098338D01*
X0098057Y0098233D01*
X0098166Y0098125D01*
X0098272Y0098014D01*
X0098376Y0097901D01*
X0098476Y0097785D01*
X0098574Y0097667D01*
X0098668Y0097546D01*
X0098759Y0097423D01*
X0098847Y0097297D01*
X0098931Y0097169D01*
X0099013Y0097039D01*
X0099090Y0096907D01*
X0099165Y0096773D01*
X0099236Y0096637D01*
X0099303Y0096499D01*
X0099367Y0096359D01*
X0099427Y0096218D01*
X0099483Y0096076D01*
X0099536Y0095932D01*
X0099585Y0095786D01*
X0099630Y0095640D01*
X0099671Y0095492D01*
X0099708Y0095344D01*
X0099742Y0095194D01*
X0099772Y0095043D01*
X0099797Y0094892D01*
X0099819Y0094741D01*
X0099837Y0094588D01*
X0099851Y0094436D01*
X0099861Y0094283D01*
X0099867Y0094129D01*
X0099869Y0093976D01*
X0099867Y0093823D01*
X0099861Y0093669D01*
X0099851Y0093516D01*
X0099837Y0093364D01*
X0099819Y0093211D01*
X0099797Y0093060D01*
X0099772Y0092909D01*
X0099742Y0092758D01*
X0099708Y0092608D01*
X0099671Y0092460D01*
X0099630Y0092312D01*
X0099585Y0092166D01*
X0099536Y0092020D01*
X0099483Y0091876D01*
X0099427Y0091734D01*
X0099367Y0091593D01*
X0099303Y0091453D01*
X0099236Y0091315D01*
X0099165Y0091179D01*
X0099090Y0091045D01*
X0099013Y0090913D01*
X0098931Y0090783D01*
X0098847Y0090655D01*
X0098759Y0090529D01*
X0098668Y0090406D01*
X0098574Y0090285D01*
X0098476Y0090167D01*
X0098376Y0090051D01*
X0098272Y0089938D01*
X0098166Y0089827D01*
X0098057Y0089719D01*
X0097945Y0089614D01*
X0097831Y0089513D01*
X0097713Y0089414D01*
X0097594Y0089318D01*
X0097472Y0089225D01*
X0097347Y0089136D01*
X0097220Y0089049D01*
X0097091Y0088967D01*
X0096960Y0088887D01*
X0096827Y0088811D01*
X0096692Y0088738D01*
X0096555Y0088669D01*
X0096416Y0088604D01*
X0096276Y0088542D01*
X0096134Y0088484D01*
X0095991Y0088429D01*
X0095846Y0088378D01*
X0095700Y0088331D01*
X0095553Y0088288D01*
X0095405Y0088249D01*
X0095256Y0088213D01*
X0095106Y0088182D01*
X0094955Y0088154D01*
X0094804Y0088130D01*
X0094651Y0088110D01*
X0094499Y0088094D01*
X0094346Y0088082D01*
X0094193Y0088074D01*
X0094040Y0088070D01*
X0093886Y0088070D01*
X0093733Y0088074D01*
X0093580Y0088082D01*
X0093427Y0088094D01*
X0093275Y0088110D01*
X0093122Y0088130D01*
X0092971Y0088154D01*
X0092820Y0088182D01*
X0092670Y0088213D01*
X0092521Y0088249D01*
X0092373Y0088288D01*
X0092226Y0088331D01*
X0092080Y0088378D01*
X0091935Y0088429D01*
X0091792Y0088484D01*
X0091650Y0088542D01*
X0091510Y0088604D01*
X0091371Y0088669D01*
X0091234Y0088738D01*
X0091099Y0088811D01*
X0090966Y0088887D01*
X0090835Y0088967D01*
X0090706Y0089049D01*
X0090579Y0089136D01*
X0090454Y0089225D01*
X0090332Y0089318D01*
X0090213Y0089414D01*
X0090095Y0089513D01*
X0089981Y0089614D01*
X0089869Y0089719D01*
X0089760Y0089827D01*
X0089654Y0089938D01*
X0089550Y0090051D01*
X0089450Y0090167D01*
X0089352Y0090285D01*
X0089258Y0090406D01*
X0089167Y0090529D01*
X0089079Y0090655D01*
X0088995Y0090783D01*
X0088913Y0090913D01*
X0088836Y0091045D01*
X0088761Y0091179D01*
X0088690Y0091315D01*
X0088623Y0091453D01*
X0088559Y0091593D01*
X0088499Y0091734D01*
X0088443Y0091876D01*
X0088390Y0092020D01*
X0088341Y0092166D01*
X0088296Y0092312D01*
X0088255Y0092460D01*
X0088218Y0092608D01*
X0088184Y0092758D01*
X0088154Y0092909D01*
X0088129Y0093060D01*
X0088107Y0093211D01*
X0088089Y0093364D01*
X0088075Y0093516D01*
X0088065Y0093669D01*
X0088059Y0093823D01*
X0088057Y0093976D01*
X0407054Y0099094D02*
X0407056Y0099171D01*
X0407062Y0099247D01*
X0407072Y0099323D01*
X0407086Y0099398D01*
X0407103Y0099473D01*
X0407125Y0099546D01*
X0407150Y0099619D01*
X0407180Y0099690D01*
X0407212Y0099759D01*
X0407249Y0099826D01*
X0407288Y0099892D01*
X0407331Y0099955D01*
X0407378Y0100016D01*
X0407427Y0100075D01*
X0407480Y0100131D01*
X0407535Y0100184D01*
X0407593Y0100234D01*
X0407653Y0100281D01*
X0407716Y0100325D01*
X0407781Y0100366D01*
X0407848Y0100403D01*
X0407917Y0100437D01*
X0407987Y0100467D01*
X0408059Y0100493D01*
X0408133Y0100515D01*
X0408207Y0100534D01*
X0408282Y0100549D01*
X0408358Y0100560D01*
X0408434Y0100567D01*
X0408511Y0100570D01*
X0408587Y0100569D01*
X0408664Y0100564D01*
X0408740Y0100555D01*
X0408816Y0100542D01*
X0408890Y0100525D01*
X0408964Y0100505D01*
X0409037Y0100480D01*
X0409108Y0100452D01*
X0409178Y0100420D01*
X0409246Y0100385D01*
X0409312Y0100346D01*
X0409376Y0100304D01*
X0409437Y0100258D01*
X0409497Y0100209D01*
X0409553Y0100158D01*
X0409607Y0100103D01*
X0409658Y0100046D01*
X0409706Y0099986D01*
X0409751Y0099924D01*
X0409792Y0099859D01*
X0409830Y0099793D01*
X0409865Y0099725D01*
X0409895Y0099654D01*
X0409923Y0099583D01*
X0409946Y0099510D01*
X0409966Y0099436D01*
X0409982Y0099361D01*
X0409994Y0099285D01*
X0410002Y0099209D01*
X0410006Y0099132D01*
X0410006Y0099056D01*
X0410002Y0098979D01*
X0409994Y0098903D01*
X0409982Y0098827D01*
X0409966Y0098752D01*
X0409946Y0098678D01*
X0409923Y0098605D01*
X0409895Y0098534D01*
X0409865Y0098463D01*
X0409830Y0098395D01*
X0409792Y0098329D01*
X0409751Y0098264D01*
X0409706Y0098202D01*
X0409658Y0098142D01*
X0409607Y0098085D01*
X0409553Y0098030D01*
X0409497Y0097979D01*
X0409437Y0097930D01*
X0409376Y0097884D01*
X0409312Y0097842D01*
X0409246Y0097803D01*
X0409178Y0097768D01*
X0409108Y0097736D01*
X0409037Y0097708D01*
X0408964Y0097683D01*
X0408890Y0097663D01*
X0408816Y0097646D01*
X0408740Y0097633D01*
X0408664Y0097624D01*
X0408587Y0097619D01*
X0408511Y0097618D01*
X0408434Y0097621D01*
X0408358Y0097628D01*
X0408282Y0097639D01*
X0408207Y0097654D01*
X0408133Y0097673D01*
X0408059Y0097695D01*
X0407987Y0097721D01*
X0407917Y0097751D01*
X0407848Y0097785D01*
X0407781Y0097822D01*
X0407716Y0097863D01*
X0407653Y0097907D01*
X0407593Y0097954D01*
X0407535Y0098004D01*
X0407480Y0098057D01*
X0407427Y0098113D01*
X0407378Y0098172D01*
X0407331Y0098233D01*
X0407288Y0098296D01*
X0407249Y0098362D01*
X0407212Y0098429D01*
X0407180Y0098498D01*
X0407150Y0098569D01*
X0407125Y0098642D01*
X0407103Y0098715D01*
X0407086Y0098790D01*
X0407072Y0098865D01*
X0407062Y0098941D01*
X0407056Y0099017D01*
X0407054Y0099094D01*
X0502330Y0099094D02*
X0502332Y0099171D01*
X0502338Y0099247D01*
X0502348Y0099323D01*
X0502362Y0099398D01*
X0502379Y0099473D01*
X0502401Y0099546D01*
X0502426Y0099619D01*
X0502456Y0099690D01*
X0502488Y0099759D01*
X0502525Y0099826D01*
X0502564Y0099892D01*
X0502607Y0099955D01*
X0502654Y0100016D01*
X0502703Y0100075D01*
X0502756Y0100131D01*
X0502811Y0100184D01*
X0502869Y0100234D01*
X0502929Y0100281D01*
X0502992Y0100325D01*
X0503057Y0100366D01*
X0503124Y0100403D01*
X0503193Y0100437D01*
X0503263Y0100467D01*
X0503335Y0100493D01*
X0503409Y0100515D01*
X0503483Y0100534D01*
X0503558Y0100549D01*
X0503634Y0100560D01*
X0503710Y0100567D01*
X0503787Y0100570D01*
X0503863Y0100569D01*
X0503940Y0100564D01*
X0504016Y0100555D01*
X0504092Y0100542D01*
X0504166Y0100525D01*
X0504240Y0100505D01*
X0504313Y0100480D01*
X0504384Y0100452D01*
X0504454Y0100420D01*
X0504522Y0100385D01*
X0504588Y0100346D01*
X0504652Y0100304D01*
X0504713Y0100258D01*
X0504773Y0100209D01*
X0504829Y0100158D01*
X0504883Y0100103D01*
X0504934Y0100046D01*
X0504982Y0099986D01*
X0505027Y0099924D01*
X0505068Y0099859D01*
X0505106Y0099793D01*
X0505141Y0099725D01*
X0505171Y0099654D01*
X0505199Y0099583D01*
X0505222Y0099510D01*
X0505242Y0099436D01*
X0505258Y0099361D01*
X0505270Y0099285D01*
X0505278Y0099209D01*
X0505282Y0099132D01*
X0505282Y0099056D01*
X0505278Y0098979D01*
X0505270Y0098903D01*
X0505258Y0098827D01*
X0505242Y0098752D01*
X0505222Y0098678D01*
X0505199Y0098605D01*
X0505171Y0098534D01*
X0505141Y0098463D01*
X0505106Y0098395D01*
X0505068Y0098329D01*
X0505027Y0098264D01*
X0504982Y0098202D01*
X0504934Y0098142D01*
X0504883Y0098085D01*
X0504829Y0098030D01*
X0504773Y0097979D01*
X0504713Y0097930D01*
X0504652Y0097884D01*
X0504588Y0097842D01*
X0504522Y0097803D01*
X0504454Y0097768D01*
X0504384Y0097736D01*
X0504313Y0097708D01*
X0504240Y0097683D01*
X0504166Y0097663D01*
X0504092Y0097646D01*
X0504016Y0097633D01*
X0503940Y0097624D01*
X0503863Y0097619D01*
X0503787Y0097618D01*
X0503710Y0097621D01*
X0503634Y0097628D01*
X0503558Y0097639D01*
X0503483Y0097654D01*
X0503409Y0097673D01*
X0503335Y0097695D01*
X0503263Y0097721D01*
X0503193Y0097751D01*
X0503124Y0097785D01*
X0503057Y0097822D01*
X0502992Y0097863D01*
X0502929Y0097907D01*
X0502869Y0097954D01*
X0502811Y0098004D01*
X0502756Y0098057D01*
X0502703Y0098113D01*
X0502654Y0098172D01*
X0502607Y0098233D01*
X0502564Y0098296D01*
X0502525Y0098362D01*
X0502488Y0098429D01*
X0502456Y0098498D01*
X0502426Y0098569D01*
X0502401Y0098642D01*
X0502379Y0098715D01*
X0502362Y0098790D01*
X0502348Y0098865D01*
X0502338Y0098941D01*
X0502332Y0099017D01*
X0502330Y0099094D01*
X0550656Y0092402D02*
X0550658Y0092555D01*
X0550664Y0092709D01*
X0550674Y0092862D01*
X0550688Y0093014D01*
X0550706Y0093167D01*
X0550728Y0093318D01*
X0550753Y0093469D01*
X0550783Y0093620D01*
X0550817Y0093770D01*
X0550854Y0093918D01*
X0550895Y0094066D01*
X0550940Y0094212D01*
X0550989Y0094358D01*
X0551042Y0094502D01*
X0551098Y0094644D01*
X0551158Y0094785D01*
X0551222Y0094925D01*
X0551289Y0095063D01*
X0551360Y0095199D01*
X0551435Y0095333D01*
X0551512Y0095465D01*
X0551594Y0095595D01*
X0551678Y0095723D01*
X0551766Y0095849D01*
X0551857Y0095972D01*
X0551951Y0096093D01*
X0552049Y0096211D01*
X0552149Y0096327D01*
X0552253Y0096440D01*
X0552359Y0096551D01*
X0552468Y0096659D01*
X0552580Y0096764D01*
X0552694Y0096865D01*
X0552812Y0096964D01*
X0552931Y0097060D01*
X0553053Y0097153D01*
X0553178Y0097242D01*
X0553305Y0097329D01*
X0553434Y0097411D01*
X0553565Y0097491D01*
X0553698Y0097567D01*
X0553833Y0097640D01*
X0553970Y0097709D01*
X0554109Y0097774D01*
X0554249Y0097836D01*
X0554391Y0097894D01*
X0554534Y0097949D01*
X0554679Y0098000D01*
X0554825Y0098047D01*
X0554972Y0098090D01*
X0555120Y0098129D01*
X0555269Y0098165D01*
X0555419Y0098196D01*
X0555570Y0098224D01*
X0555721Y0098248D01*
X0555874Y0098268D01*
X0556026Y0098284D01*
X0556179Y0098296D01*
X0556332Y0098304D01*
X0556485Y0098308D01*
X0556639Y0098308D01*
X0556792Y0098304D01*
X0556945Y0098296D01*
X0557098Y0098284D01*
X0557250Y0098268D01*
X0557403Y0098248D01*
X0557554Y0098224D01*
X0557705Y0098196D01*
X0557855Y0098165D01*
X0558004Y0098129D01*
X0558152Y0098090D01*
X0558299Y0098047D01*
X0558445Y0098000D01*
X0558590Y0097949D01*
X0558733Y0097894D01*
X0558875Y0097836D01*
X0559015Y0097774D01*
X0559154Y0097709D01*
X0559291Y0097640D01*
X0559426Y0097567D01*
X0559559Y0097491D01*
X0559690Y0097411D01*
X0559819Y0097329D01*
X0559946Y0097242D01*
X0560071Y0097153D01*
X0560193Y0097060D01*
X0560312Y0096964D01*
X0560430Y0096865D01*
X0560544Y0096764D01*
X0560656Y0096659D01*
X0560765Y0096551D01*
X0560871Y0096440D01*
X0560975Y0096327D01*
X0561075Y0096211D01*
X0561173Y0096093D01*
X0561267Y0095972D01*
X0561358Y0095849D01*
X0561446Y0095723D01*
X0561530Y0095595D01*
X0561612Y0095465D01*
X0561689Y0095333D01*
X0561764Y0095199D01*
X0561835Y0095063D01*
X0561902Y0094925D01*
X0561966Y0094785D01*
X0562026Y0094644D01*
X0562082Y0094502D01*
X0562135Y0094358D01*
X0562184Y0094212D01*
X0562229Y0094066D01*
X0562270Y0093918D01*
X0562307Y0093770D01*
X0562341Y0093620D01*
X0562371Y0093469D01*
X0562396Y0093318D01*
X0562418Y0093167D01*
X0562436Y0093014D01*
X0562450Y0092862D01*
X0562460Y0092709D01*
X0562466Y0092555D01*
X0562468Y0092402D01*
X0562466Y0092249D01*
X0562460Y0092095D01*
X0562450Y0091942D01*
X0562436Y0091790D01*
X0562418Y0091637D01*
X0562396Y0091486D01*
X0562371Y0091335D01*
X0562341Y0091184D01*
X0562307Y0091034D01*
X0562270Y0090886D01*
X0562229Y0090738D01*
X0562184Y0090592D01*
X0562135Y0090446D01*
X0562082Y0090302D01*
X0562026Y0090160D01*
X0561966Y0090019D01*
X0561902Y0089879D01*
X0561835Y0089741D01*
X0561764Y0089605D01*
X0561689Y0089471D01*
X0561612Y0089339D01*
X0561530Y0089209D01*
X0561446Y0089081D01*
X0561358Y0088955D01*
X0561267Y0088832D01*
X0561173Y0088711D01*
X0561075Y0088593D01*
X0560975Y0088477D01*
X0560871Y0088364D01*
X0560765Y0088253D01*
X0560656Y0088145D01*
X0560544Y0088040D01*
X0560430Y0087939D01*
X0560312Y0087840D01*
X0560193Y0087744D01*
X0560071Y0087651D01*
X0559946Y0087562D01*
X0559819Y0087475D01*
X0559690Y0087393D01*
X0559559Y0087313D01*
X0559426Y0087237D01*
X0559291Y0087164D01*
X0559154Y0087095D01*
X0559015Y0087030D01*
X0558875Y0086968D01*
X0558733Y0086910D01*
X0558590Y0086855D01*
X0558445Y0086804D01*
X0558299Y0086757D01*
X0558152Y0086714D01*
X0558004Y0086675D01*
X0557855Y0086639D01*
X0557705Y0086608D01*
X0557554Y0086580D01*
X0557403Y0086556D01*
X0557250Y0086536D01*
X0557098Y0086520D01*
X0556945Y0086508D01*
X0556792Y0086500D01*
X0556639Y0086496D01*
X0556485Y0086496D01*
X0556332Y0086500D01*
X0556179Y0086508D01*
X0556026Y0086520D01*
X0555874Y0086536D01*
X0555721Y0086556D01*
X0555570Y0086580D01*
X0555419Y0086608D01*
X0555269Y0086639D01*
X0555120Y0086675D01*
X0554972Y0086714D01*
X0554825Y0086757D01*
X0554679Y0086804D01*
X0554534Y0086855D01*
X0554391Y0086910D01*
X0554249Y0086968D01*
X0554109Y0087030D01*
X0553970Y0087095D01*
X0553833Y0087164D01*
X0553698Y0087237D01*
X0553565Y0087313D01*
X0553434Y0087393D01*
X0553305Y0087475D01*
X0553178Y0087562D01*
X0553053Y0087651D01*
X0552931Y0087744D01*
X0552812Y0087840D01*
X0552694Y0087939D01*
X0552580Y0088040D01*
X0552468Y0088145D01*
X0552359Y0088253D01*
X0552253Y0088364D01*
X0552149Y0088477D01*
X0552049Y0088593D01*
X0551951Y0088711D01*
X0551857Y0088832D01*
X0551766Y0088955D01*
X0551678Y0089081D01*
X0551594Y0089209D01*
X0551512Y0089339D01*
X0551435Y0089471D01*
X0551360Y0089605D01*
X0551289Y0089741D01*
X0551222Y0089879D01*
X0551158Y0090019D01*
X0551098Y0090160D01*
X0551042Y0090302D01*
X0550989Y0090446D01*
X0550940Y0090592D01*
X0550895Y0090738D01*
X0550854Y0090886D01*
X0550817Y0091034D01*
X0550783Y0091184D01*
X0550753Y0091335D01*
X0550728Y0091486D01*
X0550706Y0091637D01*
X0550688Y0091790D01*
X0550674Y0091942D01*
X0550664Y0092095D01*
X0550658Y0092249D01*
X0550656Y0092402D01*
X0550262Y0451457D02*
X0550264Y0451610D01*
X0550270Y0451764D01*
X0550280Y0451917D01*
X0550294Y0452069D01*
X0550312Y0452222D01*
X0550334Y0452373D01*
X0550359Y0452524D01*
X0550389Y0452675D01*
X0550423Y0452825D01*
X0550460Y0452973D01*
X0550501Y0453121D01*
X0550546Y0453267D01*
X0550595Y0453413D01*
X0550648Y0453557D01*
X0550704Y0453699D01*
X0550764Y0453840D01*
X0550828Y0453980D01*
X0550895Y0454118D01*
X0550966Y0454254D01*
X0551041Y0454388D01*
X0551118Y0454520D01*
X0551200Y0454650D01*
X0551284Y0454778D01*
X0551372Y0454904D01*
X0551463Y0455027D01*
X0551557Y0455148D01*
X0551655Y0455266D01*
X0551755Y0455382D01*
X0551859Y0455495D01*
X0551965Y0455606D01*
X0552074Y0455714D01*
X0552186Y0455819D01*
X0552300Y0455920D01*
X0552418Y0456019D01*
X0552537Y0456115D01*
X0552659Y0456208D01*
X0552784Y0456297D01*
X0552911Y0456384D01*
X0553040Y0456466D01*
X0553171Y0456546D01*
X0553304Y0456622D01*
X0553439Y0456695D01*
X0553576Y0456764D01*
X0553715Y0456829D01*
X0553855Y0456891D01*
X0553997Y0456949D01*
X0554140Y0457004D01*
X0554285Y0457055D01*
X0554431Y0457102D01*
X0554578Y0457145D01*
X0554726Y0457184D01*
X0554875Y0457220D01*
X0555025Y0457251D01*
X0555176Y0457279D01*
X0555327Y0457303D01*
X0555480Y0457323D01*
X0555632Y0457339D01*
X0555785Y0457351D01*
X0555938Y0457359D01*
X0556091Y0457363D01*
X0556245Y0457363D01*
X0556398Y0457359D01*
X0556551Y0457351D01*
X0556704Y0457339D01*
X0556856Y0457323D01*
X0557009Y0457303D01*
X0557160Y0457279D01*
X0557311Y0457251D01*
X0557461Y0457220D01*
X0557610Y0457184D01*
X0557758Y0457145D01*
X0557905Y0457102D01*
X0558051Y0457055D01*
X0558196Y0457004D01*
X0558339Y0456949D01*
X0558481Y0456891D01*
X0558621Y0456829D01*
X0558760Y0456764D01*
X0558897Y0456695D01*
X0559032Y0456622D01*
X0559165Y0456546D01*
X0559296Y0456466D01*
X0559425Y0456384D01*
X0559552Y0456297D01*
X0559677Y0456208D01*
X0559799Y0456115D01*
X0559918Y0456019D01*
X0560036Y0455920D01*
X0560150Y0455819D01*
X0560262Y0455714D01*
X0560371Y0455606D01*
X0560477Y0455495D01*
X0560581Y0455382D01*
X0560681Y0455266D01*
X0560779Y0455148D01*
X0560873Y0455027D01*
X0560964Y0454904D01*
X0561052Y0454778D01*
X0561136Y0454650D01*
X0561218Y0454520D01*
X0561295Y0454388D01*
X0561370Y0454254D01*
X0561441Y0454118D01*
X0561508Y0453980D01*
X0561572Y0453840D01*
X0561632Y0453699D01*
X0561688Y0453557D01*
X0561741Y0453413D01*
X0561790Y0453267D01*
X0561835Y0453121D01*
X0561876Y0452973D01*
X0561913Y0452825D01*
X0561947Y0452675D01*
X0561977Y0452524D01*
X0562002Y0452373D01*
X0562024Y0452222D01*
X0562042Y0452069D01*
X0562056Y0451917D01*
X0562066Y0451764D01*
X0562072Y0451610D01*
X0562074Y0451457D01*
X0562072Y0451304D01*
X0562066Y0451150D01*
X0562056Y0450997D01*
X0562042Y0450845D01*
X0562024Y0450692D01*
X0562002Y0450541D01*
X0561977Y0450390D01*
X0561947Y0450239D01*
X0561913Y0450089D01*
X0561876Y0449941D01*
X0561835Y0449793D01*
X0561790Y0449647D01*
X0561741Y0449501D01*
X0561688Y0449357D01*
X0561632Y0449215D01*
X0561572Y0449074D01*
X0561508Y0448934D01*
X0561441Y0448796D01*
X0561370Y0448660D01*
X0561295Y0448526D01*
X0561218Y0448394D01*
X0561136Y0448264D01*
X0561052Y0448136D01*
X0560964Y0448010D01*
X0560873Y0447887D01*
X0560779Y0447766D01*
X0560681Y0447648D01*
X0560581Y0447532D01*
X0560477Y0447419D01*
X0560371Y0447308D01*
X0560262Y0447200D01*
X0560150Y0447095D01*
X0560036Y0446994D01*
X0559918Y0446895D01*
X0559799Y0446799D01*
X0559677Y0446706D01*
X0559552Y0446617D01*
X0559425Y0446530D01*
X0559296Y0446448D01*
X0559165Y0446368D01*
X0559032Y0446292D01*
X0558897Y0446219D01*
X0558760Y0446150D01*
X0558621Y0446085D01*
X0558481Y0446023D01*
X0558339Y0445965D01*
X0558196Y0445910D01*
X0558051Y0445859D01*
X0557905Y0445812D01*
X0557758Y0445769D01*
X0557610Y0445730D01*
X0557461Y0445694D01*
X0557311Y0445663D01*
X0557160Y0445635D01*
X0557009Y0445611D01*
X0556856Y0445591D01*
X0556704Y0445575D01*
X0556551Y0445563D01*
X0556398Y0445555D01*
X0556245Y0445551D01*
X0556091Y0445551D01*
X0555938Y0445555D01*
X0555785Y0445563D01*
X0555632Y0445575D01*
X0555480Y0445591D01*
X0555327Y0445611D01*
X0555176Y0445635D01*
X0555025Y0445663D01*
X0554875Y0445694D01*
X0554726Y0445730D01*
X0554578Y0445769D01*
X0554431Y0445812D01*
X0554285Y0445859D01*
X0554140Y0445910D01*
X0553997Y0445965D01*
X0553855Y0446023D01*
X0553715Y0446085D01*
X0553576Y0446150D01*
X0553439Y0446219D01*
X0553304Y0446292D01*
X0553171Y0446368D01*
X0553040Y0446448D01*
X0552911Y0446530D01*
X0552784Y0446617D01*
X0552659Y0446706D01*
X0552537Y0446799D01*
X0552418Y0446895D01*
X0552300Y0446994D01*
X0552186Y0447095D01*
X0552074Y0447200D01*
X0551965Y0447308D01*
X0551859Y0447419D01*
X0551755Y0447532D01*
X0551655Y0447648D01*
X0551557Y0447766D01*
X0551463Y0447887D01*
X0551372Y0448010D01*
X0551284Y0448136D01*
X0551200Y0448264D01*
X0551118Y0448394D01*
X0551041Y0448526D01*
X0550966Y0448660D01*
X0550895Y0448796D01*
X0550828Y0448934D01*
X0550764Y0449074D01*
X0550704Y0449215D01*
X0550648Y0449357D01*
X0550595Y0449501D01*
X0550546Y0449647D01*
X0550501Y0449793D01*
X0550460Y0449941D01*
X0550423Y0450089D01*
X0550389Y0450239D01*
X0550359Y0450390D01*
X0550334Y0450541D01*
X0550312Y0450692D01*
X0550294Y0450845D01*
X0550280Y0450997D01*
X0550270Y0451150D01*
X0550264Y0451304D01*
X0550262Y0451457D01*
X0088451Y0450669D02*
X0088453Y0450822D01*
X0088459Y0450976D01*
X0088469Y0451129D01*
X0088483Y0451281D01*
X0088501Y0451434D01*
X0088523Y0451585D01*
X0088548Y0451736D01*
X0088578Y0451887D01*
X0088612Y0452037D01*
X0088649Y0452185D01*
X0088690Y0452333D01*
X0088735Y0452479D01*
X0088784Y0452625D01*
X0088837Y0452769D01*
X0088893Y0452911D01*
X0088953Y0453052D01*
X0089017Y0453192D01*
X0089084Y0453330D01*
X0089155Y0453466D01*
X0089230Y0453600D01*
X0089307Y0453732D01*
X0089389Y0453862D01*
X0089473Y0453990D01*
X0089561Y0454116D01*
X0089652Y0454239D01*
X0089746Y0454360D01*
X0089844Y0454478D01*
X0089944Y0454594D01*
X0090048Y0454707D01*
X0090154Y0454818D01*
X0090263Y0454926D01*
X0090375Y0455031D01*
X0090489Y0455132D01*
X0090607Y0455231D01*
X0090726Y0455327D01*
X0090848Y0455420D01*
X0090973Y0455509D01*
X0091100Y0455596D01*
X0091229Y0455678D01*
X0091360Y0455758D01*
X0091493Y0455834D01*
X0091628Y0455907D01*
X0091765Y0455976D01*
X0091904Y0456041D01*
X0092044Y0456103D01*
X0092186Y0456161D01*
X0092329Y0456216D01*
X0092474Y0456267D01*
X0092620Y0456314D01*
X0092767Y0456357D01*
X0092915Y0456396D01*
X0093064Y0456432D01*
X0093214Y0456463D01*
X0093365Y0456491D01*
X0093516Y0456515D01*
X0093669Y0456535D01*
X0093821Y0456551D01*
X0093974Y0456563D01*
X0094127Y0456571D01*
X0094280Y0456575D01*
X0094434Y0456575D01*
X0094587Y0456571D01*
X0094740Y0456563D01*
X0094893Y0456551D01*
X0095045Y0456535D01*
X0095198Y0456515D01*
X0095349Y0456491D01*
X0095500Y0456463D01*
X0095650Y0456432D01*
X0095799Y0456396D01*
X0095947Y0456357D01*
X0096094Y0456314D01*
X0096240Y0456267D01*
X0096385Y0456216D01*
X0096528Y0456161D01*
X0096670Y0456103D01*
X0096810Y0456041D01*
X0096949Y0455976D01*
X0097086Y0455907D01*
X0097221Y0455834D01*
X0097354Y0455758D01*
X0097485Y0455678D01*
X0097614Y0455596D01*
X0097741Y0455509D01*
X0097866Y0455420D01*
X0097988Y0455327D01*
X0098107Y0455231D01*
X0098225Y0455132D01*
X0098339Y0455031D01*
X0098451Y0454926D01*
X0098560Y0454818D01*
X0098666Y0454707D01*
X0098770Y0454594D01*
X0098870Y0454478D01*
X0098968Y0454360D01*
X0099062Y0454239D01*
X0099153Y0454116D01*
X0099241Y0453990D01*
X0099325Y0453862D01*
X0099407Y0453732D01*
X0099484Y0453600D01*
X0099559Y0453466D01*
X0099630Y0453330D01*
X0099697Y0453192D01*
X0099761Y0453052D01*
X0099821Y0452911D01*
X0099877Y0452769D01*
X0099930Y0452625D01*
X0099979Y0452479D01*
X0100024Y0452333D01*
X0100065Y0452185D01*
X0100102Y0452037D01*
X0100136Y0451887D01*
X0100166Y0451736D01*
X0100191Y0451585D01*
X0100213Y0451434D01*
X0100231Y0451281D01*
X0100245Y0451129D01*
X0100255Y0450976D01*
X0100261Y0450822D01*
X0100263Y0450669D01*
X0100261Y0450516D01*
X0100255Y0450362D01*
X0100245Y0450209D01*
X0100231Y0450057D01*
X0100213Y0449904D01*
X0100191Y0449753D01*
X0100166Y0449602D01*
X0100136Y0449451D01*
X0100102Y0449301D01*
X0100065Y0449153D01*
X0100024Y0449005D01*
X0099979Y0448859D01*
X0099930Y0448713D01*
X0099877Y0448569D01*
X0099821Y0448427D01*
X0099761Y0448286D01*
X0099697Y0448146D01*
X0099630Y0448008D01*
X0099559Y0447872D01*
X0099484Y0447738D01*
X0099407Y0447606D01*
X0099325Y0447476D01*
X0099241Y0447348D01*
X0099153Y0447222D01*
X0099062Y0447099D01*
X0098968Y0446978D01*
X0098870Y0446860D01*
X0098770Y0446744D01*
X0098666Y0446631D01*
X0098560Y0446520D01*
X0098451Y0446412D01*
X0098339Y0446307D01*
X0098225Y0446206D01*
X0098107Y0446107D01*
X0097988Y0446011D01*
X0097866Y0445918D01*
X0097741Y0445829D01*
X0097614Y0445742D01*
X0097485Y0445660D01*
X0097354Y0445580D01*
X0097221Y0445504D01*
X0097086Y0445431D01*
X0096949Y0445362D01*
X0096810Y0445297D01*
X0096670Y0445235D01*
X0096528Y0445177D01*
X0096385Y0445122D01*
X0096240Y0445071D01*
X0096094Y0445024D01*
X0095947Y0444981D01*
X0095799Y0444942D01*
X0095650Y0444906D01*
X0095500Y0444875D01*
X0095349Y0444847D01*
X0095198Y0444823D01*
X0095045Y0444803D01*
X0094893Y0444787D01*
X0094740Y0444775D01*
X0094587Y0444767D01*
X0094434Y0444763D01*
X0094280Y0444763D01*
X0094127Y0444767D01*
X0093974Y0444775D01*
X0093821Y0444787D01*
X0093669Y0444803D01*
X0093516Y0444823D01*
X0093365Y0444847D01*
X0093214Y0444875D01*
X0093064Y0444906D01*
X0092915Y0444942D01*
X0092767Y0444981D01*
X0092620Y0445024D01*
X0092474Y0445071D01*
X0092329Y0445122D01*
X0092186Y0445177D01*
X0092044Y0445235D01*
X0091904Y0445297D01*
X0091765Y0445362D01*
X0091628Y0445431D01*
X0091493Y0445504D01*
X0091360Y0445580D01*
X0091229Y0445660D01*
X0091100Y0445742D01*
X0090973Y0445829D01*
X0090848Y0445918D01*
X0090726Y0446011D01*
X0090607Y0446107D01*
X0090489Y0446206D01*
X0090375Y0446307D01*
X0090263Y0446412D01*
X0090154Y0446520D01*
X0090048Y0446631D01*
X0089944Y0446744D01*
X0089844Y0446860D01*
X0089746Y0446978D01*
X0089652Y0447099D01*
X0089561Y0447222D01*
X0089473Y0447348D01*
X0089389Y0447476D01*
X0089307Y0447606D01*
X0089230Y0447738D01*
X0089155Y0447872D01*
X0089084Y0448008D01*
X0089017Y0448146D01*
X0088953Y0448286D01*
X0088893Y0448427D01*
X0088837Y0448569D01*
X0088784Y0448713D01*
X0088735Y0448859D01*
X0088690Y0449005D01*
X0088649Y0449153D01*
X0088612Y0449301D01*
X0088578Y0449451D01*
X0088548Y0449602D01*
X0088523Y0449753D01*
X0088501Y0449904D01*
X0088483Y0450057D01*
X0088469Y0450209D01*
X0088459Y0450362D01*
X0088453Y0450516D01*
X0088451Y0450669D01*
D11*
X0480723Y0387201D03*
X0493123Y0377901D03*
X0497123Y0360601D03*
X0508023Y0358001D03*
X0530023Y0381401D03*
X0534423Y0380301D03*
X0534423Y0380201D03*
X0534423Y0380101D03*
X0534323Y0379901D03*
X0534523Y0380501D03*
X0531223Y0392001D03*
X0531323Y0400701D03*
X0531223Y0400801D03*
X0531123Y0400901D03*
X0531123Y0401001D03*
X0531023Y0401101D03*
X0515923Y0396201D03*
X0514423Y0383901D03*
X0497023Y0406101D03*
X0503323Y0413201D03*
X0503823Y0413001D03*
X0506623Y0431701D03*
D12*
X0512923Y0428501D03*
X0500323Y0421601D03*
X0500323Y0421501D03*
X0500223Y0421401D03*
X0500223Y0421301D03*
X0500123Y0421001D03*
X0500123Y0420901D03*
X0500023Y0420601D03*
X0500023Y0420501D03*
X0499923Y0420101D03*
X0499923Y0420001D03*
X0499923Y0419901D03*
X0499923Y0419801D03*
X0499923Y0419701D03*
X0499923Y0419601D03*
X0499923Y0419501D03*
X0500123Y0418601D03*
X0490123Y0406101D03*
X0482323Y0388401D03*
X0485823Y0382401D03*
X0486023Y0377501D03*
X0486023Y0377401D03*
X0486523Y0376601D03*
X0496323Y0361901D03*
X0508023Y0358101D03*
X0530023Y0372801D03*
X0524723Y0407001D03*
X0526823Y0409701D03*
D13*
X0522123Y0426201D03*
X0519723Y0431201D03*
X0504423Y0427701D03*
X0496723Y0410601D03*
X0488923Y0403501D03*
X0485723Y0381301D03*
X0485523Y0380401D03*
X0485523Y0380301D03*
X0491223Y0366701D03*
X0491623Y0366301D03*
X0495723Y0362901D03*
X0507823Y0358201D03*
D14*
X0507923Y0358301D03*
X0495123Y0363801D03*
X0494323Y0364501D03*
X0494123Y0364601D03*
X0527323Y0371101D03*
X0524423Y0394901D03*
X0525023Y0396201D03*
X0522723Y0399801D03*
X0496823Y0410201D03*
X0504823Y0427301D03*
X0516623Y0432601D03*
X0516823Y0432501D03*
X0517223Y0432301D03*
X0517423Y0432201D03*
X0517623Y0432101D03*
D15*
X0524573Y0424701D03*
X0524673Y0424501D03*
X0524773Y0424301D03*
X0524773Y0424201D03*
X0524873Y0424101D03*
X0524873Y0424001D03*
X0524973Y0423901D03*
X0524973Y0423801D03*
X0524973Y0423701D03*
X0525073Y0423501D03*
X0505173Y0427001D03*
X0496873Y0409901D03*
X0524273Y0398101D03*
X0524373Y0397901D03*
X0524473Y0397801D03*
X0524573Y0397701D03*
X0524673Y0397501D03*
X0524773Y0397401D03*
X0524873Y0397201D03*
X0521773Y0380701D03*
X0505873Y0376701D03*
X0505673Y0377001D03*
X0505573Y0377201D03*
X0505473Y0377301D03*
X0505373Y0377501D03*
X0505273Y0377601D03*
X0505173Y0377801D03*
X0505073Y0378001D03*
X0504973Y0378101D03*
X0504873Y0378301D03*
X0507873Y0358401D03*
D16*
X0507773Y0358501D03*
X0507673Y0374201D03*
X0507573Y0374301D03*
X0503173Y0381201D03*
X0503073Y0381301D03*
X0521373Y0379801D03*
X0521473Y0378901D03*
X0522273Y0409101D03*
X0525373Y0421101D03*
X0525373Y0421201D03*
X0522373Y0427001D03*
X0505473Y0426701D03*
X0496373Y0409201D03*
X0496273Y0409101D03*
X0496173Y0409001D03*
X0496073Y0408901D03*
D17*
X0525323Y0420401D03*
X0502523Y0382301D03*
X0502523Y0382201D03*
X0502623Y0382101D03*
X0508123Y0373601D03*
X0508223Y0373501D03*
X0508023Y0358601D03*
D18*
X0508323Y0358701D03*
X0502223Y0382801D03*
X0502123Y0382901D03*
X0525223Y0419901D03*
X0525223Y0420001D03*
D19*
X0525073Y0419601D03*
X0522273Y0409201D03*
X0501973Y0383201D03*
X0489773Y0375801D03*
X0508873Y0372801D03*
X0508573Y0358801D03*
D20*
X0508823Y0358901D03*
X0489823Y0375501D03*
X0501723Y0383501D03*
X0501723Y0383601D03*
X0524923Y0419301D03*
X0505123Y0424901D03*
X0505023Y0424701D03*
X0504923Y0424501D03*
X0504823Y0424301D03*
D21*
X0505773Y0425901D03*
X0505873Y0426001D03*
X0505973Y0426101D03*
X0523473Y0411601D03*
X0525373Y0382801D03*
X0525273Y0382701D03*
X0509273Y0372401D03*
X0509073Y0359001D03*
X0501473Y0383901D03*
D22*
X0501373Y0384101D03*
X0509473Y0372201D03*
X0509273Y0359101D03*
X0492873Y0367901D03*
X0492873Y0368001D03*
X0525073Y0382401D03*
X0525173Y0382501D03*
X0525473Y0383601D03*
X0524673Y0418901D03*
D23*
X0524523Y0418701D03*
X0522223Y0409301D03*
X0525523Y0384001D03*
X0509623Y0372101D03*
X0509423Y0359201D03*
X0492623Y0368401D03*
X0492523Y0368601D03*
X0501223Y0384401D03*
D24*
X0500973Y0384701D03*
X0509873Y0371901D03*
X0509673Y0359301D03*
X0492273Y0369001D03*
X0492273Y0369101D03*
D25*
X0491923Y0369701D03*
X0491823Y0369901D03*
X0500723Y0385001D03*
X0509923Y0359401D03*
D26*
X0510023Y0359501D03*
X0491723Y0370101D03*
X0491623Y0370301D03*
X0491523Y0370501D03*
X0500623Y0385201D03*
X0524223Y0418301D03*
D27*
X0522023Y0409401D03*
X0508523Y0403601D03*
X0508223Y0403401D03*
X0507123Y0402701D03*
X0507023Y0402601D03*
X0506723Y0402401D03*
X0510323Y0371601D03*
X0510223Y0359601D03*
X0491423Y0370701D03*
X0491323Y0370801D03*
X0491323Y0370901D03*
X0491223Y0371101D03*
D28*
X0491273Y0371001D03*
X0491173Y0371201D03*
X0491073Y0371401D03*
X0489073Y0375201D03*
X0500473Y0385401D03*
X0506273Y0402101D03*
X0506573Y0402301D03*
X0506873Y0402501D03*
X0508373Y0403501D03*
X0508673Y0403701D03*
X0508873Y0403801D03*
X0510373Y0359701D03*
D29*
X0510523Y0359801D03*
X0490423Y0372601D03*
X0490323Y0372801D03*
X0490223Y0373001D03*
X0490123Y0373201D03*
X0490023Y0373301D03*
X0490023Y0373401D03*
X0489923Y0373501D03*
X0489923Y0373601D03*
X0489823Y0373701D03*
X0489623Y0374101D03*
X0489523Y0374301D03*
X0505823Y0401801D03*
X0509423Y0404101D03*
X0523123Y0411801D03*
D30*
X0521223Y0394301D03*
X0521123Y0394101D03*
X0521123Y0394001D03*
X0521023Y0393801D03*
X0505423Y0401501D03*
X0510723Y0359901D03*
D31*
X0497523Y0359901D03*
X0480923Y0378201D03*
X0480923Y0378301D03*
X0479723Y0383101D03*
X0479723Y0383201D03*
X0479723Y0383301D03*
X0496923Y0417001D03*
X0503623Y0430501D03*
X0518323Y0422401D03*
X0529723Y0410101D03*
X0529923Y0379501D03*
X0520323Y0440401D03*
X0518923Y0447601D03*
D32*
X0520023Y0427701D03*
X0521823Y0409501D03*
X0521023Y0393401D03*
X0505123Y0401301D03*
X0505023Y0401201D03*
X0500023Y0386001D03*
X0510923Y0360001D03*
D33*
X0497523Y0360001D03*
X0481123Y0377601D03*
X0481123Y0377701D03*
X0479723Y0383901D03*
X0479723Y0384001D03*
X0479723Y0384101D03*
X0492823Y0379301D03*
X0497123Y0416801D03*
X0507023Y0421101D03*
X0507023Y0421201D03*
X0506923Y0421601D03*
X0503623Y0430401D03*
X0507123Y0432501D03*
X0516023Y0434101D03*
X0516123Y0434501D03*
X0516123Y0434601D03*
X0516223Y0434901D03*
X0516223Y0435001D03*
X0516223Y0435101D03*
X0516323Y0435301D03*
X0516323Y0435401D03*
X0516323Y0435501D03*
X0516323Y0435601D03*
X0516423Y0435801D03*
X0516423Y0435901D03*
X0516423Y0436001D03*
X0516423Y0436101D03*
X0516523Y0436301D03*
X0516523Y0436401D03*
X0516523Y0436501D03*
X0516523Y0436601D03*
X0516623Y0436701D03*
X0516623Y0436801D03*
X0516623Y0436901D03*
X0516623Y0437001D03*
X0516723Y0437201D03*
X0516723Y0437301D03*
X0516723Y0437401D03*
X0516723Y0437501D03*
X0516823Y0437701D03*
X0516823Y0437801D03*
X0516823Y0437901D03*
X0516823Y0438001D03*
X0516923Y0438101D03*
X0516923Y0438201D03*
X0516923Y0438301D03*
X0516923Y0438401D03*
X0517023Y0438701D03*
X0517023Y0438801D03*
X0517023Y0438901D03*
X0517123Y0439201D03*
X0517123Y0439301D03*
X0517123Y0439401D03*
X0517223Y0439601D03*
X0517223Y0439701D03*
X0517223Y0439801D03*
X0517323Y0440101D03*
X0517323Y0440201D03*
X0517423Y0440601D03*
X0517423Y0440701D03*
X0517523Y0441201D03*
X0520223Y0439901D03*
X0520223Y0439801D03*
X0520223Y0439701D03*
X0520123Y0439501D03*
X0520123Y0439401D03*
X0520123Y0439301D03*
X0520123Y0439201D03*
X0520023Y0438801D03*
X0517323Y0425801D03*
X0517423Y0425301D03*
D34*
X0504723Y0401001D03*
X0521023Y0393201D03*
X0521023Y0393101D03*
X0511023Y0360101D03*
D35*
X0497423Y0360101D03*
X0481623Y0376701D03*
X0481523Y0376801D03*
X0481423Y0377001D03*
X0479923Y0385001D03*
X0479923Y0385101D03*
X0492923Y0379001D03*
X0513823Y0383301D03*
X0530023Y0380101D03*
X0506923Y0408101D03*
X0503623Y0430201D03*
X0519323Y0435001D03*
X0519323Y0435101D03*
X0519323Y0435201D03*
X0519423Y0435401D03*
X0519423Y0435501D03*
X0519423Y0435601D03*
X0519523Y0436001D03*
X0519523Y0436101D03*
X0526623Y0428401D03*
D36*
X0520073Y0427401D03*
X0522773Y0411901D03*
X0510373Y0404601D03*
X0504573Y0400901D03*
X0499873Y0386201D03*
X0511173Y0360201D03*
D37*
X0497373Y0360201D03*
X0482073Y0375901D03*
X0481973Y0376101D03*
X0481873Y0376201D03*
X0480073Y0385601D03*
X0480073Y0385701D03*
X0492973Y0378801D03*
X0513973Y0383401D03*
X0515673Y0396901D03*
X0526073Y0407901D03*
X0531673Y0392701D03*
X0529973Y0380301D03*
X0496673Y0405501D03*
X0497573Y0416301D03*
X0506873Y0432201D03*
X0519073Y0433701D03*
X0519073Y0433801D03*
X0517873Y0424501D03*
X0518173Y0422701D03*
D38*
X0510623Y0404701D03*
X0504123Y0400601D03*
X0499723Y0386401D03*
X0511323Y0360301D03*
D39*
X0497323Y0360301D03*
X0498923Y0367101D03*
X0493023Y0378601D03*
X0482423Y0375401D03*
X0482323Y0375501D03*
X0480223Y0386001D03*
X0480223Y0386101D03*
X0496723Y0405601D03*
X0498123Y0415901D03*
X0497823Y0416101D03*
X0506823Y0432101D03*
X0517923Y0424301D03*
X0517923Y0424201D03*
X0518123Y0422901D03*
X0519623Y0425601D03*
X0519523Y0425701D03*
X0519423Y0425801D03*
X0534423Y0394401D03*
X0534523Y0394101D03*
X0534623Y0393801D03*
X0534723Y0393401D03*
X0534823Y0393001D03*
X0534923Y0392701D03*
X0534923Y0392601D03*
X0534923Y0392501D03*
X0535023Y0392101D03*
X0535023Y0392001D03*
X0535123Y0391601D03*
X0535223Y0391001D03*
X0530023Y0380601D03*
X0530023Y0380501D03*
X0514023Y0383501D03*
D40*
X0521073Y0392601D03*
X0503973Y0400501D03*
X0520073Y0427201D03*
X0511473Y0360401D03*
D41*
X0497223Y0360401D03*
X0493023Y0378301D03*
X0480423Y0386601D03*
X0496823Y0405801D03*
X0500023Y0414801D03*
X0499823Y0414901D03*
X0499623Y0415001D03*
X0499323Y0415201D03*
X0499123Y0415301D03*
X0518023Y0423801D03*
X0525923Y0407701D03*
X0532723Y0398501D03*
X0532823Y0398301D03*
X0532923Y0398101D03*
X0533023Y0397901D03*
X0533123Y0397701D03*
X0533223Y0397501D03*
X0531423Y0392301D03*
X0535323Y0384601D03*
X0535323Y0384501D03*
X0535323Y0384401D03*
X0535323Y0384301D03*
X0535323Y0384201D03*
X0535323Y0384101D03*
X0535223Y0383801D03*
X0535223Y0383701D03*
X0535223Y0383601D03*
X0530023Y0380901D03*
X0522823Y0375701D03*
X0514223Y0383701D03*
D42*
X0499573Y0386601D03*
X0503673Y0400301D03*
X0511573Y0360501D03*
D43*
X0497173Y0360501D03*
X0493073Y0378101D03*
X0480573Y0386901D03*
X0514273Y0383801D03*
X0515873Y0396401D03*
X0531373Y0392201D03*
X0531973Y0399701D03*
X0531873Y0399901D03*
X0531773Y0400001D03*
X0535073Y0382601D03*
X0535073Y0382501D03*
X0534973Y0382301D03*
X0534973Y0382201D03*
X0534973Y0382101D03*
X0534873Y0381901D03*
X0534873Y0381801D03*
X0534873Y0381701D03*
X0534773Y0381401D03*
X0502173Y0413701D03*
X0501973Y0413801D03*
X0501773Y0413901D03*
X0501573Y0414001D03*
X0501373Y0414101D03*
X0512573Y0426801D03*
X0512773Y0426901D03*
X0528373Y0425101D03*
D44*
X0521123Y0392301D03*
X0511723Y0360601D03*
D45*
X0511823Y0360701D03*
X0521223Y0392001D03*
X0503423Y0400101D03*
D46*
X0515973Y0396001D03*
X0525673Y0407501D03*
X0528273Y0409801D03*
X0530473Y0401701D03*
X0530573Y0401601D03*
X0530673Y0401501D03*
X0529973Y0381701D03*
X0529973Y0381601D03*
X0533973Y0378901D03*
X0533873Y0378701D03*
X0498173Y0367401D03*
X0497073Y0360701D03*
X0480873Y0387401D03*
X0504773Y0412601D03*
X0509973Y0420401D03*
X0509973Y0420501D03*
X0509873Y0420701D03*
X0509673Y0421301D03*
X0509573Y0421601D03*
X0509573Y0421701D03*
X0509473Y0421801D03*
X0509473Y0421901D03*
X0506773Y0431401D03*
X0506673Y0431501D03*
X0528073Y0425001D03*
D47*
X0503123Y0399901D03*
X0499323Y0386901D03*
X0521223Y0391801D03*
X0512023Y0360801D03*
D48*
X0497023Y0360801D03*
X0493123Y0377501D03*
X0485623Y0382901D03*
X0481023Y0387601D03*
X0497123Y0406401D03*
X0506423Y0412001D03*
X0506723Y0411901D03*
X0510123Y0420001D03*
X0509323Y0422301D03*
X0503623Y0429301D03*
X0507223Y0431001D03*
X0520823Y0430601D03*
X0514623Y0384101D03*
X0529923Y0381901D03*
X0533523Y0377801D03*
X0533423Y0377701D03*
X0533423Y0377601D03*
D49*
X0512123Y0360901D03*
X0499223Y0387001D03*
D50*
X0493173Y0377301D03*
X0497873Y0367501D03*
X0496973Y0360901D03*
X0522673Y0375801D03*
X0529873Y0382101D03*
X0533073Y0376901D03*
X0532973Y0376801D03*
X0532973Y0376701D03*
X0516073Y0395701D03*
X0507673Y0407701D03*
X0507973Y0411501D03*
X0507673Y0411601D03*
X0510273Y0419601D03*
X0509173Y0422601D03*
X0503673Y0429201D03*
X0507573Y0430701D03*
X0529473Y0402801D03*
X0529573Y0402701D03*
X0481173Y0387801D03*
D51*
X0499123Y0387101D03*
X0502723Y0399601D03*
X0512223Y0361001D03*
D52*
X0496923Y0361001D03*
X0493223Y0377201D03*
X0514823Y0384301D03*
X0532723Y0376301D03*
X0532823Y0376401D03*
X0532823Y0376501D03*
X0532923Y0376601D03*
X0497223Y0406601D03*
X0508323Y0411401D03*
X0510323Y0419501D03*
X0509123Y0422701D03*
X0507923Y0430501D03*
X0507723Y0430601D03*
X0527823Y0424901D03*
D53*
X0511873Y0371001D03*
X0512373Y0361101D03*
D54*
X0496873Y0361101D03*
X0497673Y0367601D03*
X0514873Y0384401D03*
X0532373Y0375701D03*
X0510473Y0419201D03*
X0508973Y0422901D03*
X0508573Y0430101D03*
X0508373Y0430201D03*
D55*
X0522023Y0412201D03*
X0502523Y0399501D03*
X0499023Y0387201D03*
X0512423Y0361201D03*
D56*
X0496823Y0361201D03*
X0515023Y0384501D03*
X0531923Y0375001D03*
X0532023Y0375101D03*
X0510123Y0410901D03*
X0510523Y0419001D03*
X0508823Y0423101D03*
X0509223Y0429801D03*
X0503723Y0428901D03*
X0501923Y0417101D03*
X0502023Y0417001D03*
X0497323Y0406901D03*
X0481523Y0388101D03*
D57*
X0502373Y0399401D03*
X0512573Y0361301D03*
D58*
X0496723Y0361301D03*
X0497423Y0367701D03*
X0493223Y0376601D03*
X0515123Y0384601D03*
X0516223Y0395101D03*
X0528423Y0403701D03*
X0510523Y0410801D03*
X0510623Y0418901D03*
X0503123Y0416501D03*
X0501623Y0417301D03*
X0496723Y0411601D03*
X0509623Y0429601D03*
X0522723Y0375901D03*
X0531723Y0374701D03*
D59*
X0512673Y0361401D03*
X0502273Y0399301D03*
D60*
X0497473Y0407201D03*
X0501273Y0417601D03*
X0510673Y0418701D03*
X0511373Y0410601D03*
X0527973Y0404001D03*
X0516273Y0395001D03*
X0531273Y0374201D03*
X0496673Y0361401D03*
X0493273Y0376401D03*
X0510673Y0429201D03*
X0510373Y0429301D03*
D61*
X0502073Y0399201D03*
X0512773Y0361501D03*
D62*
X0496573Y0361501D03*
X0493273Y0376201D03*
X0481873Y0388301D03*
X0497473Y0407301D03*
X0500973Y0417801D03*
X0510773Y0418601D03*
X0511273Y0429001D03*
X0525073Y0407101D03*
X0515273Y0384801D03*
X0531073Y0373901D03*
D63*
X0512873Y0361601D03*
D64*
X0496523Y0361601D03*
X0493323Y0375901D03*
X0493323Y0376001D03*
X0515423Y0384901D03*
X0516423Y0394601D03*
X0527523Y0404301D03*
X0512823Y0410301D03*
X0500623Y0418101D03*
X0497523Y0407501D03*
X0490423Y0406701D03*
X0511823Y0428801D03*
X0530823Y0373601D03*
X0530723Y0373501D03*
D65*
X0513023Y0361701D03*
D66*
X0496473Y0361701D03*
X0530573Y0373301D03*
X0530673Y0373401D03*
X0490673Y0406901D03*
X0490573Y0406801D03*
X0490373Y0406601D03*
X0500573Y0418201D03*
X0512173Y0428701D03*
D67*
X0521573Y0412401D03*
X0501773Y0399001D03*
X0498573Y0387601D03*
X0513073Y0361801D03*
D68*
X0496423Y0361801D03*
X0486323Y0376801D03*
X0486123Y0377001D03*
X0486123Y0377101D03*
X0490223Y0406301D03*
X0511023Y0418301D03*
X0512523Y0428601D03*
X0527123Y0404501D03*
X0522723Y0376101D03*
X0530223Y0373001D03*
D69*
X0513173Y0361901D03*
D70*
X0513323Y0362001D03*
X0498423Y0387701D03*
X0501423Y0398801D03*
D71*
X0496673Y0411101D03*
X0489973Y0405801D03*
X0489973Y0405701D03*
X0487273Y0402301D03*
X0499973Y0418801D03*
X0500573Y0422201D03*
X0500673Y0422301D03*
X0514473Y0410001D03*
X0520373Y0430901D03*
X0485973Y0377901D03*
X0485973Y0377801D03*
X0486673Y0376401D03*
X0496273Y0362001D03*
D72*
X0513373Y0362101D03*
D73*
X0522723Y0376201D03*
X0529623Y0372401D03*
X0529723Y0372501D03*
X0496223Y0362101D03*
X0485923Y0378001D03*
X0485923Y0378101D03*
X0485923Y0382301D03*
X0489823Y0405501D03*
X0489923Y0405601D03*
X0508623Y0407301D03*
X0500723Y0422401D03*
X0526723Y0404701D03*
D74*
X0521373Y0412501D03*
X0513473Y0362201D03*
D75*
X0496123Y0362201D03*
X0485823Y0378301D03*
X0487423Y0402401D03*
X0489723Y0405301D03*
X0496723Y0411001D03*
X0500923Y0422701D03*
X0501023Y0422801D03*
D76*
X0501073Y0398601D03*
X0498173Y0387901D03*
X0513573Y0362301D03*
D77*
X0496073Y0362301D03*
X0486873Y0376101D03*
X0485773Y0378701D03*
X0485773Y0378801D03*
X0487673Y0402501D03*
X0489573Y0405001D03*
X0496673Y0410901D03*
X0501173Y0423001D03*
X0529173Y0372101D03*
D78*
X0513623Y0362401D03*
D79*
X0496023Y0362401D03*
X0486923Y0376001D03*
X0485923Y0382101D03*
X0489523Y0404801D03*
X0489523Y0404901D03*
X0501323Y0423101D03*
X0520223Y0431001D03*
D80*
X0498023Y0388001D03*
X0513823Y0362601D03*
X0513723Y0362501D03*
D81*
X0495973Y0362501D03*
X0485673Y0379301D03*
X0485673Y0379401D03*
X0488073Y0402701D03*
X0489373Y0404501D03*
X0496673Y0410801D03*
X0501473Y0423201D03*
X0522773Y0408901D03*
D82*
X0516023Y0409801D03*
X0504323Y0427901D03*
X0489323Y0404401D03*
X0489323Y0404301D03*
X0522723Y0376401D03*
X0495923Y0362601D03*
D83*
X0513923Y0362701D03*
X0500723Y0398401D03*
D84*
X0489223Y0404101D03*
X0489123Y0403901D03*
X0485923Y0381801D03*
X0485623Y0379801D03*
X0485623Y0379701D03*
X0495823Y0362701D03*
X0520023Y0431101D03*
D85*
X0520973Y0412701D03*
X0522673Y0385001D03*
X0513973Y0362801D03*
D86*
X0522723Y0376501D03*
X0528423Y0371601D03*
X0495723Y0362801D03*
X0485623Y0380001D03*
X0485823Y0381501D03*
X0485923Y0381601D03*
X0485923Y0381701D03*
X0489023Y0403701D03*
X0509123Y0407101D03*
X0525823Y0404901D03*
D87*
X0522723Y0391701D03*
X0522723Y0391601D03*
X0522723Y0391501D03*
X0522723Y0385201D03*
X0522723Y0385101D03*
X0500523Y0398301D03*
X0497823Y0388101D03*
X0514023Y0362901D03*
D88*
X0514123Y0363001D03*
X0522723Y0385601D03*
X0522723Y0385701D03*
X0522723Y0391001D03*
X0522723Y0391101D03*
X0522723Y0391201D03*
X0522723Y0391301D03*
X0522723Y0391401D03*
D89*
X0528273Y0371501D03*
X0495673Y0363001D03*
X0491773Y0366201D03*
X0491173Y0366801D03*
X0485573Y0380501D03*
X0485573Y0380901D03*
X0485573Y0381001D03*
X0485673Y0381101D03*
X0485673Y0381201D03*
X0488673Y0403101D03*
X0488773Y0403201D03*
X0488873Y0403301D03*
X0488873Y0403401D03*
D90*
X0500373Y0398201D03*
X0522673Y0390901D03*
X0522673Y0390801D03*
X0522673Y0386201D03*
X0522673Y0386101D03*
X0522673Y0386001D03*
X0522673Y0385901D03*
X0522673Y0385801D03*
X0514173Y0363101D03*
D91*
X0528073Y0371401D03*
X0495573Y0363101D03*
X0492173Y0365901D03*
X0491073Y0367001D03*
X0491073Y0367101D03*
X0522673Y0400101D03*
X0516073Y0427801D03*
D92*
X0520823Y0412801D03*
X0522723Y0390701D03*
X0522723Y0390601D03*
X0522723Y0390501D03*
X0522723Y0390401D03*
X0522723Y0390301D03*
X0522723Y0390201D03*
X0522723Y0390101D03*
X0522723Y0390001D03*
X0522723Y0389901D03*
X0522723Y0387101D03*
X0522723Y0387001D03*
X0522723Y0386901D03*
X0522723Y0386801D03*
X0522723Y0386701D03*
X0522723Y0386601D03*
X0522723Y0386501D03*
X0522723Y0386401D03*
X0522723Y0386301D03*
X0514323Y0363201D03*
X0497623Y0388201D03*
D93*
X0496723Y0410501D03*
X0504523Y0427601D03*
X0491023Y0367201D03*
X0492323Y0365801D03*
X0495523Y0363201D03*
D94*
X0514373Y0363301D03*
X0522773Y0387201D03*
X0522773Y0387301D03*
X0522773Y0387401D03*
X0522773Y0387501D03*
X0522773Y0387601D03*
X0522773Y0389501D03*
X0522773Y0389601D03*
X0522773Y0389701D03*
X0522773Y0389801D03*
X0500173Y0398101D03*
D95*
X0496773Y0410401D03*
X0522673Y0400001D03*
X0527873Y0371301D03*
X0495473Y0363301D03*
X0492873Y0365401D03*
X0490873Y0367501D03*
X0515473Y0433201D03*
D96*
X0499973Y0398001D03*
X0514473Y0363401D03*
D97*
X0495423Y0363401D03*
X0493223Y0365201D03*
X0493023Y0365301D03*
X0490823Y0367601D03*
X0525023Y0395601D03*
X0525023Y0395701D03*
X0504623Y0427501D03*
X0515423Y0433301D03*
X0515423Y0433401D03*
X0519023Y0431501D03*
D98*
X0520623Y0412901D03*
X0497423Y0388301D03*
X0514523Y0363501D03*
D99*
X0527623Y0371201D03*
X0524823Y0395401D03*
X0525023Y0395801D03*
X0525023Y0395901D03*
X0522723Y0399901D03*
X0522323Y0426401D03*
X0515823Y0433001D03*
X0490823Y0367701D03*
X0493523Y0365001D03*
X0495323Y0363501D03*
D100*
X0514573Y0363601D03*
D101*
X0495273Y0363601D03*
X0493673Y0364901D03*
X0524673Y0395201D03*
X0524773Y0395301D03*
X0496773Y0410301D03*
X0504773Y0427401D03*
X0518573Y0431701D03*
D102*
X0520473Y0413001D03*
X0499773Y0397901D03*
X0514673Y0363701D03*
D103*
X0522723Y0376901D03*
X0524623Y0395101D03*
X0525023Y0396001D03*
X0495223Y0363701D03*
X0493823Y0364801D03*
X0518323Y0431801D03*
X0516223Y0432801D03*
X0516023Y0432901D03*
D104*
X0514723Y0363801D03*
D105*
X0514773Y0363901D03*
D106*
X0522573Y0377101D03*
X0524273Y0394701D03*
X0524373Y0394801D03*
X0524973Y0396301D03*
X0522773Y0399701D03*
X0522473Y0426501D03*
X0516973Y0432401D03*
X0495073Y0363901D03*
D107*
X0514873Y0364001D03*
X0520273Y0413101D03*
D108*
X0522323Y0409001D03*
X0524923Y0396401D03*
X0524223Y0394601D03*
X0495023Y0364001D03*
X0494523Y0364401D03*
D109*
X0514923Y0364101D03*
X0515023Y0364201D03*
D110*
X0522423Y0377301D03*
X0524923Y0396601D03*
X0523123Y0399401D03*
X0517723Y0409701D03*
X0509923Y0406901D03*
X0496823Y0410101D03*
X0504923Y0427201D03*
X0494823Y0364201D03*
X0494923Y0364101D03*
D111*
X0515073Y0364301D03*
X0496973Y0388401D03*
X0499373Y0397701D03*
D112*
X0522873Y0399601D03*
X0522973Y0399501D03*
X0524973Y0396501D03*
X0524173Y0394501D03*
X0524073Y0394401D03*
X0522473Y0377201D03*
X0494673Y0364301D03*
D113*
X0515173Y0364401D03*
D114*
X0515223Y0364501D03*
X0499123Y0397601D03*
X0520123Y0413201D03*
D115*
X0515273Y0364601D03*
D116*
X0515323Y0364701D03*
D117*
X0522673Y0377001D03*
X0524573Y0395001D03*
X0524973Y0396101D03*
X0493973Y0364701D03*
X0518073Y0431901D03*
X0517873Y0432001D03*
X0516373Y0432701D03*
D118*
X0519973Y0413301D03*
X0498873Y0397501D03*
X0515373Y0364801D03*
D119*
X0515423Y0364901D03*
D120*
X0515523Y0365001D03*
X0519823Y0413401D03*
D121*
X0498673Y0397401D03*
X0515573Y0365101D03*
D122*
X0522773Y0376801D03*
X0524973Y0395501D03*
X0509573Y0407001D03*
X0518773Y0431601D03*
X0515673Y0433101D03*
X0515373Y0433501D03*
X0515373Y0433601D03*
X0493373Y0365101D03*
D123*
X0515623Y0365201D03*
D124*
X0515673Y0365301D03*
D125*
X0515723Y0365401D03*
X0516423Y0406801D03*
D126*
X0519673Y0413501D03*
X0498373Y0397301D03*
X0515773Y0365501D03*
D127*
X0492723Y0365501D03*
X0490923Y0367401D03*
D128*
X0515823Y0365601D03*
X0516423Y0406701D03*
D129*
X0522273Y0426301D03*
X0519273Y0431401D03*
X0522773Y0376701D03*
X0492573Y0365601D03*
X0492473Y0365701D03*
X0490973Y0367301D03*
D130*
X0515923Y0365701D03*
X0516423Y0406601D03*
X0519523Y0413601D03*
D131*
X0515973Y0365801D03*
D132*
X0515973Y0365901D03*
X0519373Y0413701D03*
X0519673Y0417701D03*
X0519673Y0417801D03*
D133*
X0519623Y0417601D03*
X0516423Y0406401D03*
X0516023Y0366001D03*
D134*
X0522723Y0376601D03*
X0492023Y0366001D03*
X0491923Y0366101D03*
X0491123Y0366901D03*
X0485523Y0380601D03*
X0485523Y0380701D03*
X0485523Y0380801D03*
X0523923Y0411301D03*
X0519523Y0431301D03*
D135*
X0519573Y0417501D03*
X0516073Y0366101D03*
D136*
X0516123Y0366201D03*
X0516423Y0406301D03*
X0519223Y0413801D03*
X0519523Y0417401D03*
D137*
X0519473Y0417301D03*
X0497773Y0397101D03*
X0516173Y0366301D03*
D138*
X0516223Y0366401D03*
X0516423Y0406201D03*
X0519423Y0417201D03*
D139*
X0522673Y0400201D03*
X0488973Y0403601D03*
X0488573Y0403001D03*
X0485773Y0381401D03*
X0485573Y0380201D03*
X0485573Y0380101D03*
X0491273Y0366601D03*
X0491373Y0366501D03*
X0491473Y0366401D03*
D140*
X0516273Y0366501D03*
X0519373Y0417101D03*
D141*
X0519323Y0417001D03*
X0519123Y0413901D03*
X0516423Y0406101D03*
X0516323Y0366601D03*
D142*
X0516373Y0366701D03*
X0519273Y0416901D03*
D143*
X0518973Y0414001D03*
X0516373Y0406001D03*
X0516373Y0366801D03*
D144*
X0516423Y0366901D03*
X0516423Y0367001D03*
X0516423Y0405901D03*
X0519123Y0416701D03*
D145*
X0517873Y0424701D03*
X0517373Y0425401D03*
X0517373Y0425501D03*
X0517373Y0425601D03*
X0517373Y0425701D03*
X0526673Y0428501D03*
X0519873Y0437901D03*
X0519873Y0438001D03*
X0519873Y0438101D03*
X0519873Y0438201D03*
X0519973Y0438301D03*
X0519973Y0438401D03*
X0519973Y0438501D03*
X0519973Y0438601D03*
X0519973Y0438701D03*
X0520073Y0438901D03*
X0520073Y0439001D03*
X0520073Y0439101D03*
X0516473Y0436201D03*
X0516373Y0435701D03*
X0516273Y0435201D03*
X0516173Y0434801D03*
X0516173Y0434701D03*
X0516073Y0434401D03*
X0516073Y0434301D03*
X0516073Y0434201D03*
X0506973Y0421501D03*
X0506973Y0421401D03*
X0506973Y0421301D03*
X0496473Y0405201D03*
X0515673Y0397201D03*
X0513773Y0383201D03*
X0529973Y0379901D03*
X0529973Y0379801D03*
X0531873Y0393001D03*
X0499373Y0366901D03*
X0492873Y0379201D03*
X0481273Y0377301D03*
X0481173Y0377501D03*
X0479773Y0384201D03*
X0479773Y0384301D03*
X0479773Y0384401D03*
D146*
X0480023Y0385401D03*
X0480023Y0385501D03*
X0481723Y0376501D03*
X0481823Y0376301D03*
X0492923Y0378901D03*
X0499123Y0367001D03*
X0530023Y0380201D03*
X0497223Y0412601D03*
X0497523Y0416401D03*
X0503623Y0430101D03*
X0519123Y0433901D03*
X0519123Y0434001D03*
X0519123Y0434101D03*
X0519223Y0434501D03*
X0526623Y0428301D03*
X0528723Y0425301D03*
D147*
X0497373Y0397001D03*
X0516473Y0367101D03*
D148*
X0516523Y0367201D03*
X0518823Y0414101D03*
X0519023Y0416601D03*
D149*
X0500973Y0414301D03*
X0500773Y0414401D03*
X0500573Y0414501D03*
X0500373Y0414601D03*
X0500173Y0414701D03*
X0503573Y0429801D03*
X0506673Y0431901D03*
X0532373Y0399101D03*
X0532473Y0398901D03*
X0532573Y0398801D03*
X0532573Y0398701D03*
X0532673Y0398601D03*
X0532773Y0398401D03*
X0535273Y0384001D03*
X0535273Y0383901D03*
X0535173Y0383501D03*
X0535173Y0383401D03*
X0535173Y0383301D03*
X0535173Y0383201D03*
X0535173Y0383101D03*
X0529973Y0381001D03*
X0515773Y0396501D03*
X0498673Y0367201D03*
X0480473Y0386701D03*
D150*
X0516373Y0405801D03*
X0516573Y0367301D03*
D151*
X0498423Y0367301D03*
X0485623Y0383001D03*
X0480623Y0387001D03*
X0496923Y0406001D03*
X0502423Y0413601D03*
X0502623Y0413501D03*
X0520623Y0424801D03*
X0506623Y0431801D03*
X0531523Y0400401D03*
X0531623Y0400301D03*
X0531623Y0400201D03*
X0531723Y0400101D03*
X0531323Y0392101D03*
X0534923Y0382001D03*
X0534823Y0381601D03*
X0534823Y0381501D03*
X0534723Y0381301D03*
X0534723Y0381201D03*
X0534723Y0381101D03*
X0534623Y0380901D03*
X0534623Y0380801D03*
X0530023Y0381201D03*
D152*
X0516623Y0367401D03*
D153*
X0516673Y0367501D03*
X0516373Y0405701D03*
X0518673Y0414201D03*
X0518873Y0416501D03*
D154*
X0518573Y0414301D03*
X0516373Y0405601D03*
X0516673Y0367601D03*
D155*
X0516723Y0367701D03*
D156*
X0516773Y0367801D03*
X0516373Y0405501D03*
D157*
X0524723Y0419001D03*
X0506123Y0426301D03*
X0506023Y0426201D03*
X0501423Y0384001D03*
X0509423Y0372301D03*
X0492923Y0367801D03*
X0525223Y0382601D03*
X0525523Y0383401D03*
X0525523Y0383501D03*
D158*
X0516823Y0368001D03*
X0516823Y0367901D03*
X0516323Y0405401D03*
D159*
X0516323Y0405301D03*
X0496723Y0396901D03*
X0516823Y0368101D03*
D160*
X0524923Y0382201D03*
X0525023Y0382301D03*
X0525523Y0383701D03*
X0525523Y0383801D03*
X0501323Y0384201D03*
X0492823Y0368101D03*
X0524623Y0418801D03*
X0506323Y0426501D03*
X0506223Y0426401D03*
D161*
X0516873Y0368201D03*
D162*
X0525473Y0383901D03*
X0501273Y0384301D03*
X0492673Y0368301D03*
X0492773Y0368201D03*
X0506473Y0426601D03*
D163*
X0518323Y0414501D03*
X0516923Y0368301D03*
D164*
X0516973Y0368401D03*
X0516273Y0405201D03*
D165*
X0518223Y0414601D03*
X0517023Y0368601D03*
X0517023Y0368501D03*
D166*
X0509773Y0372001D03*
X0501073Y0384501D03*
X0492473Y0368701D03*
X0492573Y0368501D03*
X0525473Y0384101D03*
D167*
X0517023Y0368701D03*
D168*
X0517073Y0368801D03*
X0516273Y0405001D03*
X0518073Y0414701D03*
D169*
X0524523Y0418601D03*
X0525423Y0384301D03*
X0525423Y0384201D03*
X0501023Y0384601D03*
X0492323Y0368901D03*
X0492423Y0368801D03*
D170*
X0517123Y0368901D03*
D171*
X0517173Y0369001D03*
X0517973Y0414801D03*
D172*
X0517123Y0369101D03*
D173*
X0517173Y0369201D03*
X0517873Y0414901D03*
D174*
X0524323Y0418501D03*
X0525423Y0384501D03*
X0525423Y0384401D03*
X0510023Y0371801D03*
X0500923Y0384801D03*
X0492123Y0369301D03*
X0492223Y0369201D03*
D175*
X0517223Y0369301D03*
D176*
X0517273Y0369401D03*
X0517273Y0369501D03*
D177*
X0525373Y0384601D03*
X0525373Y0384701D03*
X0500873Y0384901D03*
X0491973Y0369601D03*
X0492073Y0369501D03*
X0492073Y0369401D03*
D178*
X0517273Y0369601D03*
D179*
X0517323Y0369701D03*
X0517323Y0369801D03*
D180*
X0510173Y0371701D03*
X0500673Y0385101D03*
X0491673Y0370201D03*
X0491773Y0370001D03*
X0491873Y0369801D03*
X0525373Y0384801D03*
X0525373Y0384901D03*
X0523373Y0411701D03*
X0524273Y0418401D03*
D181*
X0517323Y0369901D03*
D182*
X0517373Y0370001D03*
D183*
X0517423Y0370101D03*
X0517423Y0370201D03*
X0517523Y0415201D03*
D184*
X0517423Y0415301D03*
X0494323Y0393401D03*
X0494223Y0393001D03*
X0517423Y0370301D03*
D185*
X0517473Y0370401D03*
X0517473Y0370501D03*
X0493673Y0389701D03*
X0493673Y0389801D03*
X0493673Y0389901D03*
X0493673Y0390001D03*
X0493773Y0390501D03*
X0493773Y0390601D03*
X0493773Y0390701D03*
X0493873Y0391201D03*
X0493873Y0391301D03*
X0493873Y0391401D03*
X0493873Y0391501D03*
X0493973Y0391801D03*
X0493973Y0391901D03*
X0493973Y0392001D03*
X0494073Y0392301D03*
X0494073Y0392401D03*
X0494073Y0392501D03*
X0494173Y0392701D03*
X0494173Y0392801D03*
X0494173Y0392901D03*
X0494273Y0393101D03*
X0494273Y0393201D03*
X0494273Y0393301D03*
X0494373Y0393501D03*
X0494373Y0393601D03*
X0494373Y0393701D03*
X0494473Y0393801D03*
X0494473Y0393901D03*
X0494473Y0394001D03*
X0494573Y0394201D03*
X0494573Y0394301D03*
X0494573Y0394401D03*
X0494673Y0394501D03*
X0494673Y0394601D03*
X0494673Y0394701D03*
X0494773Y0394901D03*
X0494773Y0395001D03*
X0494873Y0395201D03*
D186*
X0500573Y0385301D03*
X0491473Y0370601D03*
X0491573Y0370401D03*
X0507273Y0402801D03*
X0507473Y0402901D03*
X0507573Y0403001D03*
X0507773Y0403101D03*
X0507873Y0403201D03*
X0508073Y0403301D03*
D187*
X0495423Y0396701D03*
X0495323Y0396401D03*
X0495223Y0396201D03*
X0495123Y0396001D03*
X0495123Y0395901D03*
X0495023Y0395801D03*
X0495023Y0395701D03*
X0495023Y0395601D03*
X0494923Y0395501D03*
X0494923Y0395401D03*
X0494923Y0395301D03*
X0494823Y0395101D03*
X0494723Y0394801D03*
X0494523Y0394101D03*
X0494123Y0392601D03*
X0494023Y0392201D03*
X0494023Y0392101D03*
X0493923Y0391701D03*
X0493923Y0391601D03*
X0493823Y0391101D03*
X0493823Y0391001D03*
X0493823Y0390901D03*
X0493823Y0390801D03*
X0493723Y0390401D03*
X0493723Y0390301D03*
X0493723Y0390201D03*
X0493723Y0390101D03*
X0493623Y0389601D03*
X0493623Y0389501D03*
X0493623Y0389401D03*
X0493623Y0389301D03*
X0493623Y0389201D03*
X0493623Y0389101D03*
X0493623Y0389001D03*
X0493623Y0388901D03*
X0493623Y0388801D03*
X0493623Y0388701D03*
X0493623Y0388601D03*
X0493623Y0388501D03*
X0517523Y0370601D03*
X0517323Y0415401D03*
D188*
X0517223Y0415501D03*
X0517523Y0370801D03*
X0517523Y0370701D03*
D189*
X0517573Y0370901D03*
D190*
X0522173Y0377701D03*
X0521773Y0380801D03*
X0522973Y0382001D03*
X0526873Y0371001D03*
X0524873Y0397001D03*
X0524873Y0397101D03*
X0523973Y0398501D03*
X0523873Y0398601D03*
X0523773Y0398701D03*
X0522473Y0426701D03*
D191*
X0503573Y0400201D03*
X0499473Y0386701D03*
X0511473Y0371101D03*
X0521173Y0392101D03*
X0521173Y0392201D03*
D192*
X0521073Y0392701D03*
X0521073Y0392801D03*
X0504273Y0400701D03*
X0511173Y0371201D03*
X0520073Y0427301D03*
D193*
X0520073Y0427501D03*
X0510173Y0404501D03*
X0504873Y0401101D03*
X0499973Y0386101D03*
X0510873Y0371301D03*
X0520973Y0393301D03*
D194*
X0509023Y0403901D03*
X0506423Y0402201D03*
X0506123Y0402001D03*
X0524023Y0418201D03*
X0500423Y0385501D03*
X0489123Y0375101D03*
X0489123Y0375001D03*
X0489223Y0374901D03*
X0489323Y0374701D03*
X0489423Y0374501D03*
X0490823Y0371901D03*
X0490923Y0371701D03*
X0491023Y0371501D03*
X0491123Y0371301D03*
X0510523Y0371501D03*
D195*
X0510673Y0371401D03*
X0500273Y0385701D03*
X0500173Y0385801D03*
X0505573Y0401601D03*
X0505673Y0401701D03*
X0509573Y0404201D03*
X0509773Y0404301D03*
X0521173Y0394201D03*
X0521073Y0393901D03*
X0520973Y0393701D03*
X0523873Y0418101D03*
D196*
X0509173Y0404001D03*
X0505973Y0401901D03*
X0500373Y0385601D03*
X0489273Y0374801D03*
X0489373Y0374601D03*
X0489473Y0374401D03*
X0489573Y0374201D03*
X0489673Y0374001D03*
X0489773Y0373901D03*
X0489773Y0373801D03*
X0490173Y0373101D03*
X0490273Y0372901D03*
X0490373Y0372701D03*
X0490473Y0372501D03*
X0490573Y0372401D03*
X0490573Y0372301D03*
X0490673Y0372201D03*
X0490673Y0372101D03*
X0490773Y0372001D03*
X0490873Y0371801D03*
X0490973Y0371601D03*
D197*
X0485573Y0379901D03*
X0488373Y0402901D03*
X0489073Y0403801D03*
X0489173Y0404001D03*
X0496673Y0410701D03*
X0504373Y0427801D03*
X0515473Y0427901D03*
X0528573Y0371701D03*
D198*
X0528773Y0371801D03*
X0522673Y0400301D03*
X0489273Y0404201D03*
X0488173Y0402801D03*
X0485973Y0381901D03*
X0485673Y0379601D03*
X0485673Y0379501D03*
X0514673Y0433701D03*
D199*
X0489423Y0404601D03*
X0485923Y0382001D03*
X0485723Y0379201D03*
X0485723Y0379101D03*
X0487023Y0375901D03*
X0528923Y0371901D03*
D200*
X0529073Y0372001D03*
X0522673Y0400401D03*
X0524273Y0406901D03*
X0508873Y0407201D03*
X0489473Y0404701D03*
X0487873Y0402601D03*
X0485773Y0379001D03*
X0485773Y0378901D03*
X0504273Y0428001D03*
X0514973Y0428001D03*
X0521773Y0426101D03*
D201*
X0514423Y0428101D03*
X0504123Y0428101D03*
X0489623Y0405101D03*
X0485823Y0378601D03*
X0485823Y0378501D03*
X0522723Y0376301D03*
X0529323Y0372201D03*
D202*
X0529473Y0372301D03*
X0522673Y0400501D03*
X0526473Y0404801D03*
X0515173Y0409901D03*
X0501073Y0422901D03*
X0489673Y0405201D03*
X0485873Y0382201D03*
X0485873Y0378401D03*
X0486773Y0376201D03*
D203*
X0489873Y0375401D03*
X0501673Y0383701D03*
X0509173Y0372501D03*
X0525473Y0383001D03*
X0524873Y0419201D03*
X0505373Y0425301D03*
X0505273Y0425201D03*
X0505273Y0425101D03*
X0505173Y0425001D03*
X0505073Y0424801D03*
X0504973Y0424601D03*
X0504873Y0424401D03*
X0504773Y0424201D03*
X0504773Y0424101D03*
X0504673Y0424001D03*
X0504673Y0423901D03*
X0504573Y0423801D03*
X0504573Y0423701D03*
X0504573Y0423601D03*
X0504473Y0423301D03*
D204*
X0500523Y0422101D03*
X0499923Y0419301D03*
X0499923Y0419201D03*
X0499923Y0419101D03*
X0499923Y0419001D03*
X0499923Y0418901D03*
X0504023Y0428301D03*
X0513623Y0428301D03*
X0514323Y0433801D03*
X0490023Y0405901D03*
X0486023Y0377701D03*
X0486023Y0377601D03*
X0522723Y0400601D03*
X0529823Y0372601D03*
D205*
X0509073Y0372601D03*
X0508973Y0372701D03*
X0501873Y0383301D03*
X0501773Y0383401D03*
X0489773Y0375701D03*
X0489773Y0375601D03*
X0524973Y0419401D03*
D206*
X0523873Y0411201D03*
X0526873Y0404601D03*
X0511173Y0418201D03*
X0500073Y0418701D03*
X0499873Y0419401D03*
X0500373Y0421701D03*
X0500373Y0421801D03*
X0500473Y0421901D03*
X0500473Y0422001D03*
X0513273Y0428401D03*
X0491673Y0407501D03*
X0490073Y0406001D03*
X0487073Y0402201D03*
X0486573Y0376501D03*
X0529973Y0372701D03*
D207*
X0530173Y0372901D03*
X0490173Y0406201D03*
X0491473Y0407401D03*
X0496673Y0411201D03*
X0500273Y0418501D03*
X0499973Y0420201D03*
X0499973Y0420301D03*
X0499973Y0420401D03*
X0500073Y0420701D03*
X0500073Y0420801D03*
X0500173Y0421101D03*
X0500173Y0421201D03*
X0503973Y0428401D03*
X0513873Y0410101D03*
X0486873Y0402101D03*
X0486073Y0377301D03*
X0486073Y0377201D03*
X0486373Y0376701D03*
D208*
X0502023Y0383101D03*
X0508723Y0372901D03*
X0525123Y0419701D03*
D209*
X0525173Y0419801D03*
X0502073Y0383001D03*
X0508673Y0373001D03*
D210*
X0530373Y0373101D03*
X0516473Y0394401D03*
X0491273Y0407301D03*
X0491073Y0407201D03*
X0490273Y0406401D03*
X0500473Y0418301D03*
X0500373Y0418401D03*
X0520473Y0430801D03*
X0486173Y0376901D03*
D211*
X0502273Y0382701D03*
X0508473Y0373201D03*
X0508573Y0373101D03*
D212*
X0530423Y0373201D03*
X0516423Y0394501D03*
X0522723Y0400701D03*
X0527323Y0404401D03*
X0513323Y0410201D03*
X0508323Y0407401D03*
X0510923Y0418401D03*
X0503923Y0428501D03*
X0496723Y0411301D03*
X0490923Y0407101D03*
X0490823Y0407001D03*
X0490323Y0406501D03*
X0486723Y0402001D03*
X0485823Y0382501D03*
D213*
X0502323Y0382601D03*
X0502423Y0382501D03*
X0508423Y0373301D03*
X0525223Y0420101D03*
D214*
X0525273Y0420201D03*
X0525273Y0420301D03*
X0502473Y0382401D03*
X0508273Y0373401D03*
D215*
X0493323Y0376101D03*
X0485723Y0382601D03*
X0516323Y0394801D03*
X0527823Y0404101D03*
X0512323Y0410401D03*
X0500923Y0417901D03*
X0497523Y0407401D03*
X0514223Y0433901D03*
X0531023Y0373801D03*
X0530923Y0373701D03*
D216*
X0521223Y0379301D03*
X0521223Y0379501D03*
X0508023Y0373701D03*
X0502823Y0381801D03*
X0502723Y0381901D03*
X0523623Y0411501D03*
D217*
X0525373Y0420701D03*
X0525373Y0420801D03*
X0525373Y0420901D03*
X0495573Y0408501D03*
X0494873Y0407901D03*
X0494773Y0407801D03*
X0494673Y0407701D03*
X0494573Y0407601D03*
X0502873Y0381701D03*
X0507873Y0373901D03*
X0507973Y0373801D03*
X0521273Y0379201D03*
X0521273Y0379601D03*
D218*
X0531123Y0374001D03*
X0531223Y0374101D03*
X0516323Y0394901D03*
X0522723Y0400801D03*
X0511823Y0410501D03*
X0508123Y0407501D03*
X0496723Y0411501D03*
X0501123Y0417701D03*
X0503823Y0428701D03*
X0510923Y0429101D03*
X0493323Y0376301D03*
D219*
X0503023Y0381401D03*
X0503023Y0381501D03*
X0502923Y0381601D03*
X0507723Y0374101D03*
X0507823Y0374001D03*
X0521323Y0379101D03*
X0521423Y0379001D03*
X0521323Y0379701D03*
X0495723Y0408601D03*
X0495823Y0408701D03*
X0495923Y0408801D03*
X0495423Y0408401D03*
X0495323Y0408301D03*
X0495223Y0408201D03*
X0495123Y0408101D03*
X0495023Y0408001D03*
X0525423Y0421001D03*
D220*
X0520623Y0430701D03*
X0510123Y0429401D03*
X0501323Y0417501D03*
X0497423Y0407101D03*
X0486223Y0401801D03*
X0485723Y0382701D03*
X0515223Y0384701D03*
X0531423Y0374301D03*
X0528123Y0403901D03*
D221*
X0528273Y0403801D03*
X0510973Y0410701D03*
X0510673Y0418801D03*
X0508673Y0423201D03*
X0509873Y0429501D03*
X0503773Y0428801D03*
X0501573Y0417401D03*
X0527373Y0424801D03*
X0481673Y0388201D03*
X0493273Y0376501D03*
X0531473Y0374401D03*
X0531573Y0374501D03*
X0531573Y0374601D03*
D222*
X0521573Y0378701D03*
X0521473Y0380001D03*
X0507473Y0374401D03*
X0507373Y0374501D03*
X0503373Y0380801D03*
X0503373Y0380901D03*
X0503273Y0381001D03*
X0496773Y0409501D03*
X0496873Y0409601D03*
X0525373Y0421501D03*
D223*
X0525423Y0421601D03*
X0525423Y0421701D03*
X0525423Y0421801D03*
X0505323Y0426801D03*
X0503423Y0380701D03*
X0503523Y0380601D03*
X0507223Y0374701D03*
X0507323Y0374601D03*
X0521623Y0378601D03*
D224*
X0531773Y0374801D03*
X0531873Y0374901D03*
X0516173Y0395201D03*
X0528573Y0403601D03*
X0525273Y0407201D03*
X0501773Y0417201D03*
X0497373Y0407001D03*
X0485973Y0401701D03*
X0493273Y0376701D03*
X0509373Y0429701D03*
D225*
X0525373Y0422001D03*
X0525373Y0421901D03*
X0496873Y0409701D03*
X0503573Y0380501D03*
X0503673Y0380301D03*
X0507073Y0374901D03*
X0507173Y0374801D03*
X0521673Y0378501D03*
X0521473Y0380101D03*
D226*
X0521523Y0380201D03*
X0521723Y0378401D03*
X0507023Y0375001D03*
X0506923Y0375101D03*
X0506923Y0375201D03*
X0506823Y0375301D03*
X0503823Y0380101D03*
X0503723Y0380201D03*
X0503623Y0380401D03*
X0525323Y0422101D03*
X0522423Y0426901D03*
D227*
X0508973Y0429901D03*
X0508773Y0430001D03*
X0510473Y0419101D03*
X0502773Y0416601D03*
X0502573Y0416701D03*
X0502373Y0416801D03*
X0502173Y0416901D03*
X0496773Y0411701D03*
X0507873Y0407601D03*
X0509373Y0411101D03*
X0509773Y0411001D03*
X0522673Y0400901D03*
X0528673Y0403501D03*
X0516173Y0395301D03*
X0532173Y0375401D03*
X0532073Y0375201D03*
X0493273Y0376801D03*
D228*
X0493223Y0376901D03*
X0485723Y0382801D03*
X0481423Y0388001D03*
X0497323Y0406801D03*
X0508923Y0423001D03*
X0503723Y0429001D03*
X0528823Y0403401D03*
X0528923Y0403301D03*
X0516123Y0395401D03*
X0532323Y0375601D03*
X0532223Y0375501D03*
X0532123Y0375301D03*
D229*
X0525423Y0382901D03*
X0525523Y0383101D03*
X0525523Y0383201D03*
X0525523Y0383301D03*
X0501523Y0383801D03*
X0489923Y0375301D03*
X0524823Y0419101D03*
X0505723Y0425801D03*
X0505623Y0425701D03*
X0505523Y0425601D03*
X0505523Y0425501D03*
X0505423Y0425401D03*
X0504523Y0423501D03*
X0504523Y0423401D03*
D230*
X0498273Y0415801D03*
X0497973Y0416001D03*
X0507073Y0408001D03*
X0515773Y0396701D03*
X0522573Y0401101D03*
X0533873Y0396001D03*
X0533973Y0395801D03*
X0533973Y0395701D03*
X0534073Y0395501D03*
X0534073Y0395401D03*
X0534173Y0395201D03*
X0534173Y0395101D03*
X0534273Y0395001D03*
X0534273Y0394901D03*
X0534273Y0394801D03*
X0534373Y0394701D03*
X0534373Y0394601D03*
X0534373Y0394501D03*
X0534473Y0394301D03*
X0534473Y0394201D03*
X0534573Y0394001D03*
X0534573Y0393901D03*
X0534673Y0393701D03*
X0534673Y0393601D03*
X0534673Y0393501D03*
X0534773Y0393301D03*
X0534773Y0393201D03*
X0534773Y0393101D03*
X0534873Y0392901D03*
X0534873Y0392801D03*
X0534973Y0392401D03*
X0534973Y0392301D03*
X0534973Y0392201D03*
X0535073Y0391901D03*
X0535073Y0391801D03*
X0535073Y0391701D03*
X0535173Y0391501D03*
X0535173Y0391401D03*
X0535173Y0391301D03*
X0535173Y0391201D03*
X0535173Y0391101D03*
X0535273Y0390901D03*
X0535273Y0390801D03*
X0535273Y0390701D03*
X0535273Y0390601D03*
X0535273Y0390501D03*
X0535373Y0390301D03*
X0535373Y0390201D03*
X0535373Y0390101D03*
X0535373Y0390001D03*
X0535373Y0389901D03*
X0535373Y0389801D03*
X0535373Y0389701D03*
X0535373Y0389601D03*
X0535373Y0389501D03*
X0535473Y0389301D03*
X0535473Y0389201D03*
X0535473Y0389101D03*
X0535473Y0389001D03*
X0535473Y0388901D03*
X0535473Y0388801D03*
X0535473Y0388701D03*
X0535473Y0388601D03*
X0535473Y0388501D03*
X0535473Y0388401D03*
X0535473Y0388301D03*
X0535473Y0388201D03*
X0535473Y0388101D03*
X0535473Y0388001D03*
X0535473Y0387901D03*
X0535473Y0387801D03*
X0535473Y0387701D03*
X0535473Y0387601D03*
X0535473Y0387501D03*
X0535473Y0387401D03*
X0535473Y0387301D03*
X0535473Y0387201D03*
X0535473Y0387101D03*
X0535473Y0387001D03*
X0535473Y0386901D03*
X0535473Y0386801D03*
X0535473Y0386701D03*
X0535473Y0386601D03*
X0535473Y0386501D03*
X0531573Y0392501D03*
X0525973Y0407801D03*
X0528573Y0425201D03*
X0519373Y0425901D03*
X0519273Y0426001D03*
X0517973Y0424101D03*
X0480273Y0386201D03*
X0482473Y0375301D03*
D231*
X0503873Y0380001D03*
X0503973Y0379901D03*
X0503973Y0379801D03*
X0506673Y0375501D03*
X0506773Y0375401D03*
X0521773Y0378301D03*
X0521573Y0380301D03*
X0525373Y0422201D03*
X0525373Y0422301D03*
X0525373Y0422401D03*
X0505273Y0426901D03*
D232*
X0496923Y0409801D03*
X0525323Y0422501D03*
X0525323Y0422601D03*
X0525223Y0422901D03*
X0521623Y0380401D03*
X0521823Y0378201D03*
X0506623Y0375601D03*
X0506523Y0375701D03*
X0506423Y0375801D03*
X0506323Y0376001D03*
X0504323Y0379201D03*
X0504223Y0379401D03*
X0504123Y0379501D03*
X0504123Y0379601D03*
X0504023Y0379701D03*
D233*
X0492973Y0378701D03*
X0482273Y0375601D03*
X0482173Y0375701D03*
X0480173Y0385901D03*
X0497173Y0412501D03*
X0497673Y0416201D03*
X0503573Y0430001D03*
X0517873Y0424401D03*
X0518173Y0422801D03*
X0520073Y0424901D03*
X0519973Y0425001D03*
X0519873Y0425201D03*
X0519773Y0425301D03*
X0519773Y0425401D03*
X0519673Y0425501D03*
X0526573Y0428201D03*
X0515773Y0396801D03*
D234*
X0516123Y0395501D03*
X0529023Y0403201D03*
X0529123Y0403101D03*
X0525423Y0407301D03*
X0509023Y0411201D03*
X0508723Y0411301D03*
X0510423Y0419301D03*
X0508223Y0430301D03*
X0496823Y0411801D03*
X0497223Y0406701D03*
X0485723Y0401601D03*
X0493223Y0377001D03*
X0532423Y0375801D03*
X0532523Y0375901D03*
X0532523Y0376001D03*
X0532623Y0376101D03*
D235*
X0530023Y0380401D03*
X0531623Y0392601D03*
X0519923Y0425101D03*
X0480123Y0385801D03*
X0482023Y0376001D03*
X0482123Y0375801D03*
D236*
X0504273Y0379301D03*
X0504373Y0379101D03*
X0504473Y0379001D03*
X0504573Y0378801D03*
X0506073Y0376401D03*
X0506173Y0376201D03*
X0506273Y0376101D03*
X0506373Y0375901D03*
X0521873Y0378101D03*
X0521673Y0380501D03*
X0525273Y0422701D03*
X0525273Y0422801D03*
X0525173Y0423001D03*
X0525173Y0423101D03*
X0525173Y0423201D03*
X0522473Y0426801D03*
D237*
X0511573Y0428901D03*
X0503873Y0428601D03*
X0500773Y0418001D03*
X0510873Y0418501D03*
X0496673Y0411401D03*
X0486473Y0401901D03*
X0516373Y0394701D03*
X0527673Y0404201D03*
X0522673Y0376001D03*
D238*
X0532673Y0376201D03*
X0516073Y0395601D03*
X0529273Y0403001D03*
X0529373Y0402901D03*
X0510373Y0419401D03*
X0509073Y0422801D03*
X0508073Y0430401D03*
X0503673Y0429101D03*
X0514573Y0434001D03*
X0481273Y0387901D03*
X0493173Y0377101D03*
D239*
X0504523Y0378901D03*
X0504623Y0378701D03*
X0504723Y0378601D03*
X0504723Y0378501D03*
X0504823Y0378401D03*
X0504923Y0378201D03*
X0505123Y0377901D03*
X0505223Y0377701D03*
X0505423Y0377401D03*
X0505623Y0377101D03*
X0505723Y0376901D03*
X0505823Y0376801D03*
X0505923Y0376601D03*
X0506023Y0376501D03*
X0506123Y0376301D03*
X0521923Y0378001D03*
X0521723Y0380601D03*
X0524823Y0397301D03*
X0524623Y0397601D03*
X0525123Y0423301D03*
X0525123Y0423401D03*
X0525023Y0423601D03*
D240*
X0513973Y0428201D03*
X0504073Y0428201D03*
X0500873Y0422601D03*
X0500773Y0422501D03*
X0511273Y0418101D03*
X0489773Y0405401D03*
X0485873Y0378201D03*
X0486773Y0376301D03*
D241*
X0481773Y0376401D03*
X0481673Y0376601D03*
X0485473Y0383101D03*
X0479973Y0385201D03*
X0479973Y0385301D03*
X0496573Y0405401D03*
X0497373Y0416501D03*
X0506973Y0432301D03*
X0519173Y0434201D03*
X0519173Y0434301D03*
X0519173Y0434401D03*
X0519273Y0434601D03*
X0519273Y0434701D03*
X0519273Y0434801D03*
X0519273Y0434901D03*
X0517873Y0424601D03*
X0518173Y0422601D03*
X0529273Y0410001D03*
X0531773Y0392801D03*
X0515673Y0397001D03*
D242*
X0515673Y0397101D03*
X0526173Y0408001D03*
X0528873Y0425401D03*
X0519373Y0435301D03*
X0519473Y0435701D03*
X0519473Y0435801D03*
X0519473Y0435901D03*
X0519573Y0436201D03*
X0519573Y0436301D03*
X0519573Y0436401D03*
X0519573Y0436501D03*
X0519673Y0436701D03*
X0519673Y0436801D03*
X0519673Y0436901D03*
X0497273Y0416601D03*
X0497273Y0412701D03*
X0496573Y0405301D03*
X0479873Y0384901D03*
X0479873Y0384801D03*
X0481373Y0377101D03*
X0481473Y0376901D03*
X0481849Y0370046D03*
X0529973Y0380001D03*
D243*
X0529923Y0382001D03*
X0533223Y0377201D03*
X0533123Y0377101D03*
X0533123Y0377001D03*
X0514723Y0384201D03*
X0516023Y0395801D03*
X0529723Y0402601D03*
X0507323Y0411701D03*
X0510223Y0419701D03*
X0509223Y0422501D03*
X0507423Y0430801D03*
X0507323Y0430901D03*
X0496823Y0411901D03*
X0497123Y0406501D03*
D244*
X0497223Y0416701D03*
X0503623Y0430301D03*
X0507023Y0432401D03*
X0519623Y0436601D03*
X0519723Y0437001D03*
X0519723Y0437101D03*
X0519723Y0437201D03*
X0519723Y0437301D03*
X0519823Y0437401D03*
X0519823Y0437501D03*
X0519823Y0437601D03*
X0519823Y0437701D03*
X0519823Y0437801D03*
X0518223Y0422501D03*
X0531823Y0392901D03*
X0479823Y0384701D03*
X0479823Y0384601D03*
X0479823Y0384501D03*
X0481223Y0377401D03*
X0481323Y0377201D03*
D245*
X0493173Y0377401D03*
X0481073Y0387701D03*
X0506973Y0411801D03*
X0510173Y0419801D03*
X0510173Y0419901D03*
X0509273Y0422401D03*
X0525573Y0407401D03*
X0529773Y0402501D03*
X0529873Y0402401D03*
X0529973Y0402301D03*
X0533373Y0377501D03*
X0533273Y0377401D03*
X0533273Y0377301D03*
D246*
X0522373Y0377401D03*
X0523173Y0399301D03*
D247*
X0523473Y0399001D03*
X0523573Y0398901D03*
X0523673Y0398801D03*
X0524873Y0396901D03*
X0522373Y0381501D03*
X0522273Y0381401D03*
X0522173Y0381301D03*
X0522073Y0381201D03*
X0521873Y0381001D03*
X0522273Y0377501D03*
X0496873Y0410001D03*
D248*
X0505023Y0427101D03*
X0523123Y0382101D03*
X0522823Y0381901D03*
X0522723Y0381801D03*
X0522623Y0381701D03*
X0522523Y0381601D03*
X0521823Y0380901D03*
X0522223Y0377601D03*
D249*
X0533723Y0378301D03*
X0533823Y0378501D03*
X0533823Y0378601D03*
X0533923Y0378801D03*
X0531123Y0391801D03*
X0530423Y0401801D03*
X0530323Y0401901D03*
X0505623Y0412301D03*
X0505323Y0412401D03*
X0510023Y0420301D03*
X0509423Y0422001D03*
X0503623Y0429401D03*
X0506823Y0431301D03*
X0497123Y0406301D03*
X0480923Y0387501D03*
X0493123Y0377701D03*
X0493123Y0377601D03*
D250*
X0522023Y0377901D03*
X0522123Y0377801D03*
X0524323Y0398001D03*
X0524223Y0398201D03*
X0524123Y0398301D03*
X0524023Y0398401D03*
X0523723Y0411401D03*
X0524723Y0424401D03*
X0524623Y0424601D03*
D251*
X0513223Y0427101D03*
X0509623Y0421501D03*
X0509623Y0421401D03*
X0509723Y0421201D03*
X0509723Y0421101D03*
X0509823Y0421001D03*
X0509823Y0420901D03*
X0509823Y0420801D03*
X0509923Y0420601D03*
X0505023Y0412501D03*
X0504523Y0412701D03*
X0507423Y0407801D03*
X0497023Y0406201D03*
X0496923Y0412101D03*
X0506623Y0431601D03*
X0515923Y0396101D03*
X0514523Y0384001D03*
X0534023Y0379101D03*
X0534023Y0379001D03*
X0534123Y0379201D03*
X0534123Y0379301D03*
X0534223Y0379501D03*
X0493123Y0377801D03*
X0480823Y0387301D03*
D252*
X0481073Y0377801D03*
X0513673Y0383101D03*
X0529973Y0379701D03*
X0531973Y0393101D03*
X0526173Y0408101D03*
X0506873Y0421701D03*
X0517273Y0425901D03*
X0526673Y0428601D03*
X0520173Y0439601D03*
X0520273Y0440001D03*
X0520273Y0440101D03*
X0520273Y0440201D03*
X0517473Y0440801D03*
X0517473Y0440901D03*
X0517473Y0441001D03*
X0517473Y0441101D03*
X0517573Y0441301D03*
X0517573Y0441401D03*
X0517573Y0441501D03*
X0517573Y0441601D03*
X0517673Y0441701D03*
X0517673Y0441801D03*
X0517673Y0441901D03*
X0517673Y0442001D03*
X0517773Y0442101D03*
X0517773Y0442201D03*
X0517773Y0442301D03*
X0517773Y0442401D03*
X0517773Y0442501D03*
X0517873Y0442701D03*
X0517873Y0442801D03*
X0517873Y0442901D03*
X0517973Y0443201D03*
X0517973Y0443301D03*
X0517973Y0443401D03*
X0518073Y0443701D03*
X0518073Y0443801D03*
X0518273Y0444701D03*
X0517373Y0440501D03*
X0517373Y0440401D03*
X0517373Y0440301D03*
X0517273Y0440001D03*
X0517273Y0439901D03*
X0517173Y0439501D03*
X0517073Y0439101D03*
X0517073Y0439001D03*
X0516973Y0438601D03*
X0516973Y0438501D03*
X0516773Y0437601D03*
X0516673Y0437101D03*
X0497373Y0412801D03*
D253*
X0496873Y0412001D03*
X0505873Y0412201D03*
X0506173Y0412101D03*
X0510073Y0420101D03*
X0510073Y0420201D03*
X0509373Y0422101D03*
X0509373Y0422201D03*
X0507073Y0431101D03*
X0506973Y0431201D03*
X0526073Y0427801D03*
X0530073Y0402201D03*
X0530173Y0402101D03*
X0530273Y0402001D03*
X0522673Y0401001D03*
X0515973Y0395901D03*
X0529973Y0381801D03*
X0533773Y0378401D03*
X0533673Y0378201D03*
X0533673Y0378101D03*
X0533573Y0378001D03*
X0533573Y0377901D03*
X0485273Y0401501D03*
D254*
X0496423Y0405101D03*
X0506723Y0408201D03*
X0497023Y0416901D03*
X0507223Y0432601D03*
X0517823Y0442601D03*
X0517923Y0443001D03*
X0517923Y0443101D03*
X0518023Y0443501D03*
X0518023Y0443601D03*
X0518123Y0443901D03*
X0518123Y0444001D03*
X0518123Y0444101D03*
X0518123Y0444201D03*
X0518223Y0444301D03*
X0518223Y0444401D03*
X0518223Y0444501D03*
X0518223Y0444601D03*
X0518323Y0444801D03*
X0518323Y0444901D03*
X0518323Y0445001D03*
X0518323Y0445101D03*
X0518423Y0445201D03*
X0518423Y0445301D03*
X0518423Y0445401D03*
X0518423Y0445501D03*
X0518523Y0445701D03*
X0518523Y0445801D03*
X0518523Y0445901D03*
X0518623Y0446301D03*
X0518723Y0446701D03*
X0518723Y0446801D03*
X0518823Y0447201D03*
X0520323Y0440301D03*
X0529023Y0425501D03*
X0515623Y0397301D03*
X0529923Y0379601D03*
X0481023Y0378001D03*
X0481023Y0377901D03*
X0479723Y0383401D03*
X0479723Y0383501D03*
X0479723Y0383601D03*
X0479723Y0383701D03*
X0479723Y0383801D03*
D255*
X0480673Y0387101D03*
X0493073Y0378001D03*
X0515873Y0396301D03*
X0525773Y0407601D03*
X0531373Y0400601D03*
X0531473Y0400501D03*
X0529973Y0381301D03*
X0534473Y0380401D03*
X0534573Y0380601D03*
X0534573Y0380701D03*
X0534673Y0381001D03*
X0503573Y0413101D03*
X0503073Y0413301D03*
X0502873Y0413401D03*
X0496973Y0412201D03*
X0503573Y0429601D03*
X0512973Y0427001D03*
X0526273Y0427901D03*
D256*
X0526673Y0428701D03*
X0517273Y0426001D03*
X0507073Y0421001D03*
X0515573Y0397401D03*
X0532073Y0393201D03*
X0492773Y0379401D03*
X0480973Y0378101D03*
X0518473Y0445601D03*
X0518573Y0446001D03*
X0518573Y0446101D03*
X0518573Y0446201D03*
X0518673Y0446401D03*
X0518673Y0446501D03*
X0518673Y0446601D03*
X0518773Y0446901D03*
X0518773Y0447001D03*
X0518773Y0447101D03*
X0518873Y0447301D03*
X0518873Y0447401D03*
X0518873Y0447501D03*
D257*
X0526423Y0428001D03*
X0512423Y0426701D03*
X0503623Y0429701D03*
X0501223Y0414201D03*
X0497023Y0412301D03*
X0496923Y0405901D03*
X0507223Y0407901D03*
X0531923Y0399801D03*
X0532023Y0399601D03*
X0532123Y0399501D03*
X0532223Y0399401D03*
X0532223Y0399301D03*
X0532323Y0399201D03*
X0532423Y0399001D03*
X0535123Y0383001D03*
X0535123Y0382901D03*
X0535123Y0382801D03*
X0535123Y0382701D03*
X0535023Y0382401D03*
X0530023Y0381101D03*
X0493023Y0378201D03*
X0480523Y0386801D03*
D258*
X0480373Y0386501D03*
X0492973Y0378401D03*
X0515773Y0396601D03*
X0531473Y0392401D03*
X0533673Y0396501D03*
X0533573Y0396701D03*
X0533373Y0397201D03*
X0533273Y0397301D03*
X0533273Y0397401D03*
X0533173Y0397601D03*
X0533073Y0397801D03*
X0532973Y0398001D03*
X0532873Y0398201D03*
X0535373Y0385401D03*
X0535373Y0385301D03*
X0535373Y0385201D03*
X0535373Y0385101D03*
X0535373Y0385001D03*
X0535373Y0384901D03*
X0535373Y0384801D03*
X0535373Y0384701D03*
X0499473Y0415101D03*
X0498973Y0415401D03*
X0498773Y0415501D03*
X0497073Y0412401D03*
X0518073Y0423301D03*
X0518073Y0423401D03*
X0518073Y0423501D03*
X0518073Y0423601D03*
X0518073Y0423701D03*
X0517973Y0423901D03*
D259*
X0518023Y0424001D03*
X0518123Y0423201D03*
X0518123Y0423101D03*
X0518123Y0423001D03*
X0526523Y0428101D03*
X0506723Y0432001D03*
X0503623Y0429901D03*
X0498423Y0415701D03*
X0498623Y0415601D03*
X0496823Y0405701D03*
X0480323Y0386401D03*
X0480323Y0386301D03*
X0493023Y0378501D03*
X0514123Y0383601D03*
X0530023Y0380801D03*
X0530023Y0380701D03*
X0535423Y0385501D03*
X0535423Y0385601D03*
X0535423Y0385701D03*
X0535423Y0385801D03*
X0535423Y0385901D03*
X0535423Y0386001D03*
X0535423Y0386101D03*
X0535423Y0386201D03*
X0535423Y0386301D03*
X0535423Y0386401D03*
X0535423Y0389401D03*
X0535323Y0390401D03*
X0534123Y0395301D03*
X0534023Y0395601D03*
X0533923Y0395901D03*
X0533823Y0396101D03*
X0533823Y0396201D03*
X0533723Y0396301D03*
X0533723Y0396401D03*
X0533623Y0396601D03*
X0533523Y0396801D03*
X0533523Y0396901D03*
X0533423Y0397001D03*
X0533423Y0397101D03*
X0528923Y0409901D03*
D260*
X0525423Y0421301D03*
X0525423Y0421401D03*
X0496623Y0409401D03*
X0496523Y0409301D03*
X0503223Y0381101D03*
X0521423Y0379901D03*
X0521523Y0378801D03*
D261*
X0529973Y0381501D03*
X0534273Y0379801D03*
X0534273Y0379701D03*
X0534273Y0379601D03*
X0534173Y0379401D03*
X0534373Y0380001D03*
X0531173Y0391901D03*
X0530973Y0401201D03*
X0530873Y0401301D03*
X0530773Y0401401D03*
X0504273Y0412801D03*
X0504073Y0412901D03*
X0503573Y0429501D03*
D262*
X0522173Y0427101D03*
X0525373Y0420601D03*
X0525373Y0420501D03*
X0521173Y0379401D03*
X0502673Y0382001D03*
D263*
X0521923Y0381101D03*
X0524923Y0396701D03*
X0524923Y0396801D03*
X0523423Y0399101D03*
X0523323Y0399201D03*
X0522523Y0426601D03*
D264*
X0522673Y0385501D03*
X0522673Y0385401D03*
X0522673Y0385301D03*
D265*
X0520973Y0393501D03*
X0520973Y0393601D03*
X0509973Y0404401D03*
X0505273Y0401401D03*
X0500073Y0385901D03*
X0520173Y0427601D03*
D266*
X0504423Y0400801D03*
X0499823Y0386301D03*
X0521023Y0392901D03*
X0521023Y0393001D03*
D267*
X0521123Y0392501D03*
X0521123Y0392401D03*
X0510823Y0404801D03*
X0503823Y0400401D03*
X0499623Y0386501D03*
X0521523Y0409601D03*
X0522523Y0412001D03*
D268*
X0503273Y0400001D03*
X0499373Y0386801D03*
X0521173Y0391901D03*
D269*
X0498923Y0387301D03*
D270*
X0498823Y0387401D03*
X0521823Y0412301D03*
D271*
X0501923Y0399101D03*
X0498723Y0387501D03*
D272*
X0522723Y0387701D03*
X0522723Y0387801D03*
X0522723Y0387901D03*
X0522723Y0388001D03*
X0522723Y0388101D03*
X0522723Y0388201D03*
X0522723Y0388301D03*
X0522723Y0388401D03*
X0522723Y0388501D03*
X0522723Y0388601D03*
X0522723Y0388701D03*
X0522723Y0388801D03*
X0522723Y0388901D03*
X0522723Y0389001D03*
X0522723Y0389101D03*
X0522723Y0389201D03*
X0522723Y0389301D03*
X0522723Y0389401D03*
D273*
X0501223Y0398701D03*
X0498323Y0387801D03*
D274*
X0495173Y0396101D03*
X0495273Y0396301D03*
X0495373Y0396501D03*
X0495373Y0396601D03*
X0495473Y0396801D03*
D275*
X0498123Y0397201D03*
X0516423Y0406501D03*
X0519723Y0417901D03*
X0519723Y0418001D03*
D276*
X0499523Y0397801D03*
D277*
X0500873Y0398501D03*
X0521173Y0412601D03*
D278*
X0501623Y0398901D03*
D279*
X0502873Y0399701D03*
D280*
X0502973Y0399801D03*
X0511373Y0404901D03*
X0522273Y0412101D03*
D281*
X0516273Y0405101D03*
D282*
X0518473Y0414401D03*
D283*
X0517723Y0415001D03*
D284*
X0517673Y0415101D03*
D285*
X0517073Y0415601D03*
D286*
X0516973Y0415701D03*
D287*
X0516873Y0415801D03*
D288*
X0516773Y0415901D03*
D289*
X0516673Y0416001D03*
D290*
X0516573Y0416101D03*
D291*
X0516473Y0416201D03*
D292*
X0516373Y0416301D03*
D293*
X0516273Y0416401D03*
D294*
X0519223Y0416801D03*
D295*
X0525023Y0419501D03*
D296*
X0373688Y0311693D02*
X0373688Y0309331D01*
X0368963Y0309331D02*
X0368963Y0311693D01*
X0365420Y0313858D02*
X0365420Y0316220D01*
X0360696Y0316220D02*
X0360696Y0313858D01*
X0334121Y0318780D02*
X0331759Y0318780D01*
X0331759Y0323504D02*
X0334121Y0323504D01*
X0334121Y0326850D02*
X0331759Y0326850D01*
X0331759Y0331575D02*
X0334121Y0331575D01*
X0321916Y0312480D02*
X0321916Y0310118D01*
X0317192Y0310118D02*
X0317192Y0312480D01*
X0309711Y0304803D02*
X0309711Y0302441D01*
X0304987Y0302441D02*
X0304987Y0304803D01*
X0303806Y0270354D02*
X0303806Y0267992D01*
X0306955Y0267992D02*
X0306955Y0270354D01*
X0311680Y0270354D02*
X0311680Y0267992D01*
X0299081Y0267992D02*
X0299081Y0270354D01*
X0352231Y0256575D02*
X0352231Y0254213D01*
X0356955Y0254213D02*
X0356955Y0256575D01*
X0361089Y0261102D02*
X0361089Y0263465D01*
X0365814Y0263465D02*
X0365814Y0261102D01*
D297*
X0367401Y0261191D02*
X0367401Y0260691D01*
X0367652Y0260440D01*
X0368652Y0261441D01*
X0367652Y0261441D01*
X0367401Y0261191D01*
X0367652Y0261914D02*
X0368652Y0262915D01*
X0367652Y0262915D01*
X0367401Y0262664D01*
X0367401Y0262164D01*
X0367652Y0261914D01*
X0368652Y0261914D01*
X0368903Y0262164D01*
X0368903Y0262664D01*
X0368652Y0262915D01*
X0368402Y0263387D02*
X0368402Y0264138D01*
X0368152Y0264388D01*
X0367401Y0264388D01*
X0367401Y0264860D02*
X0368903Y0264860D01*
X0368903Y0265861D01*
X0368152Y0265361D02*
X0368152Y0264860D01*
X0368402Y0263387D02*
X0367401Y0263387D01*
X0368652Y0261441D02*
X0368903Y0261191D01*
X0368903Y0260691D01*
X0368652Y0260440D01*
X0367652Y0260440D01*
X0367401Y0259968D02*
X0367401Y0258967D01*
X0367401Y0259468D02*
X0368903Y0259468D01*
X0368402Y0258967D01*
X0360044Y0258971D02*
X0360044Y0257970D01*
X0358543Y0257970D01*
X0358543Y0257498D02*
X0359544Y0257498D01*
X0359294Y0257970D02*
X0359294Y0258471D01*
X0358543Y0257498D02*
X0358543Y0256747D01*
X0358793Y0256497D01*
X0359544Y0256497D01*
X0359544Y0256025D02*
X0359794Y0256025D01*
X0360044Y0255775D01*
X0360044Y0255274D01*
X0359794Y0255024D01*
X0359544Y0256025D02*
X0358543Y0255024D01*
X0358543Y0256025D01*
X0358543Y0254537D02*
X0358543Y0254287D01*
X0358793Y0254287D01*
X0358793Y0254537D01*
X0358543Y0254537D01*
X0358543Y0253815D02*
X0358543Y0252814D01*
X0359544Y0253815D01*
X0359794Y0253815D01*
X0360044Y0253565D01*
X0360044Y0253064D01*
X0359794Y0252814D01*
X0359902Y0260914D02*
X0358902Y0260914D01*
X0358651Y0261164D01*
X0358651Y0261664D01*
X0358902Y0261915D01*
X0358651Y0262387D02*
X0359652Y0263388D01*
X0359902Y0263388D01*
X0360153Y0263138D01*
X0360153Y0262637D01*
X0359902Y0262387D01*
X0359902Y0261915D02*
X0360153Y0261664D01*
X0360153Y0261164D01*
X0359902Y0260914D01*
X0358651Y0262387D02*
X0358651Y0263388D01*
X0358651Y0263860D02*
X0359652Y0264861D01*
X0359902Y0264861D01*
X0360153Y0264611D01*
X0360153Y0264110D01*
X0359902Y0263860D01*
X0358651Y0263860D02*
X0358651Y0264861D01*
X0351294Y0257971D02*
X0351044Y0257971D01*
X0350043Y0256970D01*
X0349793Y0256970D01*
X0349793Y0256498D02*
X0349793Y0255497D01*
X0349793Y0255998D02*
X0351294Y0255998D01*
X0350794Y0255497D01*
X0351044Y0255025D02*
X0351294Y0254775D01*
X0351294Y0254274D01*
X0351044Y0254024D01*
X0350043Y0254024D01*
X0349793Y0254274D01*
X0349793Y0254775D01*
X0350043Y0255025D01*
X0351294Y0256970D02*
X0351294Y0257971D01*
X0314769Y0266357D02*
X0313268Y0266357D01*
X0313268Y0265857D02*
X0313268Y0266858D01*
X0313518Y0267330D02*
X0314519Y0268331D01*
X0313518Y0268331D01*
X0313268Y0268081D01*
X0313268Y0267580D01*
X0313518Y0267330D01*
X0314519Y0267330D01*
X0314769Y0267580D01*
X0314769Y0268081D01*
X0314519Y0268331D01*
X0314519Y0268803D02*
X0314769Y0269054D01*
X0314769Y0269554D01*
X0314519Y0269804D01*
X0313518Y0268803D01*
X0313268Y0269054D01*
X0313268Y0269554D01*
X0313518Y0269804D01*
X0314519Y0269804D01*
X0314268Y0270277D02*
X0314268Y0271027D01*
X0314018Y0271278D01*
X0313268Y0271278D01*
X0313268Y0271750D02*
X0314769Y0271750D01*
X0314769Y0272751D01*
X0314018Y0272250D02*
X0314018Y0271750D01*
X0314268Y0270277D02*
X0313268Y0270277D01*
X0313518Y0268803D02*
X0314519Y0268803D01*
X0314769Y0266357D02*
X0314268Y0265857D01*
X0306895Y0266844D02*
X0306645Y0266594D01*
X0306895Y0266844D02*
X0306895Y0267344D01*
X0306645Y0267594D01*
X0306394Y0267594D01*
X0305394Y0266594D01*
X0305394Y0267594D01*
X0305769Y0267803D02*
X0304768Y0267803D01*
X0304518Y0268054D01*
X0304518Y0268554D01*
X0304768Y0268804D01*
X0304518Y0269277D02*
X0305518Y0270278D01*
X0305769Y0270278D01*
X0306019Y0270027D01*
X0306019Y0269527D01*
X0305769Y0269277D01*
X0305769Y0268804D02*
X0306019Y0268554D01*
X0306019Y0268054D01*
X0305769Y0267803D01*
X0305644Y0268067D02*
X0305644Y0268317D01*
X0305394Y0268317D01*
X0305394Y0268067D01*
X0305644Y0268067D01*
X0305394Y0268803D02*
X0306394Y0269804D01*
X0306645Y0269804D01*
X0306895Y0269554D01*
X0306895Y0269054D01*
X0306645Y0268803D01*
X0305394Y0268803D02*
X0305394Y0269804D01*
X0305644Y0270277D02*
X0305394Y0270527D01*
X0305394Y0271278D01*
X0306394Y0271278D01*
X0306019Y0271501D02*
X0305268Y0270750D01*
X0305268Y0271751D01*
X0305394Y0271750D02*
X0306895Y0271750D01*
X0306895Y0272751D01*
X0306144Y0272250D02*
X0306144Y0271750D01*
X0306019Y0271501D02*
X0304518Y0271501D01*
X0304518Y0270278D02*
X0304518Y0269277D01*
X0305644Y0270277D02*
X0306394Y0270277D01*
X0298145Y0269777D02*
X0296644Y0269777D01*
X0296644Y0269277D02*
X0296644Y0270278D01*
X0296894Y0270750D02*
X0297144Y0270750D01*
X0297394Y0271000D01*
X0297394Y0271501D01*
X0297144Y0271751D01*
X0296894Y0271751D01*
X0296644Y0271501D01*
X0296644Y0271000D01*
X0296894Y0270750D01*
X0297394Y0271000D02*
X0297644Y0270750D01*
X0297895Y0270750D01*
X0298145Y0271000D01*
X0298145Y0271501D01*
X0297895Y0271751D01*
X0297644Y0271751D01*
X0297394Y0271501D01*
X0298145Y0269777D02*
X0297644Y0269277D01*
X0297895Y0268804D02*
X0298145Y0268554D01*
X0298145Y0268054D01*
X0297895Y0267803D01*
X0296894Y0267803D01*
X0296644Y0268054D01*
X0296644Y0268554D01*
X0296894Y0268804D01*
X0301899Y0299672D02*
X0301899Y0300673D01*
X0301899Y0300172D02*
X0303400Y0300172D01*
X0302900Y0299672D01*
X0303150Y0301145D02*
X0303400Y0301396D01*
X0303400Y0301896D01*
X0303150Y0302146D01*
X0302149Y0301145D01*
X0301899Y0301396D01*
X0301899Y0301896D01*
X0302149Y0302146D01*
X0303150Y0302146D01*
X0303150Y0302619D02*
X0303400Y0302869D01*
X0303400Y0303369D01*
X0303150Y0303619D01*
X0302149Y0302619D01*
X0301899Y0302869D01*
X0301899Y0303369D01*
X0302149Y0303619D01*
X0303150Y0303619D01*
X0302900Y0304092D02*
X0302900Y0304842D01*
X0302650Y0305093D01*
X0301899Y0305093D01*
X0301899Y0305565D02*
X0303400Y0305565D01*
X0303400Y0306566D01*
X0302650Y0306065D02*
X0302650Y0305565D01*
X0302900Y0304092D02*
X0301899Y0304092D01*
X0302149Y0302619D02*
X0303150Y0302619D01*
X0303150Y0301145D02*
X0302149Y0301145D01*
X0310649Y0300922D02*
X0310649Y0301423D01*
X0310899Y0301673D01*
X0310649Y0302145D02*
X0311650Y0303146D01*
X0311900Y0303146D01*
X0312150Y0302896D01*
X0312150Y0302396D01*
X0311900Y0302145D01*
X0311900Y0301673D02*
X0312150Y0301423D01*
X0312150Y0300922D01*
X0311900Y0300672D01*
X0310899Y0300672D01*
X0310649Y0300922D01*
X0310649Y0302145D02*
X0310649Y0303146D01*
X0310899Y0303619D02*
X0310649Y0303869D01*
X0310649Y0304369D01*
X0310899Y0304619D01*
X0311149Y0304619D01*
X0311400Y0304369D01*
X0311400Y0304119D01*
X0311400Y0304369D02*
X0311650Y0304619D01*
X0311900Y0304619D01*
X0312150Y0304369D01*
X0312150Y0303869D01*
X0311900Y0303619D01*
X0315004Y0309929D02*
X0314754Y0310180D01*
X0314754Y0310680D01*
X0315004Y0310930D01*
X0314754Y0311403D02*
X0314754Y0312404D01*
X0314754Y0311903D02*
X0316255Y0311903D01*
X0315755Y0311403D01*
X0316005Y0310930D02*
X0316255Y0310680D01*
X0316255Y0310180D01*
X0316005Y0309929D01*
X0315004Y0309929D01*
X0315004Y0312876D02*
X0314754Y0313126D01*
X0314754Y0313627D01*
X0315004Y0313877D01*
X0316005Y0313877D01*
X0316255Y0313627D01*
X0316255Y0313126D01*
X0316005Y0312876D01*
X0315755Y0312876D01*
X0315504Y0313126D01*
X0315504Y0313877D01*
X0323504Y0313876D02*
X0325005Y0313876D01*
X0325005Y0314877D01*
X0324254Y0314376D02*
X0324254Y0313876D01*
X0324505Y0313404D02*
X0323504Y0313404D01*
X0323504Y0312653D01*
X0323754Y0312403D01*
X0324505Y0312403D01*
X0324755Y0311930D02*
X0323754Y0310929D01*
X0323504Y0311180D01*
X0323504Y0311680D01*
X0323754Y0311930D01*
X0324755Y0311930D01*
X0325005Y0311680D01*
X0325005Y0311180D01*
X0324755Y0310929D01*
X0323754Y0310929D01*
X0323504Y0310457D02*
X0323504Y0309456D01*
X0323504Y0309957D02*
X0325005Y0309957D01*
X0324505Y0309456D01*
X0330997Y0315692D02*
X0330997Y0317193D01*
X0329996Y0317193D01*
X0330496Y0316442D02*
X0330997Y0316442D01*
X0331469Y0316442D02*
X0331469Y0315692D01*
X0331469Y0316442D02*
X0331719Y0316693D01*
X0332470Y0316693D01*
X0332470Y0315692D01*
X0332942Y0315942D02*
X0333192Y0315692D01*
X0333693Y0315692D01*
X0333943Y0315942D01*
X0332942Y0316943D01*
X0332942Y0315942D01*
X0332942Y0316943D02*
X0333192Y0317193D01*
X0333693Y0317193D01*
X0333943Y0316943D01*
X0333943Y0315942D01*
X0334416Y0315942D02*
X0334666Y0315692D01*
X0335166Y0315692D01*
X0335416Y0315942D01*
X0334416Y0316943D01*
X0334416Y0315942D01*
X0335416Y0315942D02*
X0335416Y0316943D01*
X0335166Y0317193D01*
X0334666Y0317193D01*
X0334416Y0316943D01*
X0335889Y0315692D02*
X0336890Y0315692D01*
X0336389Y0315692D02*
X0336389Y0317193D01*
X0336890Y0316693D01*
X0336890Y0323763D02*
X0335889Y0323763D01*
X0336389Y0323763D02*
X0336389Y0325264D01*
X0336890Y0324763D01*
X0335890Y0324692D02*
X0335639Y0324442D01*
X0335139Y0324442D01*
X0334889Y0324692D01*
X0334416Y0324763D02*
X0334416Y0323763D01*
X0335166Y0323763D01*
X0335416Y0324013D01*
X0335416Y0324763D01*
X0335890Y0324692D02*
X0335890Y0325693D01*
X0335639Y0325943D01*
X0335139Y0325943D01*
X0334889Y0325693D01*
X0334416Y0325443D02*
X0333916Y0325943D01*
X0333916Y0324442D01*
X0333943Y0324513D02*
X0333443Y0324513D01*
X0333416Y0324442D02*
X0334416Y0324442D01*
X0333943Y0323763D02*
X0333943Y0325264D01*
X0332942Y0325264D01*
X0332943Y0325192D02*
X0332192Y0325192D01*
X0331942Y0324942D01*
X0331942Y0324692D01*
X0332192Y0324442D01*
X0332693Y0324442D01*
X0332943Y0324692D01*
X0332943Y0325192D01*
X0332443Y0325693D01*
X0331942Y0325943D01*
X0332192Y0332513D02*
X0332693Y0332513D01*
X0332943Y0332763D01*
X0331942Y0333764D01*
X0331942Y0332763D01*
X0332192Y0332513D01*
X0332943Y0332763D02*
X0332943Y0333764D01*
X0332693Y0334014D01*
X0332192Y0334014D01*
X0331942Y0333764D01*
X0333416Y0332513D02*
X0334416Y0332513D01*
X0333916Y0332513D02*
X0333916Y0334014D01*
X0334416Y0333513D01*
X0334889Y0333764D02*
X0335139Y0334014D01*
X0335639Y0334014D01*
X0335890Y0333764D01*
X0335890Y0332763D01*
X0335639Y0332513D01*
X0335139Y0332513D01*
X0334889Y0332763D01*
X0357608Y0316982D02*
X0359109Y0316982D01*
X0359109Y0317983D01*
X0358358Y0317483D02*
X0358358Y0316982D01*
X0358358Y0316510D02*
X0357608Y0316510D01*
X0358358Y0316510D02*
X0358609Y0316260D01*
X0358609Y0315509D01*
X0357608Y0315509D01*
X0357858Y0315037D02*
X0357608Y0314787D01*
X0357608Y0314286D01*
X0357858Y0314036D01*
X0358859Y0315037D01*
X0357858Y0315037D01*
X0358859Y0315037D02*
X0359109Y0314787D01*
X0359109Y0314286D01*
X0358859Y0314036D01*
X0357858Y0314036D01*
X0357858Y0313563D02*
X0357608Y0313313D01*
X0357608Y0312813D01*
X0357858Y0312563D01*
X0358859Y0313563D01*
X0357858Y0313563D01*
X0357858Y0312563D02*
X0358859Y0312563D01*
X0359109Y0312813D01*
X0359109Y0313313D01*
X0358859Y0313563D01*
X0357608Y0312090D02*
X0357608Y0311089D01*
X0357608Y0311590D02*
X0359109Y0311590D01*
X0358609Y0311089D01*
X0365875Y0310982D02*
X0366876Y0310982D01*
X0366876Y0311732D01*
X0366626Y0311982D01*
X0365875Y0311982D01*
X0365875Y0312455D02*
X0367377Y0312455D01*
X0367377Y0313456D01*
X0367609Y0313563D02*
X0367859Y0313813D01*
X0367859Y0314313D01*
X0367609Y0314563D01*
X0367359Y0314563D01*
X0366358Y0313563D01*
X0366358Y0314563D01*
X0366608Y0315036D02*
X0367609Y0316037D01*
X0366608Y0316037D01*
X0366358Y0315787D01*
X0366358Y0315286D01*
X0366608Y0315036D01*
X0367609Y0315036D01*
X0367859Y0315286D01*
X0367859Y0315787D01*
X0367609Y0316037D01*
X0367609Y0313090D02*
X0367859Y0312840D01*
X0367859Y0312340D01*
X0367609Y0312089D01*
X0366608Y0312089D01*
X0366358Y0312340D01*
X0366358Y0312840D01*
X0366608Y0313090D01*
X0366626Y0312955D02*
X0366626Y0312455D01*
X0366126Y0310509D02*
X0365875Y0310259D01*
X0365875Y0309759D01*
X0366126Y0309508D01*
X0367127Y0310509D01*
X0366126Y0310509D01*
X0367127Y0310509D02*
X0367377Y0310259D01*
X0367377Y0309759D01*
X0367127Y0309508D01*
X0366126Y0309508D01*
X0366126Y0309036D02*
X0365875Y0308786D01*
X0365875Y0308285D01*
X0366126Y0308035D01*
X0367127Y0309036D01*
X0366126Y0309036D01*
X0367127Y0309036D02*
X0367377Y0308786D01*
X0367377Y0308285D01*
X0367127Y0308035D01*
X0366126Y0308035D01*
X0365875Y0307563D02*
X0365875Y0306562D01*
X0365875Y0307062D02*
X0367377Y0307062D01*
X0366876Y0306562D01*
X0374625Y0307812D02*
X0374625Y0308312D01*
X0374876Y0308563D01*
X0374625Y0309035D02*
X0375626Y0310036D01*
X0375877Y0310036D01*
X0376127Y0309786D01*
X0376127Y0309285D01*
X0375877Y0309035D01*
X0375877Y0308563D02*
X0376127Y0308312D01*
X0376127Y0307812D01*
X0375877Y0307562D01*
X0374876Y0307562D01*
X0374625Y0307812D01*
X0374625Y0309035D02*
X0374625Y0310036D01*
X0374625Y0310508D02*
X0374625Y0311509D01*
X0374625Y0311009D02*
X0376127Y0311009D01*
X0375626Y0310508D01*
M02*
