%
M48
M72
T01C0.01339
T02C0.01500
T03C0.01575
T04C0.01969
T05C0.02362
T06C0.02756
T07C0.02953
T08C0.03150
T09C0.03937
T10C0.04000
T11C0.04016
T12C0.06516
T13C0.07087
T14C0.11811
T15C0.16732
%
T01
X219160Y195945
X243176Y205000
X261680Y217598
X279790Y217205
X280184Y232559
X293963Y234528
X297507Y242795
X301837Y244567
X301050Y250276
X298688Y253031
X295538Y251850
X292782Y263268
X295538Y273110
X294533Y281940
X284121Y275866
X283727Y268780
X273885Y267205
X269948Y271929
X262073Y261299
X269554Y255394
X249475Y247126
X243176Y243976
X230971Y243583
X226247Y234134
X230971Y230591
X219160Y243976
X233727Y258543
X242782Y275472
X240026Y279016
X247113Y287677
X242782Y295551
X245538Y302244
X240026Y305000
X241207Y312874
X247900Y316811
X248294Y324685
X241207Y329016
X259318Y346339
X264042Y350276
X258136Y355394
X267192Y359724
X259711Y366417
X251444Y371142
X247900Y364055
X245932Y355000
X270341Y325472
X267827Y317740
X286033Y316540
X286233Y324440
X284514Y328228
X311680Y306378
X314436Y308937
X311286Y301063
X307743Y292598
X300656Y296339
X297507Y291220
X288845Y294370
X279790Y288071
X302625Y281772
X305774Y276654
X314042Y273504
X323491Y278622
X331365Y274291
X344751Y275472
X347507Y284921
X351050Y290039
X358136Y290433
X371916Y288465
X378215Y279606
X382546Y280197
X384121Y284528
X396325Y280197
X404987Y279409
X397113Y289646
X388451Y300276
X388451Y308150
X377428Y310906
X365223Y306969
X358924Y311496
X343963Y307756
X340026Y308150
X336089Y308150
X337270Y302244
X333333Y299882
X331759Y292795
X324278Y293583
X325066Y305984
X332546Y319173
X336483Y317992
X340420Y319764
X343176Y317205
X358136Y333346
X343570Y338071
X329003Y336102
X322703Y348307
X314829Y344370
X329593Y349488
X351444Y367992
X362861Y367992
X375066Y372717
X384908Y370354
X382940Y380591
X380184Y387677
X382940Y395551
X389633Y397913
X372310Y379409
X362861Y386496
X360105Y389252
X353806Y386496
X345144Y389252
X340026Y384134
X330971Y392008
X323097Y396732
X330184Y405787
X295538Y387283
X290026Y375079
X273885Y385709
X254593Y408937
X244751Y399488
X221522Y438858
X190420Y426260
X191601Y422717
X183333Y429803
X165223Y406969
X140814Y423898
X140026Y431772
X126640Y424291
X121129Y427047
X115223Y418386
X110892Y414843
X102231Y408543
X185302Y304606
X185302Y298701
X186483Y282165
X175459Y273504
X190814Y260512
X194751Y254213
X206955Y263268
X206955Y269173
X211680Y275472
X212861Y288858
X210892Y294764
X229396Y286102
X151837Y273504
X149869Y269173
X130184Y292795
X146325Y301063
X262861Y185709
X257349Y173504
X271129Y168386
X240814Y143189
X336089Y222717
X334908Y230197
X343176Y231378
X340814Y238071
X351444Y230591
X362861Y232165
X367192Y232165
X366404Y226260
X363648Y217205
X369160Y217205
X376640Y217205
X376640Y206969
X361286Y205000
X342782Y211693
X341207Y207756
X323491Y231772
X318373Y240827
X327034Y242795
X333727Y252638
X337270Y252638
X329790Y254213
X321522Y253425
X316404Y258150
X322703Y262087
X345144Y258937
X345144Y253031
X348294Y251063
X354593Y260906
X359711Y262087
X371129Y254213
X382546Y243976
X386483Y243976
X394751Y237677
X397900Y229803
X411680Y243976
X417979Y247913
X414829Y250669
X410499Y253031
X417979Y260906
X426640Y260906
X431365Y265630
X437664Y269567
X443570Y273110
X459711Y264843
X473885Y264449
X477349Y266417
X477428Y273504
X459711Y288858
X440026Y304213
X433727Y302244
X430184Y312480
X434908Y317992
X420735Y326654
X419751Y334528
X423491Y335315
X432940Y331378
X446719Y330984
X458136Y342402
X461286Y325866
X438058Y353031
X431168Y345354
X413648Y343189
X407349Y336496
X395932Y332559
X410499Y321142
X406562Y310512
X426247Y292008
X392782Y265630
X390617Y252835
X378215Y238071
X394751Y216417
X403412Y206575
X422310Y205394
X443176Y203425
X426640Y235315
X417979Y238071
X439239Y258150
X370341Y277441
X375853Y320748
X392782Y354606
X403412Y366024
X395932Y372717
X413255Y373504
X429396Y366417
X467979Y398701
X467979Y417205
X430577Y436890
X474672Y362480
T02
X262233Y302940
T03
X285696Y263661
X284514Y242795
X267192Y212480
X169554Y189646
X119160Y239252
X95538Y343189
X291207Y394764
X374672Y334528
X473885Y381378
X408530Y241220
X382940Y217205
X270341Y110512
X110892Y91220
T04
X153018Y225472
X98294Y414055
X114042Y453031
T05
X194751Y360512
X201050Y288858
X151050Y250669
X126247Y282953
X194357Y219173
X254987Y250669
X283333Y250669
X353018Y322323
X355774Y352244
X367585Y358150
X332546Y364449
X317979Y358150
X295932Y405787
X294751Y417992
X304199Y418386
X338058Y424685
X352625Y424685
X360499Y405787
X390420Y414055
X386877Y429803
X419554Y406575
X427822Y376654
X464436Y369961
X488451Y350669
X527822Y353425
X491995Y294764
X455381Y286102
X492388Y236890
X519554Y234528
X523885Y236496
X523097Y242795
X514042Y258937
X548294Y257756
X554593Y269567
X534514Y201063
X512467Y201063
X539239Y153819
X497900Y119173
X410105Y186496
X177428Y164843
X496719Y444764
T06
X160892Y262874
T07
X408530Y99094
X503806Y99094
T08
X209318Y148307
X145932Y170748
X128215Y162874
X112467Y162874
X129396Y136890
X116404Y212087
X145932Y212087
X145932Y308543
T09
X160892Y292008
X167192Y284528
X176247Y262087
X235696Y92402
T10
X224672Y113346
X224672Y123346
X224672Y133346
X243766Y116024
X253609Y116024
X320341Y189252
X330341Y189252
X340341Y189252
X350341Y189252
X377625Y187874
X377625Y178031
X335302Y285118
X281168Y335315
X271168Y335315
X261168Y335315
X203806Y402638
X203806Y412638
X203806Y422638
X203806Y432638
X203806Y442638
X104593Y323701
X104593Y313701
X104593Y303701
X104593Y293701
X104593Y283701
X104593Y273701
X346325Y343976
X369554Y391693
X369554Y401693
X369554Y411693
X369554Y421693
X449475Y421693
X449475Y431693
X449475Y441693
X449475Y451693
X449475Y411693
X449475Y401693
X449475Y391693
X449475Y381693
X449475Y371693
X535420Y323307
X535420Y313307
X535420Y303307
X535420Y293307
X535420Y283307
X535420Y273307
T11
X338294Y433346
X328294Y433346
X318294Y433346
X308294Y433346
X298294Y433346
X288294Y433346
X278294Y433346
X268294Y433346
X258294Y433346
X248294Y433346
X248294Y443346
X258294Y443346
X268294Y443346
X278294Y443346
X288294Y443346
X298294Y443346
X308294Y443346
X318294Y443346
X328294Y443346
X338294Y443346
T12
X306562Y150079
X306562Y131969
T13
X184908Y197520
T14
X93963Y93976
X94357Y450669
X556168Y451457
X556562Y92402
T15
X363451Y115236
X363451Y143583
M30
