G75*
%MOIN*%
%OFA0B0*%
%FSLAX25Y25*%
%IPPOS*%
%LPD*%
%AMOC8*
5,1,8,0,0,1.08239X$1,22.5*
%
%ADD10C,0.00000*%
%ADD11R,0.04724X0.03150*%
%ADD12R,0.03150X0.04724*%
D10*
X0083333Y0083740D02*
X0083333Y0459331D01*
X0565617Y0459331D01*
X0565617Y0083740D01*
X0083333Y0083740D01*
X0088057Y0093976D02*
X0088059Y0094129D01*
X0088065Y0094283D01*
X0088075Y0094436D01*
X0088089Y0094588D01*
X0088107Y0094741D01*
X0088129Y0094892D01*
X0088154Y0095043D01*
X0088184Y0095194D01*
X0088218Y0095344D01*
X0088255Y0095492D01*
X0088296Y0095640D01*
X0088341Y0095786D01*
X0088390Y0095932D01*
X0088443Y0096076D01*
X0088499Y0096218D01*
X0088559Y0096359D01*
X0088623Y0096499D01*
X0088690Y0096637D01*
X0088761Y0096773D01*
X0088836Y0096907D01*
X0088913Y0097039D01*
X0088995Y0097169D01*
X0089079Y0097297D01*
X0089167Y0097423D01*
X0089258Y0097546D01*
X0089352Y0097667D01*
X0089450Y0097785D01*
X0089550Y0097901D01*
X0089654Y0098014D01*
X0089760Y0098125D01*
X0089869Y0098233D01*
X0089981Y0098338D01*
X0090095Y0098439D01*
X0090213Y0098538D01*
X0090332Y0098634D01*
X0090454Y0098727D01*
X0090579Y0098816D01*
X0090706Y0098903D01*
X0090835Y0098985D01*
X0090966Y0099065D01*
X0091099Y0099141D01*
X0091234Y0099214D01*
X0091371Y0099283D01*
X0091510Y0099348D01*
X0091650Y0099410D01*
X0091792Y0099468D01*
X0091935Y0099523D01*
X0092080Y0099574D01*
X0092226Y0099621D01*
X0092373Y0099664D01*
X0092521Y0099703D01*
X0092670Y0099739D01*
X0092820Y0099770D01*
X0092971Y0099798D01*
X0093122Y0099822D01*
X0093275Y0099842D01*
X0093427Y0099858D01*
X0093580Y0099870D01*
X0093733Y0099878D01*
X0093886Y0099882D01*
X0094040Y0099882D01*
X0094193Y0099878D01*
X0094346Y0099870D01*
X0094499Y0099858D01*
X0094651Y0099842D01*
X0094804Y0099822D01*
X0094955Y0099798D01*
X0095106Y0099770D01*
X0095256Y0099739D01*
X0095405Y0099703D01*
X0095553Y0099664D01*
X0095700Y0099621D01*
X0095846Y0099574D01*
X0095991Y0099523D01*
X0096134Y0099468D01*
X0096276Y0099410D01*
X0096416Y0099348D01*
X0096555Y0099283D01*
X0096692Y0099214D01*
X0096827Y0099141D01*
X0096960Y0099065D01*
X0097091Y0098985D01*
X0097220Y0098903D01*
X0097347Y0098816D01*
X0097472Y0098727D01*
X0097594Y0098634D01*
X0097713Y0098538D01*
X0097831Y0098439D01*
X0097945Y0098338D01*
X0098057Y0098233D01*
X0098166Y0098125D01*
X0098272Y0098014D01*
X0098376Y0097901D01*
X0098476Y0097785D01*
X0098574Y0097667D01*
X0098668Y0097546D01*
X0098759Y0097423D01*
X0098847Y0097297D01*
X0098931Y0097169D01*
X0099013Y0097039D01*
X0099090Y0096907D01*
X0099165Y0096773D01*
X0099236Y0096637D01*
X0099303Y0096499D01*
X0099367Y0096359D01*
X0099427Y0096218D01*
X0099483Y0096076D01*
X0099536Y0095932D01*
X0099585Y0095786D01*
X0099630Y0095640D01*
X0099671Y0095492D01*
X0099708Y0095344D01*
X0099742Y0095194D01*
X0099772Y0095043D01*
X0099797Y0094892D01*
X0099819Y0094741D01*
X0099837Y0094588D01*
X0099851Y0094436D01*
X0099861Y0094283D01*
X0099867Y0094129D01*
X0099869Y0093976D01*
X0099867Y0093823D01*
X0099861Y0093669D01*
X0099851Y0093516D01*
X0099837Y0093364D01*
X0099819Y0093211D01*
X0099797Y0093060D01*
X0099772Y0092909D01*
X0099742Y0092758D01*
X0099708Y0092608D01*
X0099671Y0092460D01*
X0099630Y0092312D01*
X0099585Y0092166D01*
X0099536Y0092020D01*
X0099483Y0091876D01*
X0099427Y0091734D01*
X0099367Y0091593D01*
X0099303Y0091453D01*
X0099236Y0091315D01*
X0099165Y0091179D01*
X0099090Y0091045D01*
X0099013Y0090913D01*
X0098931Y0090783D01*
X0098847Y0090655D01*
X0098759Y0090529D01*
X0098668Y0090406D01*
X0098574Y0090285D01*
X0098476Y0090167D01*
X0098376Y0090051D01*
X0098272Y0089938D01*
X0098166Y0089827D01*
X0098057Y0089719D01*
X0097945Y0089614D01*
X0097831Y0089513D01*
X0097713Y0089414D01*
X0097594Y0089318D01*
X0097472Y0089225D01*
X0097347Y0089136D01*
X0097220Y0089049D01*
X0097091Y0088967D01*
X0096960Y0088887D01*
X0096827Y0088811D01*
X0096692Y0088738D01*
X0096555Y0088669D01*
X0096416Y0088604D01*
X0096276Y0088542D01*
X0096134Y0088484D01*
X0095991Y0088429D01*
X0095846Y0088378D01*
X0095700Y0088331D01*
X0095553Y0088288D01*
X0095405Y0088249D01*
X0095256Y0088213D01*
X0095106Y0088182D01*
X0094955Y0088154D01*
X0094804Y0088130D01*
X0094651Y0088110D01*
X0094499Y0088094D01*
X0094346Y0088082D01*
X0094193Y0088074D01*
X0094040Y0088070D01*
X0093886Y0088070D01*
X0093733Y0088074D01*
X0093580Y0088082D01*
X0093427Y0088094D01*
X0093275Y0088110D01*
X0093122Y0088130D01*
X0092971Y0088154D01*
X0092820Y0088182D01*
X0092670Y0088213D01*
X0092521Y0088249D01*
X0092373Y0088288D01*
X0092226Y0088331D01*
X0092080Y0088378D01*
X0091935Y0088429D01*
X0091792Y0088484D01*
X0091650Y0088542D01*
X0091510Y0088604D01*
X0091371Y0088669D01*
X0091234Y0088738D01*
X0091099Y0088811D01*
X0090966Y0088887D01*
X0090835Y0088967D01*
X0090706Y0089049D01*
X0090579Y0089136D01*
X0090454Y0089225D01*
X0090332Y0089318D01*
X0090213Y0089414D01*
X0090095Y0089513D01*
X0089981Y0089614D01*
X0089869Y0089719D01*
X0089760Y0089827D01*
X0089654Y0089938D01*
X0089550Y0090051D01*
X0089450Y0090167D01*
X0089352Y0090285D01*
X0089258Y0090406D01*
X0089167Y0090529D01*
X0089079Y0090655D01*
X0088995Y0090783D01*
X0088913Y0090913D01*
X0088836Y0091045D01*
X0088761Y0091179D01*
X0088690Y0091315D01*
X0088623Y0091453D01*
X0088559Y0091593D01*
X0088499Y0091734D01*
X0088443Y0091876D01*
X0088390Y0092020D01*
X0088341Y0092166D01*
X0088296Y0092312D01*
X0088255Y0092460D01*
X0088218Y0092608D01*
X0088184Y0092758D01*
X0088154Y0092909D01*
X0088129Y0093060D01*
X0088107Y0093211D01*
X0088089Y0093364D01*
X0088075Y0093516D01*
X0088065Y0093669D01*
X0088059Y0093823D01*
X0088057Y0093976D01*
X0407054Y0099094D02*
X0407056Y0099171D01*
X0407062Y0099247D01*
X0407072Y0099323D01*
X0407086Y0099398D01*
X0407103Y0099473D01*
X0407125Y0099546D01*
X0407150Y0099619D01*
X0407180Y0099690D01*
X0407212Y0099759D01*
X0407249Y0099826D01*
X0407288Y0099892D01*
X0407331Y0099955D01*
X0407378Y0100016D01*
X0407427Y0100075D01*
X0407480Y0100131D01*
X0407535Y0100184D01*
X0407593Y0100234D01*
X0407653Y0100281D01*
X0407716Y0100325D01*
X0407781Y0100366D01*
X0407848Y0100403D01*
X0407917Y0100437D01*
X0407987Y0100467D01*
X0408059Y0100493D01*
X0408133Y0100515D01*
X0408207Y0100534D01*
X0408282Y0100549D01*
X0408358Y0100560D01*
X0408434Y0100567D01*
X0408511Y0100570D01*
X0408587Y0100569D01*
X0408664Y0100564D01*
X0408740Y0100555D01*
X0408816Y0100542D01*
X0408890Y0100525D01*
X0408964Y0100505D01*
X0409037Y0100480D01*
X0409108Y0100452D01*
X0409178Y0100420D01*
X0409246Y0100385D01*
X0409312Y0100346D01*
X0409376Y0100304D01*
X0409437Y0100258D01*
X0409497Y0100209D01*
X0409553Y0100158D01*
X0409607Y0100103D01*
X0409658Y0100046D01*
X0409706Y0099986D01*
X0409751Y0099924D01*
X0409792Y0099859D01*
X0409830Y0099793D01*
X0409865Y0099725D01*
X0409895Y0099654D01*
X0409923Y0099583D01*
X0409946Y0099510D01*
X0409966Y0099436D01*
X0409982Y0099361D01*
X0409994Y0099285D01*
X0410002Y0099209D01*
X0410006Y0099132D01*
X0410006Y0099056D01*
X0410002Y0098979D01*
X0409994Y0098903D01*
X0409982Y0098827D01*
X0409966Y0098752D01*
X0409946Y0098678D01*
X0409923Y0098605D01*
X0409895Y0098534D01*
X0409865Y0098463D01*
X0409830Y0098395D01*
X0409792Y0098329D01*
X0409751Y0098264D01*
X0409706Y0098202D01*
X0409658Y0098142D01*
X0409607Y0098085D01*
X0409553Y0098030D01*
X0409497Y0097979D01*
X0409437Y0097930D01*
X0409376Y0097884D01*
X0409312Y0097842D01*
X0409246Y0097803D01*
X0409178Y0097768D01*
X0409108Y0097736D01*
X0409037Y0097708D01*
X0408964Y0097683D01*
X0408890Y0097663D01*
X0408816Y0097646D01*
X0408740Y0097633D01*
X0408664Y0097624D01*
X0408587Y0097619D01*
X0408511Y0097618D01*
X0408434Y0097621D01*
X0408358Y0097628D01*
X0408282Y0097639D01*
X0408207Y0097654D01*
X0408133Y0097673D01*
X0408059Y0097695D01*
X0407987Y0097721D01*
X0407917Y0097751D01*
X0407848Y0097785D01*
X0407781Y0097822D01*
X0407716Y0097863D01*
X0407653Y0097907D01*
X0407593Y0097954D01*
X0407535Y0098004D01*
X0407480Y0098057D01*
X0407427Y0098113D01*
X0407378Y0098172D01*
X0407331Y0098233D01*
X0407288Y0098296D01*
X0407249Y0098362D01*
X0407212Y0098429D01*
X0407180Y0098498D01*
X0407150Y0098569D01*
X0407125Y0098642D01*
X0407103Y0098715D01*
X0407086Y0098790D01*
X0407072Y0098865D01*
X0407062Y0098941D01*
X0407056Y0099017D01*
X0407054Y0099094D01*
X0502330Y0099094D02*
X0502332Y0099171D01*
X0502338Y0099247D01*
X0502348Y0099323D01*
X0502362Y0099398D01*
X0502379Y0099473D01*
X0502401Y0099546D01*
X0502426Y0099619D01*
X0502456Y0099690D01*
X0502488Y0099759D01*
X0502525Y0099826D01*
X0502564Y0099892D01*
X0502607Y0099955D01*
X0502654Y0100016D01*
X0502703Y0100075D01*
X0502756Y0100131D01*
X0502811Y0100184D01*
X0502869Y0100234D01*
X0502929Y0100281D01*
X0502992Y0100325D01*
X0503057Y0100366D01*
X0503124Y0100403D01*
X0503193Y0100437D01*
X0503263Y0100467D01*
X0503335Y0100493D01*
X0503409Y0100515D01*
X0503483Y0100534D01*
X0503558Y0100549D01*
X0503634Y0100560D01*
X0503710Y0100567D01*
X0503787Y0100570D01*
X0503863Y0100569D01*
X0503940Y0100564D01*
X0504016Y0100555D01*
X0504092Y0100542D01*
X0504166Y0100525D01*
X0504240Y0100505D01*
X0504313Y0100480D01*
X0504384Y0100452D01*
X0504454Y0100420D01*
X0504522Y0100385D01*
X0504588Y0100346D01*
X0504652Y0100304D01*
X0504713Y0100258D01*
X0504773Y0100209D01*
X0504829Y0100158D01*
X0504883Y0100103D01*
X0504934Y0100046D01*
X0504982Y0099986D01*
X0505027Y0099924D01*
X0505068Y0099859D01*
X0505106Y0099793D01*
X0505141Y0099725D01*
X0505171Y0099654D01*
X0505199Y0099583D01*
X0505222Y0099510D01*
X0505242Y0099436D01*
X0505258Y0099361D01*
X0505270Y0099285D01*
X0505278Y0099209D01*
X0505282Y0099132D01*
X0505282Y0099056D01*
X0505278Y0098979D01*
X0505270Y0098903D01*
X0505258Y0098827D01*
X0505242Y0098752D01*
X0505222Y0098678D01*
X0505199Y0098605D01*
X0505171Y0098534D01*
X0505141Y0098463D01*
X0505106Y0098395D01*
X0505068Y0098329D01*
X0505027Y0098264D01*
X0504982Y0098202D01*
X0504934Y0098142D01*
X0504883Y0098085D01*
X0504829Y0098030D01*
X0504773Y0097979D01*
X0504713Y0097930D01*
X0504652Y0097884D01*
X0504588Y0097842D01*
X0504522Y0097803D01*
X0504454Y0097768D01*
X0504384Y0097736D01*
X0504313Y0097708D01*
X0504240Y0097683D01*
X0504166Y0097663D01*
X0504092Y0097646D01*
X0504016Y0097633D01*
X0503940Y0097624D01*
X0503863Y0097619D01*
X0503787Y0097618D01*
X0503710Y0097621D01*
X0503634Y0097628D01*
X0503558Y0097639D01*
X0503483Y0097654D01*
X0503409Y0097673D01*
X0503335Y0097695D01*
X0503263Y0097721D01*
X0503193Y0097751D01*
X0503124Y0097785D01*
X0503057Y0097822D01*
X0502992Y0097863D01*
X0502929Y0097907D01*
X0502869Y0097954D01*
X0502811Y0098004D01*
X0502756Y0098057D01*
X0502703Y0098113D01*
X0502654Y0098172D01*
X0502607Y0098233D01*
X0502564Y0098296D01*
X0502525Y0098362D01*
X0502488Y0098429D01*
X0502456Y0098498D01*
X0502426Y0098569D01*
X0502401Y0098642D01*
X0502379Y0098715D01*
X0502362Y0098790D01*
X0502348Y0098865D01*
X0502338Y0098941D01*
X0502332Y0099017D01*
X0502330Y0099094D01*
X0550656Y0092402D02*
X0550658Y0092555D01*
X0550664Y0092709D01*
X0550674Y0092862D01*
X0550688Y0093014D01*
X0550706Y0093167D01*
X0550728Y0093318D01*
X0550753Y0093469D01*
X0550783Y0093620D01*
X0550817Y0093770D01*
X0550854Y0093918D01*
X0550895Y0094066D01*
X0550940Y0094212D01*
X0550989Y0094358D01*
X0551042Y0094502D01*
X0551098Y0094644D01*
X0551158Y0094785D01*
X0551222Y0094925D01*
X0551289Y0095063D01*
X0551360Y0095199D01*
X0551435Y0095333D01*
X0551512Y0095465D01*
X0551594Y0095595D01*
X0551678Y0095723D01*
X0551766Y0095849D01*
X0551857Y0095972D01*
X0551951Y0096093D01*
X0552049Y0096211D01*
X0552149Y0096327D01*
X0552253Y0096440D01*
X0552359Y0096551D01*
X0552468Y0096659D01*
X0552580Y0096764D01*
X0552694Y0096865D01*
X0552812Y0096964D01*
X0552931Y0097060D01*
X0553053Y0097153D01*
X0553178Y0097242D01*
X0553305Y0097329D01*
X0553434Y0097411D01*
X0553565Y0097491D01*
X0553698Y0097567D01*
X0553833Y0097640D01*
X0553970Y0097709D01*
X0554109Y0097774D01*
X0554249Y0097836D01*
X0554391Y0097894D01*
X0554534Y0097949D01*
X0554679Y0098000D01*
X0554825Y0098047D01*
X0554972Y0098090D01*
X0555120Y0098129D01*
X0555269Y0098165D01*
X0555419Y0098196D01*
X0555570Y0098224D01*
X0555721Y0098248D01*
X0555874Y0098268D01*
X0556026Y0098284D01*
X0556179Y0098296D01*
X0556332Y0098304D01*
X0556485Y0098308D01*
X0556639Y0098308D01*
X0556792Y0098304D01*
X0556945Y0098296D01*
X0557098Y0098284D01*
X0557250Y0098268D01*
X0557403Y0098248D01*
X0557554Y0098224D01*
X0557705Y0098196D01*
X0557855Y0098165D01*
X0558004Y0098129D01*
X0558152Y0098090D01*
X0558299Y0098047D01*
X0558445Y0098000D01*
X0558590Y0097949D01*
X0558733Y0097894D01*
X0558875Y0097836D01*
X0559015Y0097774D01*
X0559154Y0097709D01*
X0559291Y0097640D01*
X0559426Y0097567D01*
X0559559Y0097491D01*
X0559690Y0097411D01*
X0559819Y0097329D01*
X0559946Y0097242D01*
X0560071Y0097153D01*
X0560193Y0097060D01*
X0560312Y0096964D01*
X0560430Y0096865D01*
X0560544Y0096764D01*
X0560656Y0096659D01*
X0560765Y0096551D01*
X0560871Y0096440D01*
X0560975Y0096327D01*
X0561075Y0096211D01*
X0561173Y0096093D01*
X0561267Y0095972D01*
X0561358Y0095849D01*
X0561446Y0095723D01*
X0561530Y0095595D01*
X0561612Y0095465D01*
X0561689Y0095333D01*
X0561764Y0095199D01*
X0561835Y0095063D01*
X0561902Y0094925D01*
X0561966Y0094785D01*
X0562026Y0094644D01*
X0562082Y0094502D01*
X0562135Y0094358D01*
X0562184Y0094212D01*
X0562229Y0094066D01*
X0562270Y0093918D01*
X0562307Y0093770D01*
X0562341Y0093620D01*
X0562371Y0093469D01*
X0562396Y0093318D01*
X0562418Y0093167D01*
X0562436Y0093014D01*
X0562450Y0092862D01*
X0562460Y0092709D01*
X0562466Y0092555D01*
X0562468Y0092402D01*
X0562466Y0092249D01*
X0562460Y0092095D01*
X0562450Y0091942D01*
X0562436Y0091790D01*
X0562418Y0091637D01*
X0562396Y0091486D01*
X0562371Y0091335D01*
X0562341Y0091184D01*
X0562307Y0091034D01*
X0562270Y0090886D01*
X0562229Y0090738D01*
X0562184Y0090592D01*
X0562135Y0090446D01*
X0562082Y0090302D01*
X0562026Y0090160D01*
X0561966Y0090019D01*
X0561902Y0089879D01*
X0561835Y0089741D01*
X0561764Y0089605D01*
X0561689Y0089471D01*
X0561612Y0089339D01*
X0561530Y0089209D01*
X0561446Y0089081D01*
X0561358Y0088955D01*
X0561267Y0088832D01*
X0561173Y0088711D01*
X0561075Y0088593D01*
X0560975Y0088477D01*
X0560871Y0088364D01*
X0560765Y0088253D01*
X0560656Y0088145D01*
X0560544Y0088040D01*
X0560430Y0087939D01*
X0560312Y0087840D01*
X0560193Y0087744D01*
X0560071Y0087651D01*
X0559946Y0087562D01*
X0559819Y0087475D01*
X0559690Y0087393D01*
X0559559Y0087313D01*
X0559426Y0087237D01*
X0559291Y0087164D01*
X0559154Y0087095D01*
X0559015Y0087030D01*
X0558875Y0086968D01*
X0558733Y0086910D01*
X0558590Y0086855D01*
X0558445Y0086804D01*
X0558299Y0086757D01*
X0558152Y0086714D01*
X0558004Y0086675D01*
X0557855Y0086639D01*
X0557705Y0086608D01*
X0557554Y0086580D01*
X0557403Y0086556D01*
X0557250Y0086536D01*
X0557098Y0086520D01*
X0556945Y0086508D01*
X0556792Y0086500D01*
X0556639Y0086496D01*
X0556485Y0086496D01*
X0556332Y0086500D01*
X0556179Y0086508D01*
X0556026Y0086520D01*
X0555874Y0086536D01*
X0555721Y0086556D01*
X0555570Y0086580D01*
X0555419Y0086608D01*
X0555269Y0086639D01*
X0555120Y0086675D01*
X0554972Y0086714D01*
X0554825Y0086757D01*
X0554679Y0086804D01*
X0554534Y0086855D01*
X0554391Y0086910D01*
X0554249Y0086968D01*
X0554109Y0087030D01*
X0553970Y0087095D01*
X0553833Y0087164D01*
X0553698Y0087237D01*
X0553565Y0087313D01*
X0553434Y0087393D01*
X0553305Y0087475D01*
X0553178Y0087562D01*
X0553053Y0087651D01*
X0552931Y0087744D01*
X0552812Y0087840D01*
X0552694Y0087939D01*
X0552580Y0088040D01*
X0552468Y0088145D01*
X0552359Y0088253D01*
X0552253Y0088364D01*
X0552149Y0088477D01*
X0552049Y0088593D01*
X0551951Y0088711D01*
X0551857Y0088832D01*
X0551766Y0088955D01*
X0551678Y0089081D01*
X0551594Y0089209D01*
X0551512Y0089339D01*
X0551435Y0089471D01*
X0551360Y0089605D01*
X0551289Y0089741D01*
X0551222Y0089879D01*
X0551158Y0090019D01*
X0551098Y0090160D01*
X0551042Y0090302D01*
X0550989Y0090446D01*
X0550940Y0090592D01*
X0550895Y0090738D01*
X0550854Y0090886D01*
X0550817Y0091034D01*
X0550783Y0091184D01*
X0550753Y0091335D01*
X0550728Y0091486D01*
X0550706Y0091637D01*
X0550688Y0091790D01*
X0550674Y0091942D01*
X0550664Y0092095D01*
X0550658Y0092249D01*
X0550656Y0092402D01*
X0550262Y0451457D02*
X0550264Y0451610D01*
X0550270Y0451764D01*
X0550280Y0451917D01*
X0550294Y0452069D01*
X0550312Y0452222D01*
X0550334Y0452373D01*
X0550359Y0452524D01*
X0550389Y0452675D01*
X0550423Y0452825D01*
X0550460Y0452973D01*
X0550501Y0453121D01*
X0550546Y0453267D01*
X0550595Y0453413D01*
X0550648Y0453557D01*
X0550704Y0453699D01*
X0550764Y0453840D01*
X0550828Y0453980D01*
X0550895Y0454118D01*
X0550966Y0454254D01*
X0551041Y0454388D01*
X0551118Y0454520D01*
X0551200Y0454650D01*
X0551284Y0454778D01*
X0551372Y0454904D01*
X0551463Y0455027D01*
X0551557Y0455148D01*
X0551655Y0455266D01*
X0551755Y0455382D01*
X0551859Y0455495D01*
X0551965Y0455606D01*
X0552074Y0455714D01*
X0552186Y0455819D01*
X0552300Y0455920D01*
X0552418Y0456019D01*
X0552537Y0456115D01*
X0552659Y0456208D01*
X0552784Y0456297D01*
X0552911Y0456384D01*
X0553040Y0456466D01*
X0553171Y0456546D01*
X0553304Y0456622D01*
X0553439Y0456695D01*
X0553576Y0456764D01*
X0553715Y0456829D01*
X0553855Y0456891D01*
X0553997Y0456949D01*
X0554140Y0457004D01*
X0554285Y0457055D01*
X0554431Y0457102D01*
X0554578Y0457145D01*
X0554726Y0457184D01*
X0554875Y0457220D01*
X0555025Y0457251D01*
X0555176Y0457279D01*
X0555327Y0457303D01*
X0555480Y0457323D01*
X0555632Y0457339D01*
X0555785Y0457351D01*
X0555938Y0457359D01*
X0556091Y0457363D01*
X0556245Y0457363D01*
X0556398Y0457359D01*
X0556551Y0457351D01*
X0556704Y0457339D01*
X0556856Y0457323D01*
X0557009Y0457303D01*
X0557160Y0457279D01*
X0557311Y0457251D01*
X0557461Y0457220D01*
X0557610Y0457184D01*
X0557758Y0457145D01*
X0557905Y0457102D01*
X0558051Y0457055D01*
X0558196Y0457004D01*
X0558339Y0456949D01*
X0558481Y0456891D01*
X0558621Y0456829D01*
X0558760Y0456764D01*
X0558897Y0456695D01*
X0559032Y0456622D01*
X0559165Y0456546D01*
X0559296Y0456466D01*
X0559425Y0456384D01*
X0559552Y0456297D01*
X0559677Y0456208D01*
X0559799Y0456115D01*
X0559918Y0456019D01*
X0560036Y0455920D01*
X0560150Y0455819D01*
X0560262Y0455714D01*
X0560371Y0455606D01*
X0560477Y0455495D01*
X0560581Y0455382D01*
X0560681Y0455266D01*
X0560779Y0455148D01*
X0560873Y0455027D01*
X0560964Y0454904D01*
X0561052Y0454778D01*
X0561136Y0454650D01*
X0561218Y0454520D01*
X0561295Y0454388D01*
X0561370Y0454254D01*
X0561441Y0454118D01*
X0561508Y0453980D01*
X0561572Y0453840D01*
X0561632Y0453699D01*
X0561688Y0453557D01*
X0561741Y0453413D01*
X0561790Y0453267D01*
X0561835Y0453121D01*
X0561876Y0452973D01*
X0561913Y0452825D01*
X0561947Y0452675D01*
X0561977Y0452524D01*
X0562002Y0452373D01*
X0562024Y0452222D01*
X0562042Y0452069D01*
X0562056Y0451917D01*
X0562066Y0451764D01*
X0562072Y0451610D01*
X0562074Y0451457D01*
X0562072Y0451304D01*
X0562066Y0451150D01*
X0562056Y0450997D01*
X0562042Y0450845D01*
X0562024Y0450692D01*
X0562002Y0450541D01*
X0561977Y0450390D01*
X0561947Y0450239D01*
X0561913Y0450089D01*
X0561876Y0449941D01*
X0561835Y0449793D01*
X0561790Y0449647D01*
X0561741Y0449501D01*
X0561688Y0449357D01*
X0561632Y0449215D01*
X0561572Y0449074D01*
X0561508Y0448934D01*
X0561441Y0448796D01*
X0561370Y0448660D01*
X0561295Y0448526D01*
X0561218Y0448394D01*
X0561136Y0448264D01*
X0561052Y0448136D01*
X0560964Y0448010D01*
X0560873Y0447887D01*
X0560779Y0447766D01*
X0560681Y0447648D01*
X0560581Y0447532D01*
X0560477Y0447419D01*
X0560371Y0447308D01*
X0560262Y0447200D01*
X0560150Y0447095D01*
X0560036Y0446994D01*
X0559918Y0446895D01*
X0559799Y0446799D01*
X0559677Y0446706D01*
X0559552Y0446617D01*
X0559425Y0446530D01*
X0559296Y0446448D01*
X0559165Y0446368D01*
X0559032Y0446292D01*
X0558897Y0446219D01*
X0558760Y0446150D01*
X0558621Y0446085D01*
X0558481Y0446023D01*
X0558339Y0445965D01*
X0558196Y0445910D01*
X0558051Y0445859D01*
X0557905Y0445812D01*
X0557758Y0445769D01*
X0557610Y0445730D01*
X0557461Y0445694D01*
X0557311Y0445663D01*
X0557160Y0445635D01*
X0557009Y0445611D01*
X0556856Y0445591D01*
X0556704Y0445575D01*
X0556551Y0445563D01*
X0556398Y0445555D01*
X0556245Y0445551D01*
X0556091Y0445551D01*
X0555938Y0445555D01*
X0555785Y0445563D01*
X0555632Y0445575D01*
X0555480Y0445591D01*
X0555327Y0445611D01*
X0555176Y0445635D01*
X0555025Y0445663D01*
X0554875Y0445694D01*
X0554726Y0445730D01*
X0554578Y0445769D01*
X0554431Y0445812D01*
X0554285Y0445859D01*
X0554140Y0445910D01*
X0553997Y0445965D01*
X0553855Y0446023D01*
X0553715Y0446085D01*
X0553576Y0446150D01*
X0553439Y0446219D01*
X0553304Y0446292D01*
X0553171Y0446368D01*
X0553040Y0446448D01*
X0552911Y0446530D01*
X0552784Y0446617D01*
X0552659Y0446706D01*
X0552537Y0446799D01*
X0552418Y0446895D01*
X0552300Y0446994D01*
X0552186Y0447095D01*
X0552074Y0447200D01*
X0551965Y0447308D01*
X0551859Y0447419D01*
X0551755Y0447532D01*
X0551655Y0447648D01*
X0551557Y0447766D01*
X0551463Y0447887D01*
X0551372Y0448010D01*
X0551284Y0448136D01*
X0551200Y0448264D01*
X0551118Y0448394D01*
X0551041Y0448526D01*
X0550966Y0448660D01*
X0550895Y0448796D01*
X0550828Y0448934D01*
X0550764Y0449074D01*
X0550704Y0449215D01*
X0550648Y0449357D01*
X0550595Y0449501D01*
X0550546Y0449647D01*
X0550501Y0449793D01*
X0550460Y0449941D01*
X0550423Y0450089D01*
X0550389Y0450239D01*
X0550359Y0450390D01*
X0550334Y0450541D01*
X0550312Y0450692D01*
X0550294Y0450845D01*
X0550280Y0450997D01*
X0550270Y0451150D01*
X0550264Y0451304D01*
X0550262Y0451457D01*
X0088451Y0450669D02*
X0088453Y0450822D01*
X0088459Y0450976D01*
X0088469Y0451129D01*
X0088483Y0451281D01*
X0088501Y0451434D01*
X0088523Y0451585D01*
X0088548Y0451736D01*
X0088578Y0451887D01*
X0088612Y0452037D01*
X0088649Y0452185D01*
X0088690Y0452333D01*
X0088735Y0452479D01*
X0088784Y0452625D01*
X0088837Y0452769D01*
X0088893Y0452911D01*
X0088953Y0453052D01*
X0089017Y0453192D01*
X0089084Y0453330D01*
X0089155Y0453466D01*
X0089230Y0453600D01*
X0089307Y0453732D01*
X0089389Y0453862D01*
X0089473Y0453990D01*
X0089561Y0454116D01*
X0089652Y0454239D01*
X0089746Y0454360D01*
X0089844Y0454478D01*
X0089944Y0454594D01*
X0090048Y0454707D01*
X0090154Y0454818D01*
X0090263Y0454926D01*
X0090375Y0455031D01*
X0090489Y0455132D01*
X0090607Y0455231D01*
X0090726Y0455327D01*
X0090848Y0455420D01*
X0090973Y0455509D01*
X0091100Y0455596D01*
X0091229Y0455678D01*
X0091360Y0455758D01*
X0091493Y0455834D01*
X0091628Y0455907D01*
X0091765Y0455976D01*
X0091904Y0456041D01*
X0092044Y0456103D01*
X0092186Y0456161D01*
X0092329Y0456216D01*
X0092474Y0456267D01*
X0092620Y0456314D01*
X0092767Y0456357D01*
X0092915Y0456396D01*
X0093064Y0456432D01*
X0093214Y0456463D01*
X0093365Y0456491D01*
X0093516Y0456515D01*
X0093669Y0456535D01*
X0093821Y0456551D01*
X0093974Y0456563D01*
X0094127Y0456571D01*
X0094280Y0456575D01*
X0094434Y0456575D01*
X0094587Y0456571D01*
X0094740Y0456563D01*
X0094893Y0456551D01*
X0095045Y0456535D01*
X0095198Y0456515D01*
X0095349Y0456491D01*
X0095500Y0456463D01*
X0095650Y0456432D01*
X0095799Y0456396D01*
X0095947Y0456357D01*
X0096094Y0456314D01*
X0096240Y0456267D01*
X0096385Y0456216D01*
X0096528Y0456161D01*
X0096670Y0456103D01*
X0096810Y0456041D01*
X0096949Y0455976D01*
X0097086Y0455907D01*
X0097221Y0455834D01*
X0097354Y0455758D01*
X0097485Y0455678D01*
X0097614Y0455596D01*
X0097741Y0455509D01*
X0097866Y0455420D01*
X0097988Y0455327D01*
X0098107Y0455231D01*
X0098225Y0455132D01*
X0098339Y0455031D01*
X0098451Y0454926D01*
X0098560Y0454818D01*
X0098666Y0454707D01*
X0098770Y0454594D01*
X0098870Y0454478D01*
X0098968Y0454360D01*
X0099062Y0454239D01*
X0099153Y0454116D01*
X0099241Y0453990D01*
X0099325Y0453862D01*
X0099407Y0453732D01*
X0099484Y0453600D01*
X0099559Y0453466D01*
X0099630Y0453330D01*
X0099697Y0453192D01*
X0099761Y0453052D01*
X0099821Y0452911D01*
X0099877Y0452769D01*
X0099930Y0452625D01*
X0099979Y0452479D01*
X0100024Y0452333D01*
X0100065Y0452185D01*
X0100102Y0452037D01*
X0100136Y0451887D01*
X0100166Y0451736D01*
X0100191Y0451585D01*
X0100213Y0451434D01*
X0100231Y0451281D01*
X0100245Y0451129D01*
X0100255Y0450976D01*
X0100261Y0450822D01*
X0100263Y0450669D01*
X0100261Y0450516D01*
X0100255Y0450362D01*
X0100245Y0450209D01*
X0100231Y0450057D01*
X0100213Y0449904D01*
X0100191Y0449753D01*
X0100166Y0449602D01*
X0100136Y0449451D01*
X0100102Y0449301D01*
X0100065Y0449153D01*
X0100024Y0449005D01*
X0099979Y0448859D01*
X0099930Y0448713D01*
X0099877Y0448569D01*
X0099821Y0448427D01*
X0099761Y0448286D01*
X0099697Y0448146D01*
X0099630Y0448008D01*
X0099559Y0447872D01*
X0099484Y0447738D01*
X0099407Y0447606D01*
X0099325Y0447476D01*
X0099241Y0447348D01*
X0099153Y0447222D01*
X0099062Y0447099D01*
X0098968Y0446978D01*
X0098870Y0446860D01*
X0098770Y0446744D01*
X0098666Y0446631D01*
X0098560Y0446520D01*
X0098451Y0446412D01*
X0098339Y0446307D01*
X0098225Y0446206D01*
X0098107Y0446107D01*
X0097988Y0446011D01*
X0097866Y0445918D01*
X0097741Y0445829D01*
X0097614Y0445742D01*
X0097485Y0445660D01*
X0097354Y0445580D01*
X0097221Y0445504D01*
X0097086Y0445431D01*
X0096949Y0445362D01*
X0096810Y0445297D01*
X0096670Y0445235D01*
X0096528Y0445177D01*
X0096385Y0445122D01*
X0096240Y0445071D01*
X0096094Y0445024D01*
X0095947Y0444981D01*
X0095799Y0444942D01*
X0095650Y0444906D01*
X0095500Y0444875D01*
X0095349Y0444847D01*
X0095198Y0444823D01*
X0095045Y0444803D01*
X0094893Y0444787D01*
X0094740Y0444775D01*
X0094587Y0444767D01*
X0094434Y0444763D01*
X0094280Y0444763D01*
X0094127Y0444767D01*
X0093974Y0444775D01*
X0093821Y0444787D01*
X0093669Y0444803D01*
X0093516Y0444823D01*
X0093365Y0444847D01*
X0093214Y0444875D01*
X0093064Y0444906D01*
X0092915Y0444942D01*
X0092767Y0444981D01*
X0092620Y0445024D01*
X0092474Y0445071D01*
X0092329Y0445122D01*
X0092186Y0445177D01*
X0092044Y0445235D01*
X0091904Y0445297D01*
X0091765Y0445362D01*
X0091628Y0445431D01*
X0091493Y0445504D01*
X0091360Y0445580D01*
X0091229Y0445660D01*
X0091100Y0445742D01*
X0090973Y0445829D01*
X0090848Y0445918D01*
X0090726Y0446011D01*
X0090607Y0446107D01*
X0090489Y0446206D01*
X0090375Y0446307D01*
X0090263Y0446412D01*
X0090154Y0446520D01*
X0090048Y0446631D01*
X0089944Y0446744D01*
X0089844Y0446860D01*
X0089746Y0446978D01*
X0089652Y0447099D01*
X0089561Y0447222D01*
X0089473Y0447348D01*
X0089389Y0447476D01*
X0089307Y0447606D01*
X0089230Y0447738D01*
X0089155Y0447872D01*
X0089084Y0448008D01*
X0089017Y0448146D01*
X0088953Y0448286D01*
X0088893Y0448427D01*
X0088837Y0448569D01*
X0088784Y0448713D01*
X0088735Y0448859D01*
X0088690Y0449005D01*
X0088649Y0449153D01*
X0088612Y0449301D01*
X0088578Y0449451D01*
X0088548Y0449602D01*
X0088523Y0449753D01*
X0088501Y0449904D01*
X0088483Y0450057D01*
X0088469Y0450209D01*
X0088459Y0450362D01*
X0088453Y0450516D01*
X0088451Y0450669D01*
D11*
X0301444Y0272717D03*
X0301444Y0265630D03*
X0309318Y0265630D03*
X0309318Y0272717D03*
X0307349Y0300079D03*
X0307349Y0307165D03*
X0319554Y0307756D03*
X0319554Y0314843D03*
X0363058Y0311496D03*
X0363058Y0318583D03*
X0371325Y0314055D03*
X0371325Y0306969D03*
X0363451Y0265827D03*
X0363451Y0258740D03*
X0354593Y0258937D03*
X0354593Y0251850D03*
D12*
X0336483Y0321142D03*
X0336483Y0329213D03*
X0329396Y0329213D03*
X0329396Y0321142D03*
M02*
