G75*
%MOIN*%
%OFA0B0*%
%FSLAX25Y25*%
%IPPOS*%
%LPD*%
%AMOC8*
5,1,8,0,0,1.08239X$1,22.5*
%
%ADD10C,0.12611*%
%ADD11R,0.13386X0.13780*%
%ADD12R,0.13780X0.13386*%
%ADD13R,0.13386X0.13386*%
%ADD14R,0.12205X0.12598*%
%ADD15R,0.07375X0.02572*%
%ADD16C,0.08200*%
%ADD17R,0.03950X0.05524*%
%ADD18R,0.01981X0.05524*%
%ADD19R,0.05524X0.01981*%
%ADD20R,0.03359X0.13005*%
%ADD21R,0.06706X0.03950*%
%ADD22R,0.03950X0.06706*%
%ADD23R,0.07099X0.02178*%
%ADD24R,0.05524X0.03950*%
%ADD25R,0.05918X0.08280*%
%ADD26R,0.08871X0.16942*%
%ADD27R,0.07887X0.05131*%
%ADD28R,0.04737X0.06706*%
%ADD29R,0.13792X0.06706*%
%ADD30R,0.05013X0.09304*%
%ADD31R,0.33595X0.28320*%
%ADD32R,0.05900X0.08400*%
%ADD33R,0.13792X0.10643*%
%ADD34R,0.33083X0.12611*%
%ADD35R,0.04343X0.16548*%
%ADD36OC8,0.07216*%
%ADD37R,0.06312X0.05524*%
%ADD38R,0.03359X0.09855*%
%ADD39R,0.01902X0.04048*%
%ADD40R,0.04048X0.01902*%
%ADD41R,0.08674X0.12611*%
%ADD42R,0.05169X0.05169*%
%ADD43C,0.01421*%
%ADD44R,0.02375X0.07099*%
%ADD45R,0.08241X0.06981*%
%ADD46R,0.14383X0.14383*%
%ADD47R,0.01902X0.04146*%
%ADD48R,0.04146X0.01902*%
%ADD49R,0.07099X0.04343*%
%ADD50R,0.01784X0.02769*%
%ADD51R,0.03950X0.03950*%
%ADD52R,0.02769X0.04068*%
%ADD53R,0.10446X0.08280*%
%ADD54R,0.08083X0.14186*%
%ADD55R,0.06587X0.05800*%
%ADD56R,0.05800X0.06587*%
%ADD57R,0.07887X0.07099*%
%ADD58R,0.04068X0.02769*%
%ADD59R,0.08280X0.10446*%
%ADD60C,0.07099*%
%ADD61R,0.04343X0.03950*%
%ADD62R,0.07300X0.12001*%
%ADD63R,0.04300X0.02454*%
%ADD64R,0.09855X0.22847*%
%ADD65R,0.14186X0.08083*%
%ADD66R,0.03950X0.04343*%
%ADD67R,0.03200X0.09500*%
%ADD68R,0.11824X0.10249*%
%ADD69C,0.08800*%
%ADD70R,0.03950X0.08674*%
%ADD71R,0.08674X0.03950*%
%ADD72C,0.10574*%
%ADD73R,0.05524X0.06312*%
%ADD74C,0.21532*%
%ADD75R,0.22847X0.09855*%
%ADD76C,0.06737*%
%ADD77C,0.05950*%
%ADD78C,0.05162*%
%ADD79C,0.14800*%
%ADD80C,0.05556*%
%ADD81C,0.11430*%
D10*
X0093963Y0093976D03*
X0094357Y0450669D03*
X0703018Y0449882D03*
X0705381Y0093189D03*
D11*
X0493176Y0370945D03*
D12*
X0613451Y0371142D03*
D13*
X0613648Y0422323D03*
D14*
X0493373Y0422323D03*
D15*
X0634121Y0311142D03*
X0634121Y0308583D03*
X0634121Y0306024D03*
X0634121Y0303465D03*
X0634121Y0300906D03*
X0634121Y0298346D03*
X0634121Y0295787D03*
X0634121Y0293228D03*
X0634121Y0290669D03*
X0634121Y0288110D03*
X0634121Y0285551D03*
X0634121Y0282992D03*
X0634121Y0280433D03*
X0634121Y0277874D03*
X0634121Y0275315D03*
X0634121Y0272756D03*
X0634121Y0270197D03*
X0634121Y0267638D03*
X0672428Y0267638D03*
X0672428Y0270197D03*
X0672428Y0272756D03*
X0672428Y0275315D03*
X0672428Y0277874D03*
X0672428Y0280433D03*
X0672428Y0282992D03*
X0672428Y0285551D03*
X0672428Y0288110D03*
X0672428Y0290669D03*
X0672428Y0293228D03*
X0672428Y0295787D03*
X0672428Y0298346D03*
X0672428Y0300906D03*
X0672428Y0303465D03*
X0672428Y0306024D03*
X0672428Y0308583D03*
X0672428Y0311142D03*
X0176365Y0312283D03*
X0176365Y0309724D03*
X0176365Y0307165D03*
X0176365Y0304606D03*
X0176365Y0302047D03*
X0176365Y0299488D03*
X0176365Y0296929D03*
X0176365Y0294370D03*
X0176365Y0291811D03*
X0176365Y0289252D03*
X0176365Y0286693D03*
X0176365Y0284134D03*
X0176365Y0281575D03*
X0176365Y0279016D03*
X0138058Y0279016D03*
X0138058Y0281575D03*
X0138058Y0284134D03*
X0138058Y0286693D03*
X0138058Y0289252D03*
X0138058Y0291811D03*
X0138058Y0294370D03*
X0138058Y0296929D03*
X0138058Y0299488D03*
X0138058Y0302047D03*
X0138058Y0304606D03*
X0138058Y0307165D03*
X0138058Y0309724D03*
X0138058Y0312283D03*
X0138058Y0314843D03*
X0138058Y0317402D03*
X0138058Y0319961D03*
X0138058Y0322520D03*
X0176365Y0322520D03*
X0176365Y0319961D03*
X0176365Y0317402D03*
X0176365Y0314843D03*
D16*
X0104593Y0313701D03*
X0104593Y0323701D03*
X0104593Y0303701D03*
X0104593Y0293701D03*
X0104593Y0283701D03*
X0104593Y0273701D03*
X0261168Y0335315D03*
X0271168Y0335315D03*
X0281168Y0335315D03*
X0335302Y0285118D03*
X0340144Y0205197D03*
X0330144Y0205197D03*
X0320144Y0205197D03*
X0221129Y0136102D03*
X0221129Y0126102D03*
X0221129Y0116102D03*
X0449475Y0371693D03*
X0449475Y0381693D03*
X0449475Y0391693D03*
X0449475Y0401693D03*
X0449475Y0411693D03*
X0449475Y0421693D03*
X0449475Y0431693D03*
X0449475Y0441693D03*
X0449475Y0451693D03*
X0369554Y0421693D03*
X0369554Y0411693D03*
X0369554Y0401693D03*
X0369554Y0391693D03*
X0203806Y0402638D03*
X0203806Y0412638D03*
X0203806Y0422638D03*
X0203806Y0432638D03*
X0203806Y0442638D03*
X0698097Y0313858D03*
X0698097Y0303858D03*
X0698097Y0293858D03*
X0698097Y0283858D03*
X0698097Y0273858D03*
X0698097Y0263858D03*
D17*
X0645538Y0254409D03*
X0638451Y0254409D03*
X0626837Y0260315D03*
X0619751Y0260315D03*
X0615105Y0268228D03*
X0608018Y0268228D03*
X0608255Y0280039D03*
X0615341Y0280039D03*
X0615105Y0290984D03*
X0608018Y0290984D03*
X0595499Y0291772D03*
X0588412Y0291772D03*
X0588648Y0279961D03*
X0595735Y0279961D03*
X0595696Y0268228D03*
X0588609Y0268228D03*
X0554987Y0266220D03*
X0547900Y0266220D03*
X0586286Y0239646D03*
X0593373Y0239646D03*
X0600066Y0239646D03*
X0607152Y0239646D03*
X0593373Y0225866D03*
X0586286Y0225866D03*
X0603018Y0198307D03*
X0610105Y0198307D03*
X0610105Y0186496D03*
X0603018Y0186496D03*
X0603018Y0175669D03*
X0610105Y0175669D03*
X0613058Y0162874D03*
X0605971Y0162874D03*
X0599278Y0162874D03*
X0592192Y0162874D03*
X0593176Y0151063D03*
X0600262Y0151063D03*
X0588451Y0135315D03*
X0581365Y0135315D03*
X0549081Y0133346D03*
X0541995Y0133346D03*
X0527428Y0133346D03*
X0520341Y0133346D03*
X0493963Y0133346D03*
X0486877Y0133346D03*
X0486877Y0143189D03*
X0493963Y0143189D03*
X0468373Y0143189D03*
X0461286Y0143189D03*
X0461286Y0133346D03*
X0468373Y0133346D03*
X0454987Y0098307D03*
X0447900Y0098307D03*
X0543963Y0107756D03*
X0551050Y0107756D03*
X0583333Y0101850D03*
X0590420Y0101850D03*
X0642388Y0103819D03*
X0649475Y0103819D03*
X0649475Y0115630D03*
X0642388Y0115630D03*
X0642388Y0127441D03*
X0649475Y0127441D03*
X0662073Y0119567D03*
X0669160Y0119567D03*
X0683727Y0115630D03*
X0690814Y0115630D03*
X0699475Y0115630D03*
X0706562Y0115630D03*
X0706562Y0127441D03*
X0699475Y0127441D03*
X0690814Y0127441D03*
X0683727Y0127441D03*
X0683727Y0139252D03*
X0690814Y0139252D03*
X0699475Y0139252D03*
X0706562Y0139252D03*
X0696719Y0151063D03*
X0689633Y0151063D03*
X0688845Y0162874D03*
X0681759Y0162874D03*
X0681759Y0174685D03*
X0688845Y0174685D03*
X0697507Y0174685D03*
X0704593Y0174685D03*
X0704593Y0162874D03*
X0697507Y0162874D03*
X0647507Y0151063D03*
X0640420Y0151063D03*
X0640420Y0141220D03*
X0647507Y0141220D03*
X0645538Y0207165D03*
X0638451Y0207165D03*
X0638451Y0222913D03*
X0645538Y0222913D03*
X0645538Y0238661D03*
X0638451Y0238661D03*
X0518570Y0292795D03*
X0511483Y0292795D03*
X0467388Y0286890D03*
X0460302Y0286890D03*
X0459318Y0275079D03*
X0466404Y0275079D03*
X0466404Y0264252D03*
X0459318Y0264252D03*
X0459318Y0254409D03*
X0466404Y0254409D03*
X0477034Y0249488D03*
X0484121Y0249488D03*
X0466404Y0243583D03*
X0459318Y0243583D03*
X0477034Y0233740D03*
X0484121Y0233740D03*
X0484121Y0220945D03*
X0477034Y0220945D03*
X0506562Y0227835D03*
X0513648Y0227835D03*
X0513648Y0214055D03*
X0506562Y0214055D03*
X0506562Y0202244D03*
X0513648Y0202244D03*
X0506759Y0193386D03*
X0499672Y0193386D03*
X0499672Y0181575D03*
X0506759Y0181575D03*
X0484121Y0181575D03*
X0477034Y0181575D03*
X0275459Y0282559D03*
X0268373Y0282559D03*
X0260105Y0282165D03*
X0253018Y0282165D03*
X0223766Y0282362D03*
X0216680Y0282362D03*
X0216444Y0294213D03*
X0223530Y0294213D03*
X0198570Y0294213D03*
X0191483Y0294213D03*
X0191955Y0282402D03*
X0199042Y0282402D03*
X0199081Y0269724D03*
X0191995Y0269724D03*
X0216719Y0270551D03*
X0223806Y0270551D03*
X0257152Y0318386D03*
X0264239Y0318386D03*
X0275262Y0320157D03*
X0282349Y0320157D03*
X0290390Y0320140D03*
X0297477Y0320140D03*
X0306759Y0318386D03*
X0313845Y0318386D03*
X0329396Y0344961D03*
X0336483Y0344961D03*
X0336483Y0356772D03*
X0329396Y0356772D03*
X0381562Y0356772D03*
X0388648Y0356772D03*
X0289239Y0413268D03*
X0282152Y0413268D03*
X0265223Y0412480D03*
X0258136Y0412480D03*
X0244357Y0413268D03*
X0237270Y0413268D03*
X0239633Y0187480D03*
X0233924Y0187480D03*
X0226837Y0187480D03*
X0224869Y0177047D03*
X0231759Y0177047D03*
X0238845Y0177047D03*
X0246719Y0187480D03*
X0217782Y0177047D03*
X0654593Y0402638D03*
X0661680Y0402638D03*
X0661680Y0420748D03*
X0654593Y0420748D03*
D18*
X0355853Y0312087D03*
X0353885Y0312087D03*
X0351916Y0312087D03*
X0349948Y0312087D03*
X0347979Y0312087D03*
X0346010Y0312087D03*
X0344042Y0312087D03*
X0342073Y0312087D03*
X0340105Y0312087D03*
X0338136Y0312087D03*
X0336168Y0312087D03*
X0334199Y0312087D03*
X0332231Y0312087D03*
X0330262Y0312087D03*
X0328294Y0312087D03*
X0326325Y0312087D03*
X0326325Y0266811D03*
X0328294Y0266811D03*
X0330262Y0266811D03*
X0332231Y0266811D03*
X0334199Y0266811D03*
X0336168Y0266811D03*
X0338136Y0266811D03*
X0340105Y0266811D03*
X0342073Y0266811D03*
X0344042Y0266811D03*
X0346010Y0266811D03*
X0347979Y0266811D03*
X0349948Y0266811D03*
X0351916Y0266811D03*
X0353885Y0266811D03*
X0355853Y0266811D03*
D19*
X0363727Y0274685D03*
X0363727Y0276654D03*
X0363727Y0278622D03*
X0363727Y0280591D03*
X0363727Y0282559D03*
X0363727Y0284528D03*
X0363727Y0286496D03*
X0363727Y0288465D03*
X0363727Y0290433D03*
X0363727Y0292402D03*
X0363727Y0294370D03*
X0363727Y0296339D03*
X0363727Y0298307D03*
X0363727Y0300276D03*
X0363727Y0302244D03*
X0363727Y0304213D03*
X0318451Y0304213D03*
X0318451Y0302244D03*
X0318451Y0300276D03*
X0318451Y0298307D03*
X0318451Y0296339D03*
X0318451Y0294370D03*
X0318451Y0292402D03*
X0318451Y0290433D03*
X0318451Y0288465D03*
X0318451Y0286496D03*
X0318451Y0284528D03*
X0318451Y0282559D03*
X0318451Y0280591D03*
X0318451Y0278622D03*
X0318451Y0276654D03*
X0318451Y0274685D03*
D20*
X0206955Y0307953D03*
X0206955Y0327244D03*
X0100656Y0192520D03*
X0100656Y0173228D03*
X0601247Y0301457D03*
X0601247Y0320748D03*
D21*
X0176640Y0410315D03*
X0176640Y0415039D03*
X0176640Y0419764D03*
X0176640Y0424488D03*
X0176640Y0429213D03*
X0176640Y0433937D03*
X0176640Y0438661D03*
X0176640Y0443386D03*
X0133333Y0443386D03*
X0133333Y0438661D03*
X0133333Y0433937D03*
X0133333Y0429213D03*
X0133333Y0424488D03*
X0133333Y0419764D03*
X0133333Y0415039D03*
X0133333Y0410315D03*
D22*
X0143176Y0401457D03*
X0147900Y0401457D03*
X0152625Y0401457D03*
X0157349Y0401457D03*
X0162073Y0401457D03*
X0166798Y0401457D03*
D23*
X0310105Y0249685D03*
X0310105Y0247126D03*
X0310105Y0244567D03*
X0310105Y0242008D03*
X0310105Y0239449D03*
X0310105Y0236890D03*
X0310105Y0234331D03*
X0332152Y0234331D03*
X0332152Y0236890D03*
X0332152Y0239449D03*
X0332152Y0242008D03*
X0332152Y0244567D03*
X0332152Y0247126D03*
X0332152Y0249685D03*
X0424475Y0345354D03*
X0424475Y0347913D03*
X0424475Y0350472D03*
X0424475Y0353031D03*
X0424475Y0355591D03*
X0424475Y0358150D03*
X0424475Y0360709D03*
X0446522Y0360709D03*
X0446522Y0358150D03*
X0446522Y0355591D03*
X0446522Y0353031D03*
X0446522Y0350472D03*
X0446522Y0347913D03*
X0446522Y0345354D03*
D24*
X0364436Y0332756D03*
X0364436Y0325669D03*
X0352625Y0325669D03*
X0352625Y0332756D03*
X0343766Y0332756D03*
X0343766Y0325669D03*
X0332940Y0325669D03*
X0332940Y0332756D03*
X0461877Y0234331D03*
X0461877Y0227244D03*
X0461877Y0219567D03*
X0461877Y0212480D03*
X0461877Y0203819D03*
X0461877Y0196732D03*
X0475656Y0196732D03*
X0475656Y0203819D03*
X0484859Y0198283D03*
X0484859Y0191197D03*
X0461877Y0186102D03*
X0461877Y0179016D03*
X0504199Y0169370D03*
X0504199Y0162283D03*
X0504199Y0152638D03*
X0504199Y0145551D03*
X0536680Y0151457D03*
X0536680Y0158543D03*
X0573097Y0163268D03*
X0573097Y0170354D03*
X0575066Y0189843D03*
X0585892Y0189843D03*
X0585892Y0196929D03*
X0585892Y0203622D03*
X0575066Y0203622D03*
X0575066Y0196929D03*
X0563255Y0196929D03*
X0563255Y0203622D03*
X0563255Y0210709D03*
X0575066Y0210709D03*
X0585892Y0210709D03*
X0600656Y0213661D03*
X0600656Y0206575D03*
X0611483Y0206575D03*
X0611483Y0213661D03*
X0623294Y0215433D03*
X0623294Y0222520D03*
X0577034Y0249882D03*
X0577034Y0256969D03*
X0565223Y0256969D03*
X0565223Y0249882D03*
X0553412Y0249882D03*
X0553412Y0256969D03*
X0540617Y0256969D03*
X0540617Y0249882D03*
X0528806Y0249882D03*
X0528806Y0256969D03*
X0516010Y0256969D03*
X0516010Y0249882D03*
X0565223Y0264646D03*
X0565223Y0271732D03*
X0565223Y0279409D03*
X0565223Y0286496D03*
X0549475Y0210709D03*
X0541601Y0210709D03*
X0541601Y0203622D03*
X0549475Y0203622D03*
X0563255Y0189843D03*
X0518963Y0187874D03*
X0518963Y0194961D03*
X0601640Y0138858D03*
X0601640Y0131772D03*
X0601640Y0123110D03*
X0601640Y0116024D03*
X0601640Y0107362D03*
X0601640Y0100276D03*
X0587861Y0112087D03*
X0587861Y0119173D03*
X0573097Y0107362D03*
X0573097Y0100276D03*
X0559318Y0100276D03*
X0559318Y0107362D03*
X0620341Y0141614D03*
X0620341Y0148701D03*
X0632152Y0145551D03*
X0632152Y0152638D03*
X0663648Y0160315D03*
X0663648Y0167402D03*
X0671522Y0170354D03*
X0671522Y0163268D03*
X0478609Y0124094D03*
X0478609Y0117008D03*
X0254199Y0210512D03*
X0244357Y0210512D03*
X0244357Y0217598D03*
X0254199Y0217598D03*
X0235302Y0217598D03*
X0225066Y0217598D03*
X0225066Y0210512D03*
X0224672Y0203031D03*
X0235302Y0203031D03*
X0235302Y0210512D03*
X0235302Y0195945D03*
X0224672Y0195945D03*
X0247310Y0150669D03*
X0247310Y0143583D03*
X0114042Y0115236D03*
X0114042Y0108150D03*
X0132940Y0380591D03*
X0132940Y0387677D03*
X0151050Y0388465D03*
X0151050Y0381378D03*
X0168766Y0380984D03*
X0168766Y0388071D03*
X0117585Y0430591D03*
X0117585Y0437677D03*
X0105774Y0437677D03*
X0094357Y0431378D03*
X0105774Y0430591D03*
X0094357Y0424291D03*
X0190420Y0431378D03*
X0190420Y0438465D03*
D25*
X0347703Y0355787D03*
X0347703Y0343386D03*
X0369357Y0343386D03*
X0369357Y0355787D03*
D26*
X0320144Y0375866D03*
X0306168Y0375866D03*
X0306168Y0332165D03*
X0320144Y0332165D03*
D27*
X0274278Y0308937D03*
X0274278Y0294370D03*
X0251050Y0294370D03*
X0251050Y0308937D03*
D28*
X0147113Y0223898D03*
X0138058Y0223898D03*
X0129003Y0223898D03*
D29*
X0138058Y0248701D03*
D30*
X0139633Y0149094D03*
X0146325Y0149094D03*
X0153018Y0149094D03*
X0132940Y0149094D03*
X0126247Y0149094D03*
D31*
X0139633Y0191122D03*
D32*
X0158497Y0201094D03*
X0120747Y0201094D03*
D33*
X0099475Y0154213D03*
X0099475Y0127047D03*
D34*
X0183333Y0153031D03*
X0183333Y0176654D03*
D35*
X0184908Y0132008D03*
X0141207Y0131929D03*
X0141207Y0097638D03*
X0184908Y0097717D03*
D36*
X0248294Y0433346D03*
X0258294Y0433346D03*
X0268294Y0433346D03*
X0278294Y0433346D03*
X0288294Y0433346D03*
X0298294Y0433346D03*
X0308294Y0433346D03*
X0318294Y0433346D03*
X0328294Y0433346D03*
X0338294Y0433346D03*
X0338294Y0443346D03*
X0328294Y0443346D03*
X0318294Y0443346D03*
X0308294Y0443346D03*
X0298294Y0443346D03*
X0288294Y0443346D03*
X0278294Y0443346D03*
X0268294Y0443346D03*
X0258294Y0443346D03*
X0248294Y0443346D03*
D37*
X0169160Y0369173D03*
X0151444Y0368780D03*
X0151444Y0356969D03*
X0169160Y0357362D03*
X0132940Y0356969D03*
X0132940Y0368780D03*
D38*
X0102625Y0235906D03*
X0102625Y0222913D03*
X0171522Y0222441D03*
X0171522Y0235433D03*
D39*
X0662664Y0147569D03*
X0668570Y0147569D03*
X0668570Y0130935D03*
X0662664Y0130935D03*
D40*
X0659268Y0132362D03*
X0659268Y0134331D03*
X0659268Y0136299D03*
X0659268Y0138268D03*
X0659268Y0140236D03*
X0659268Y0142205D03*
X0659268Y0144173D03*
X0659268Y0146142D03*
X0671965Y0146142D03*
X0671965Y0144173D03*
X0671965Y0142205D03*
X0671965Y0140236D03*
X0671965Y0138268D03*
X0671965Y0136299D03*
X0671965Y0134331D03*
X0671965Y0132362D03*
D41*
X0665617Y0139252D03*
D42*
X0667388Y0139252D03*
X0663845Y0139252D03*
X0663845Y0142795D03*
X0667388Y0142795D03*
X0667388Y0135709D03*
X0663845Y0135709D03*
X0568766Y0126654D03*
X0565617Y0126654D03*
X0565617Y0123504D03*
X0568766Y0123504D03*
X0568766Y0120354D03*
X0565617Y0120354D03*
X0559318Y0226850D03*
X0559318Y0230787D03*
X0559318Y0234724D03*
X0555381Y0234724D03*
X0555381Y0230787D03*
X0555381Y0226850D03*
X0551444Y0226850D03*
X0551444Y0230787D03*
X0551444Y0234724D03*
D43*
X0630494Y0137110D02*
X0633810Y0137110D01*
X0630494Y0137110D02*
X0630494Y0140426D01*
X0633810Y0140426D01*
X0633810Y0137110D01*
X0633810Y0138530D02*
X0630494Y0138530D01*
X0630494Y0139950D02*
X0633810Y0139950D01*
X0633810Y0130204D02*
X0630494Y0130204D01*
X0630494Y0133520D01*
X0633810Y0133520D01*
X0633810Y0130204D01*
X0633810Y0131624D02*
X0630494Y0131624D01*
X0630494Y0133044D02*
X0633810Y0133044D01*
D44*
X0252133Y0160118D03*
X0249573Y0160118D03*
X0247014Y0160118D03*
X0244455Y0160118D03*
X0244455Y0176654D03*
X0247014Y0176654D03*
X0249573Y0176654D03*
X0252133Y0176654D03*
D45*
X0248294Y0168386D03*
D46*
X0555381Y0230787D03*
D47*
X0556365Y0221043D03*
X0558333Y0221043D03*
X0560302Y0221043D03*
X0562270Y0221043D03*
X0554396Y0221043D03*
X0552428Y0221043D03*
X0550459Y0221043D03*
X0548491Y0221043D03*
X0548491Y0240531D03*
X0550459Y0240531D03*
X0552428Y0240531D03*
X0554396Y0240531D03*
X0556365Y0240531D03*
X0558333Y0240531D03*
X0560302Y0240531D03*
X0562270Y0240531D03*
D48*
X0565125Y0237677D03*
X0565125Y0235709D03*
X0565125Y0233740D03*
X0565125Y0231772D03*
X0565125Y0229803D03*
X0565125Y0227835D03*
X0565125Y0225866D03*
X0565125Y0223898D03*
X0545636Y0223898D03*
X0545636Y0225866D03*
X0545636Y0227835D03*
X0545636Y0229803D03*
X0545636Y0231772D03*
X0545636Y0233740D03*
X0545636Y0235709D03*
X0545636Y0237677D03*
D49*
X0497310Y0215039D03*
D50*
X0498294Y0211299D03*
X0500262Y0211299D03*
X0496325Y0211299D03*
X0494357Y0211299D03*
X0494357Y0218780D03*
X0496325Y0218780D03*
X0498294Y0218780D03*
X0500262Y0218780D03*
D51*
X0485007Y0275079D03*
X0476148Y0275079D03*
X0476148Y0286890D03*
X0485007Y0286890D03*
X0623294Y0207657D03*
X0623294Y0198799D03*
X0496325Y0106280D03*
X0496325Y0097421D03*
D52*
X0520046Y0141476D03*
X0522605Y0141476D03*
X0525164Y0141476D03*
X0527723Y0141476D03*
X0527723Y0152776D03*
X0525164Y0152776D03*
X0522605Y0152776D03*
X0520046Y0152776D03*
X0547605Y0152776D03*
X0550164Y0152776D03*
X0552723Y0152776D03*
X0555282Y0152776D03*
X0555282Y0141476D03*
X0552723Y0141476D03*
X0550164Y0141476D03*
X0547605Y0141476D03*
X0573196Y0141476D03*
X0575755Y0141476D03*
X0578314Y0141476D03*
X0580873Y0141476D03*
X0580873Y0152776D03*
X0578314Y0152776D03*
X0575755Y0152776D03*
X0573196Y0152776D03*
X0526739Y0221201D03*
X0524180Y0221201D03*
X0521621Y0221201D03*
X0519062Y0221201D03*
X0519062Y0232500D03*
X0521621Y0232500D03*
X0524180Y0232500D03*
X0526739Y0232500D03*
D53*
X0522900Y0228425D03*
X0523885Y0145551D03*
X0551444Y0145551D03*
X0577034Y0145551D03*
D54*
X0551542Y0181575D03*
X0529692Y0181575D03*
D55*
X0499278Y0234134D03*
X0499278Y0251063D03*
D56*
X0619751Y0173701D03*
X0636680Y0173701D03*
D57*
X0649869Y0183937D03*
X0649869Y0194961D03*
X0476640Y0109331D03*
X0476640Y0098307D03*
D58*
X0464573Y0116713D03*
X0464573Y0119272D03*
X0464573Y0121831D03*
X0464573Y0124390D03*
X0453274Y0124390D03*
X0453274Y0121831D03*
X0453274Y0119272D03*
X0453274Y0116713D03*
X0465085Y0150177D03*
X0465085Y0152736D03*
X0465085Y0155295D03*
X0465085Y0157854D03*
X0476385Y0157854D03*
X0476385Y0155295D03*
X0476385Y0152736D03*
X0476385Y0150177D03*
X0484770Y0163957D03*
X0484770Y0166516D03*
X0484770Y0169075D03*
X0484770Y0171634D03*
X0496070Y0171634D03*
X0496070Y0169075D03*
X0496070Y0166516D03*
X0496070Y0163957D03*
D59*
X0491995Y0167795D03*
X0472310Y0154016D03*
X0457349Y0120551D03*
D60*
X0430381Y0117008D03*
X0420538Y0117008D03*
X0410696Y0117008D03*
X0400853Y0117008D03*
X0250459Y0114843D03*
X0240617Y0114843D03*
X0665026Y0103228D03*
X0674869Y0103228D03*
D61*
X0486877Y0262776D03*
X0478609Y0266516D03*
X0478609Y0259035D03*
D62*
X0567192Y0123504D03*
D63*
X0558924Y0124783D03*
X0558924Y0122224D03*
X0558924Y0119665D03*
X0558924Y0117106D03*
X0558924Y0127343D03*
X0558924Y0129902D03*
X0575459Y0129902D03*
X0575459Y0127343D03*
X0575459Y0124783D03*
X0575459Y0122224D03*
X0575459Y0119665D03*
X0575459Y0117106D03*
D64*
X0437073Y0186496D03*
X0407940Y0186496D03*
X0391798Y0186496D03*
X0362664Y0186496D03*
D65*
X0519948Y0122618D03*
X0519948Y0100768D03*
D66*
X0496129Y0117598D03*
X0488648Y0117598D03*
X0492388Y0125866D03*
D67*
X0610873Y0125930D03*
X0615873Y0125930D03*
X0620873Y0125930D03*
X0625873Y0125930D03*
X0625873Y0105330D03*
X0620873Y0105330D03*
X0615873Y0105330D03*
X0610873Y0105330D03*
D68*
X0673097Y0191614D03*
X0697113Y0191614D03*
X0697113Y0236496D03*
X0673097Y0236496D03*
D69*
X0679113Y0214055D03*
X0697113Y0214055D03*
D70*
X0601247Y0355394D03*
X0593373Y0355394D03*
X0586680Y0355394D03*
X0577113Y0355394D03*
X0567270Y0355394D03*
X0557428Y0355394D03*
X0550735Y0355394D03*
X0537743Y0355394D03*
X0527900Y0355394D03*
X0518058Y0355394D03*
D71*
X0611483Y0398504D03*
X0611483Y0438071D03*
D72*
X0297507Y0148110D03*
X0297507Y0130000D03*
D73*
X0103412Y0109331D03*
X0091601Y0109331D03*
X0627822Y0402638D03*
X0639633Y0402638D03*
X0639633Y0420748D03*
X0627822Y0420748D03*
D74*
X0363451Y0143583D03*
X0363451Y0115236D03*
D75*
X0297507Y0178228D03*
X0297507Y0207362D03*
D76*
X0176247Y0262087D03*
X0167192Y0284528D03*
X0160892Y0292008D03*
X0235696Y0092402D03*
D77*
X0209318Y0148307D03*
X0145932Y0170748D03*
X0128215Y0162874D03*
X0112467Y0162874D03*
X0129396Y0136890D03*
X0116404Y0212087D03*
X0145932Y0212087D03*
X0145932Y0308543D03*
X0595144Y0302638D03*
X0635302Y0321142D03*
X0652231Y0304213D03*
X0645932Y0297717D03*
X0662664Y0281969D03*
X0680381Y0281969D03*
X0676444Y0261299D03*
X0645932Y0262283D03*
X0657349Y0368780D03*
D78*
X0663255Y0249488D03*
X0414829Y0230197D03*
X0398294Y0240433D03*
X0283333Y0250669D03*
X0254987Y0250669D03*
X0201050Y0288858D03*
X0149869Y0269173D03*
X0126247Y0282953D03*
X0130184Y0292795D03*
X0151050Y0250669D03*
X0177428Y0164843D03*
X0194751Y0360512D03*
X0338058Y0424685D03*
X0352625Y0424685D03*
X0394751Y0411693D03*
D79*
X0446129Y0146142D03*
D80*
X0160892Y0262874D03*
D81*
X0184908Y0197520D03*
M02*
